<svg xmlns="http://www.w3.org/2000/svg" viewBox="0 0 703.8 240.9"><style>.st1{fill:#323232}.st2{fill:#7cd4b3}</style><g><path d="M123.3 70C153 27.3 167.8 5.9 167.8 5.7c0-3.2-2.8-4.7-8.5-4.8-2 0-3.4.6-4.3 1.8l-2.3 3.5c-6 9-25 23.6-57 43.8-5 3.3-16.7 11.6-35.1 24.8s-32.1 22.2-41.1 27c-6.8 1.3-11.5 2.5-14 3.5-3.7 1.2-5.5 3.9-5.5 8.3-.1 2.3.6 4.5 2 6.3 1.1 1.6 3.2 2.2 5 1.5 20.2-8.3 35-12.5 44.6-12.5s20.8 1.8 33.6 5.5C77.8 133.1 74 148.8 74 161.5c0 7 1.2 13 3.5 18 1 1.1 2.5 1.6 4 1.5 2.7 0 4-1.5 4-4.5-.1-.8-.2-1.5-.5-2.3-1.9-3.3-2.9-7-3-10.8 0-3.5.1-6.3.3-8.3 1.6-13.5 5.6-26.5 12-38.5 13 4 23.8 6 32.5 6 20.3 0 30.5-5.7 30.5-17 0-4.5-1.6-9.6-4.8-15.3-.6-1.5-2.1-2.5-3.8-2.5-1.7 0-2.3 1-1.8 3.1.5 1.9.7 3.9.8 5.9 0 5.7-2.4 10.5-7.3 14.5-3.8 2.8-8.9 4.3-15.2 4.3-6.3 0-15.3-2-27-6 7.1-12 15.4-25.3 25.1-39.6zm-86 29.3C46 93.1 61.9 81.7 85.2 65s40.1-28.3 50.6-34.8l-5.8 8.5C109.8 67.6 96.1 90 88.8 106c-14-5.3-25.4-8-34.3-8-5.8.1-11.5.5-17.2 1.3zM362 0c-8 0-14.4.8-19.3 2.5-2.3-.2-4.3-.2-6-.3-5.5 0-8.3 1-8.3 3 0 .8.4 1.5 1 2-14.7 6.7-29.4 16.3-44 28.8-14.6 12.5-25.9 25.4-33.9 38.8-13 21.2-19.5 40.6-19.5 58.3s6.9 27.4 20.8 29.3c3.1.5 6.3.8 9.5.8 14.1 0 28.3-3.2 42.5-9.5 2.4-1.1-7.7-12.8-5.5-14.4 10.8-8 30.1-12.5 42.3-23.3 15.6-13.7 23-12.8 25.9-12.9.8 0 1-.4 1.3-.8 3.3-4.6 6.3-9.4 9-14.4 7.3-13.7 11-27.1 11-40.3s-4.7-24.2-14-33c-4-4-8.9-7-14.3-8.8h4.1c2.4 0 5.6.8 9.6 2.4s6.2 1.2 6.5-1.1c.1-4.8-6.2-7.1-18.7-7.1zm-98 78c9.1-13.7 19.6-26.4 31.5-37.8 17.2-16.3 33.5-26.9 49-31.8 7.2 1.3 14.8 5.2 23 11.5 5.3 4.3 8 12.8 8 25.5 0 16.3-5 32.1-15 47.3-6.4 9.8-19.7 20.3-30.7 26.9-11.3 7.7-22.2 12.8-32.3 18-2.6 1.4.5 5.9-1.9 7.4-11.9 7.5-23.1 11.9-34.9 11.9-1.7 0-3.3-.1-5-.3-8.2-.7-12.3-7.3-12.3-20 .1-17.8 6.9-37.4 20.6-58.6zm395.3-8C689 27.3 703.8 5.9 703.8 5.7c0-3.2-2.8-4.7-8.5-4.8-2 0-3.4.6-4.3 1.8l-2.3 3.5c-6 9-25 23.6-57 43.8-5 3.3-16.7 11.6-35.1 24.8s-32.1 22.2-41.1 27c-6.8 1.3-11.5 2.5-14 3.5-3.7 1.2-5.5 3.9-5.5 8.3-.1 2.3.6 4.5 2 6.3 1.1 1.6 3.2 2.2 5 1.5 20.2-8.3 35-12.5 44.6-12.5s20.8 1.8 33.6 5.5c-7.5 18.8-11.3 34.6-11.3 47.3 0 7 1.2 13 3.5 18 1 1.1 2.5 1.6 4 1.5 2.7 0 4-1.5 4-4.5-.1-.8-.2-1.5-.5-2.3-1.9-3.3-2.9-7-3-10.8 0-3.5.1-6.3.3-8.3 1.6-13.5 5.6-26.5 12-38.5 13 4 23.8 6 32.5 6 20.3 0 30.5-5.7 30.5-17 0-4.5-1.6-9.6-4.8-15.3-.6-1.5-2.1-2.5-3.8-2.5-1.7 0-2.3 1-1.8 3.1.5 1.9.7 3.9.8 5.9 0 5.7-2.4 10.5-7.3 14.5-3.8 2.8-8.9 4.3-15.3 4.3-6.3 0-15.3-2-27-6 7.2-12.2 15.6-25.5 25.3-39.8zm-86 29.3c8.7-6.2 24.6-17.6 47.9-34.3s40.1-28.3 50.6-34.8l-5.8 8.5C645.8 67.6 632.1 90 624.8 106c-14-5.3-25.4-8-34.3-8-5.8.1-11.5.5-17.2 1.3z" fill="#a16ac7"/></g><g class="container"><g class="head"><path class="st1" d="M345.8 177.3c-16.4-7.1-35.3-16.5-47.8-30.3-2.1-2.3-4-4.8-5.7-7.4-2.1-3.3 2.6-5.4 4.5-2.4 10.7 16.5 32.2 27.2 49.8 34.9 3.1 1.3 2.8 6.7-.8 5.2zM365.1 148.7c-4.5-13.2 8.1-25.6 20.3-28.4 5.4-1.2 11.2-.5 15.2 3.6 2.2 2.3 3.6 5.2 3.6 8.4 0 3.4-2.6 5.1-3 8-.4 2.5-1.3 1.1 2.8 3.6 2.5 1.5 5.1 3 7.7 4.3 4.8 2.3 9.8 4 15 5.2 8.7 2.1 17.5 2.9 25.8 6.5 12.2 5.2 30.2 28.4 42.7 13.1 0 1.1-.1 2.2-.1 3.3-9.2-12.1-6.2-31.8-10.1-46-6.7-24.5-25.5-50.4-53.7-49-17.1.9-31 11.5-44.7 20.7-9 6.1-22.6 9.8-29.8-1.3 1.7-.3 3.4-.7 5-1 .3 10.8 1.8 24.5 9.7 32.9 2.6 2.8-.9 6.4-3.5 3.6-9-9.6-11.4-24.4-11.7-36.9 0-1.1.5-1.9 1.2-2.2 3.1-3.5 3-.2 3.9 1.2 8.7 13.5 30.4-7.6 38.5-12.3 14.2-8.4 30.6-13.2 46.8-8.1 21.2 6.7 35.4 26.1 42 46.4 2.8 8.6 4.5 17.6 5.4 26.6.8 8 .2 16 5.4 22.9.7 1 .7 2.4-.1 3.3-5.7 7-15.4 8.2-23.3 4.5-8.5-4-14.6-11.8-23.2-15.9-7.3-3.4-15.3-4.6-23.1-6.2-8-1.6-15.7-4.2-23-8-4.2-2.2-13.5-5.8-12.8-11.7.3-2.8 4.2-4.4 4.3-7.4.6-9.7-10.2-7.4-14.8-5.4-7.5 3.2-16.4 11.6-13.3 20.6 1.4 3.8-4 4.4-5.1 1.1z"/><path class="st2" d="M356.6 100.1c-4.2-10.2-41.1-62.8-43.3-73.6-.8-3.7 4.9-2.8 5.6.4 1.8 8.5 37.4 58.9 40.8 67.1l2.1 5.1c1.6 3.6-3.9 4.1-5.2 1z"/><path class="st2" d="M361.4 101.7c-15.1 13.4-35.2 29.5-56.2 36.8-8.3 2.9-26.7 4.5-35 4-3.3-.2-4.5-5.8-.6-5.5 18.3 1 46.3-9.7 61-19.4 9.2-6.1 18.2-12.7 26.5-20.1 2.5-2.2 6.8 2 4.3 4.2z"/><path class="st1" d="M476.3 180.6c-4.1 6-9.7 11.1-15.3 15.6-4.7 3.8-9.8 7.2-15.1 10.1-4.6 2.5-9.5 3.7-13.1 7.4-6.8 7.2-9.6 18.2-16.2 25.2-2.2 2.4-3.7 2.6-7 1-2.7-1.3-4.9-4-6.8-6.4-1.7-2.2-2.8-5.1-4.6-7.2-.9-3.8-3.4-5.1-7.6-4.1-1.1.2-2.2.4-3.3.7-10.1 1.1-18.9 4-27.5-3.1-7.8-6.4-11.9-17.2-13.3-27-1.6-11.1 1.7-23.9-3.4-34.3-1.7-3.5 3.8-4 5.2-1 8.8 18.2-4.8 46.5 16.1 59.5 10.4 6.5 20.7-3.5 30.9-.7 4 1.1 5.3 4.3 7.3 7.6 1.6 2.5 5.2 10.6 8.6 11.1 1.7.2 1-.4 2.3-3.3 1.8-3.8 4.6-7.4 6.9-10.9 2.8-4.1 5.8-10.5 9.6-13.7 3.9-3.2 10.9-4.9 15.4-7.6 5.4-3.2 10.5-6.8 15.1-11 4.1-3.6 8.1-7.7 11.2-12.2 2.1-2.6 6.5 1.6 4.6 4.3z"/><path class="st1" d="M448.7 191.6c0-3.7-4.1-7-7.2-9-3.1-1.9-1.2-6.7 2.2-4.6 4.6 2.9 10.5 7.9 10.6 14 0 3.8-5.6 2.9-5.6-.4zM430 194.1c-3.7 1.7-6 4.7-5.1 6.6.9 1.9 4.6 2 8.4.3 3.7-1.7 6-4.7 5.1-6.6-.9-2-4.6-2.1-8.4-.3z"/><path class="st2" d="M245.6 129.2c10.2 4.2 13.9 11.1 24.7 13.3 3.7.8 2.8-4.9-.4-5.6-8.5-1.8-10-7.4-18.2-10.8l-5.1-2.1c-3.6-1.5-4.2 3.9-1 5.2z"/></g></g></svg>