<svg xmlns="http://www.w3.org/2000/svg" viewBox="0 0 129.6 90"><style>.animate,path{opacity:0}.animate{stroke-dasharray:1000;stroke-dashoffset:0;-webkit-animation:dash 3s linear 1s forwards;animation:dash 3s linear 1s forwards}@-webkit-keyframes dash{from{opacity:1;stroke-dashoffset:1000}to{opacity:1;stroke-dashoffset:0}}@keyframes dash{from{opacity:1;stroke-dashoffset:1000}to{opacity:1;stroke-dashoffset:0}}.st1{fill:none;stroke:#2e2e2e;stroke-width:2;stroke-miterlimit:10}@media all and
(-ms-high-contrast:none),(-ms-high-contrast:active){path{opacity:1}}</style><path class="qw" d="M1 1h127.6v61.6c0-7.8-3.4-14.8-8.8-19.6V16.4l-6.6-6.6H16.4l-6.6 6.6v30.8l6.6 6.6h61c-1 2.8-1.5 5.7-1.5 8.8H1V1z" fill="none" stroke="#25d6b4" stroke-width="2" stroke-miterlimit="10"/><path class="st1 qw" d="M64.8 18.3c7.4 0 13.5 6 13.5 13.5s-6 13.5-13.5 13.5-13.5-6-13.5-13.5 6.1-13.5 13.5-13.5zM128.6 62.6c0 14.6-11.8 26.4-26.4 26.4S75.8 77.2 75.8 62.6c0-3.1.6-6 1.5-8.8.9-2.5 2.2-4.9 3.7-7l.2-.2c.4-.5.7-.9 1.1-1.4l.2-.2c1.1-1.3 2.4-2.5 3.8-3.5.2-.2.4-.3.7-.5.4-.2.7-.5 1.1-.7l.9-.6c.3-.2.7-.4 1-.6.4-.2.8-.4 1.3-.6.3-.1.5-.3.8-.4.7-.3 1.4-.5 2.1-.8.3-.1.5-.1.8-.2.5-.1 1-.3 1.6-.4.3-.1.6-.1.8-.2.5-.1 1.1-.2 1.6-.3.3 0 .5-.1.8-.1.8-.1 1.6-.1 2.5-.1.9 0 1.7 0 2.6.1.4 0 .7.1 1.1.2.5.1.9.1 1.4.2.5.1.9.2 1.4.3.3.1.7.2 1 .3.5.2 1.1.3 1.6.5.2.1.5.2.7.2.6.2 1.2.5 1.7.8.1.1.3.1.4.2.6.3 1.2.7 1.8 1 .1 0 .1.1.2.1l1.8 1.2s.1 0 .1.1l1.8 1.5c5.3 5.1 8.7 12.1 8.7 19.9z"/><path class="qw" d="M93.9 48.1c3.4 0 6.1 2.7 6.1 6.1s-2.7 6.1-6.1 6.1-6.1-2.7-6.1-6.1 2.7-6.1 6.1-6.1zm10.7 23c0 3.4 2.7 6.1 6.1 6.1s6.1-2.7 6.1-6.1-2.7-6.1-6.1-6.1-6.1 2.7-6.1 6.1zm-12.5 4.7l23.3-23.3c.9-.9.9-2.3 0-3.1-.9-.9-2.3-.9-3.1 0L89 72.7c-.9.9-.9 2.3 0 3.1.9.9 2.3.9 3.1 0z" fill="#25d6b4"/><path class="st1 qw" d="M83.6 43.9l37.3 37.3"/></svg>