<svg xmlns="http://www.w3.org/2000/svg" viewBox="0 0 84.4 82.7"><path d="M0 81.7c0 .5.4 1 1 1h42.1c.5 0 1-.4 1-1s-.4-1-1-1h-.3V65.2h14.8c.5 0 1-.4 1-1V46.8c0-.5-.4-1-1-1H42.8C42.3 34.8 33.2 26 22 26c-.7 0-1.3-.6-1.3-1.3 0-.7.6-1.3 1.3-1.3.3 0 .7.1.9.4.4.4 1 .4 1.4 0 .4-.4.4-1 0-1.4-.6-.6-1.4-1-2.3-1-1.8 0-3.2 1.5-3.2 3.2 0 .5.1 1 .4 1.5C9.1 27.6 1.3 36.3 1.3 46.8v33.9H1c-.6 0-1 .5-1 1zm11.2-33.9H33v15.5H11.2V47.8zM24 33.5c.6 3.4 1 7.7 1 12.3h-5.9c0-4.6.4-8.9 1-12.3.8-4.4 1.7-5.3 1.9-5.5.3.2 1.2 1.1 2 5.5zm-6.9 12.3h-5.9c.1-4.7 1.3-9.2 3.3-12.5 1.4-2.4 3.1-4 5-4.8-.4 1-.8 2.4-1.2 4.1-.7 3.6-1.1 8.2-1.2 13.2zm12.5-12.5c2 3.4 3.2 7.8 3.3 12.5H27c0-5-.5-9.6-1.2-13.2-.3-1.7-.7-3-1.2-4.1 1.9.8 3.6 2.5 5 4.8zm3.3 31.9v15.5h-6V65.2h6zM25 80.7h-6V65.2h6v15.5zm-7.9 0h-6V65.2h6v15.5zm-7.9 0h-6v-33h6v33zM15 29.3c-.8.8-1.5 1.8-2.2 3-2.2 3.7-3.5 8.4-3.6 13.5H3.3C3.7 38.3 8.4 32 15 29.3zm41.7 34h-6V47.8h6v15.5zm-7.9 0h-6V47.8h6v15.5zm-7.9 1.9v15.5h-6V46.8c0-5.5-1.3-10.6-3.6-14.5-.7-1.1-1.4-2.1-2.2-3 6.6 2.7 11.4 9 11.8 16.5h-3c-.5 0-1 .4-1 1s.4 1 1 1h3v15.5h-3c-.5 0-1 .4-1 1 0 .5.4 1 1 1h3v-.1z" fill="#25d6b4"/><path d="M84.5 11l-1.8-3.7c-.8-1.7-2.5-2.7-4.4-2.7-1.5 0-3 .7-3.9 1.9l-1.9 2.1c-.6-.7-1.4-1.2-2.2-1.5L66.6 6c-2.8-.8-5.5-2.9-7.5-5.9-.2-.4-.7-.5-1.1-.4-.4.1-.7.5-.7.9v4c0 1.8.3 3.5.8 5.2-.5.1-1 .2-1.4.3-1.1.2-2.2.3-3.3.3h-5.7c-.4 0-.7.2-.9.5-.2.3-.2.7 0 1l4.4 7c1.8 2.9 4.9 4.8 8.3 5.1l-6.7 7.6c-.6.6-.8 1.4-.6 2.2.2.8.7 1.5 1.4 1.8l3.9 1.9h.1c.3.1.6.2.9.2 1 0 1.9-.6 2.3-1.5l2.6-6.2h5.2c6.3 0 11.7-5.2 11.7-11.2v-4.4c0-1.1.9-1.9 1.9-1.9h1.5c.3 0 .7-.2.8-.5.2-.3.2-.7 0-1zM68.6 28h-5.9c-2.2 0-4.1 1.2-5.1 3.2l-.2.3c-.1.2-.1.5-.1.7.1.2.3.5.5.6.5.2 1.1 0 1.3-.4 0 0 0-.1.1-.1.4-.9 1-1.5 1.8-1.9l-2.2 5.1c-.1.2-.4.4-.6.3l-3.1-1.5-.8-.4c-.2-.1-.3-.2-.3-.4s0-.3.1-.4c0 0 .3-.3 3.4-3.8l4.5-5.1c2.7-.1 5.3-1.3 7.2-3.2.4-.4.4-1 0-1.4-.4-.4-1-.4-1.4 0-2.7 2.7-6 2.7-7 2.6h-.4c-3.1 0-6-1.6-7.7-4.2l-3.4-5.5h3.9c1.2 0 2.5-.1 3.7-.3 1.5-.2 2.5-.6 3.3-.8.5-.1.8-.3 1.2-.3 1.3-.2 2.7 0 3.8.7l5.7 3.4c.5.3 1.1.1 1.3-.3.3-.5.1-1.1-.3-1.3l-.8-.5L75 8.8c.9-1 .9-1 .9-1.1.6-.7 1.4-1.2 2.4-1.2 1.1 0 2.1.6 2.6 1.6l1.1 2.3c-2.1.1-3.8 1.8-3.8 3.9v4.4c.1 5.1-4.4 9.3-9.6 9.3zm.9-16l-3.2-1.9C65 9.4 63.7 9 62.3 9c-.4 0-.8 0-1.2.1-.5.1-.8.2-1.1.3-.4-1.5-.7-3.1-.7-4.7V3.6c2 2.2 4.4 3.7 6.8 4.4l3.6 1c.6.2 1.1.6 1.4 1.1L69.5 12z" fill="#2e2e2e"/></svg>