<svg xmlns="http://www.w3.org/2000/svg" viewBox="0 0 106.2 93.2"><style>.animate,path{opacity:0}.animate{stroke-dasharray:1000;stroke-dashoffset:0;-webkit-animation:dash 3s linear 1s forwards;animation:dash 3s linear 1s forwards}@-webkit-keyframes dash{from{opacity:1;stroke-dashoffset:1000}to{opacity:1;stroke-dashoffset:0}}@keyframes dash{from{opacity:1;stroke-dashoffset:1000}to{opacity:1;stroke-dashoffset:0}}.st0{fill:none;stroke:#2e2e2e;stroke-width:2;stroke-miterlimit:10}.st1{fill:#25d6b4}@media all and
(-ms-high-contrast:none),(-ms-high-contrast:active){path{opacity:1}}</style><path class="st0 qw" d="M105.2 27.1v58.7c0 3.6-2.9 6.5-6.5 6.5H7.5c-3.6 0-6.5-2.9-6.5-6.5V27.1c0-3.6 2.9-6.5 6.5-6.5h45"/><path class="st0 qw" d="M61.7 53.2H1V35.9h52.1M105.2 35.9v17.3h-8.3"/><path class="st1 qw" d="M28.4 71.8h-14c-1.3 0-2.3-1-2.3-2.3 0-1.3 1-2.3 2.3-2.3h14.1c1.3 0 2.3 1 2.3 2.3-.1 1.2-1.1 2.3-2.4 2.3z"/><path class="qw" d="M105.2 14.1v13c0 17.9-6.6 28.4-24.4 38.6-.5.3-1.1.4-1.6.4s-1.2-.1-1.7-.3C59.7 55.5 53.1 45 53.1 27.1v-13c0-1.3.8-2.5 2-3l22.8-9.8c.8-.4 1.7-.4 2.6 0l22.8 9.8c1.1.5 1.9 1.7 1.9 3z" fill="none" stroke="#25d6b4" stroke-width="2" stroke-miterlimit="10"/><path class="st1 qw" d="M77.4 42.6c-.1 0-.1 0 0 0-.7 0-1.2-.3-1.5-.8l-8.4-10.2c-.6-.8-.3-2 .5-2.5s1.9-.3 2.5.5l7 8.2 12.9-14.3c.6-.8 1.8-.9 2.5-.3.8.6.9 1.8.3 2.5L78.8 41.9c-.4.4-.9.7-1.4.7z"/></svg>