<svg id="Слой_2" xmlns="http://www.w3.org/2000/svg" viewBox="0 0 246.3 311.4"><style>.st0{fill:#25d6b4}.st1{fill:#2e2e2e}</style><path class="st0" d="M109.3 118.4l10.4-.9 6.2 6.8-3.8 11.3s5.1 9.4 9 18.4c3.8 8.9 12.8 43.8 12.8 55.1-.1 11.3-3.5 48.5-3.5 48.5s-1.9-10-5.7-18.2c-3.9-8.2-18.7-51.8-18.7-51.8s-2.4-18.3-3-26.7c-.6-8.4 2.2-24.1.6-25.3-1.5-1.1-7.3-8.9-7.3-8.9-1.4-2.7 3-8.3 3-8.3zM148.4 51.6c.2-6.6-9.7-4.7-13.8-4.7-2.7 0-5.3.3-6.5 3.2-.1.3-.2.6-.2.8-2.2-.8-4.7-.7-7 .1-.4-6.1-10.6-4.1-14.7-4.1-2.4 0-4.9.1-5.8 2.7-.3.8-.3 1.7-.3 2.6-2.6.8-5.1 1.7-7.7 2.5-1.6.5-.9 3.1.7 2.6 2.5-.8 4.9-1.6 7.4-2.4.2 1.1.5 2.1.7 3 .5 2.7.7 5.6 3.5 6.9 2.4 1.1 5.8.5 8.4.5.1 0 .3 0 .4-.1 5.3-.7 6.9-6.3 7.3-11.2.1 0 .1 0 .2-.1 2-1 4.8-1.2 6.9 0 .2 1.4.6 2.9.8 4.1.5 2.7.8 5.5 3.6 6.8 2.4 1.1 5.7.5 8.2.5.1 0 .3 0 .4-.1 6.3-.8 7.3-8.2 7.5-13.6zm-30.9 4.6c-.5 2.9-.6 6-4.5 6.4-3.9 0-8.3.8-9.1-4.1-.3-2-1.1-4.2-1-6.2 0-2.2 1.2-2.7 3.1-2.7h6.3c1.2 0 3.3-.4 4.4 0 2.6 1 1.1 4.7.8 6.6zm23 6.4c-3.7 0-7.9.9-9-3.8-.4-1.6-1.1-4-.9-5.6.2-2.5 1.9-3.5 4.1-3.5 2.2 0 10.5-1.4 11.2 1.7.3 1.3-.6 3.8-.8 5.1-.6 2.8-1 5.8-4.6 6.1z"/><path class="st1" d="M134.7 17.2c-1.5-.7-.3-3.1 1.3-2.4 2.9 1.3 5.6 5.5 7.3 8.1 3.3 4.9 4.6 10.3 4.3 16.2-.3 5.5-2.5 10.4-3.2 15.7-.6 4.5 1.7 8.7 1.1 13.3-.6 4.7-3.5 9.3-5.2 13.6-1.3 3.3-2.8 6.6-4.8 9.6-1.6 2.4-3.3 4.5-4.4 7.2-4.3 10.2-15.3 9.9-22.8 3.1-1.3-1.1.5-3.1 1.8-1.9 4.9 4.4 13.2 6.8 17.5 0 .8-1.3 1.2-2.9 1.9-4.3 1.2-2.5 3.1-4.4 4.5-6.7 2.4-3.9 3.8-8.3 5.6-12.6 2-5 4-8.8 3.1-14.4-.4-2.6-1.3-4.9-.8-7.6.6-3.9 2.2-7.7 2.8-11.6.9-6.3.2-12.2-3.2-17.6-1.5-2.2-4.2-6.5-6.8-7.7zM85.4 59.9c1 1.4-1.2 2.8-2.2 1.4-.8-1.1-2.5-3.7-3.8-3.9-4-.8-3.2 7.3-2.8 9.2.7 3 2.9 5.4 4.5 8 1.7 2.8 3.9 6.3 7.7 5.9 1.7-.2 1.7 2.5 0 2.7-4.8.5-7.8-3.6-10-7.2-3-5-5.8-8.5-5.1-14.7.3-2.8 1.4-7.3 5-7 2.8.2 5.2 3.4 6.7 5.6zM131.8 12.4c.9-1.5 3.1-.2 2.3 1.3-4.1 7.3-11.7 12.4-19.9 13.9-1.7.3-2.4-2.3-.7-2.6 7.6-1.3 14.6-5.9 18.3-12.6z"/><path class="st1" d="M121.6 15.9c-4.4 6.8-11 10.1-18.6 11.9-.3.1-.6 0-.8 0-3.1 4.4-7 8.3-11 12.1l-.1.1c.2 3.6 1.6 7.8 1.6 10.9 0 4.7-.9 9.3-2.6 13.7-.6 1.6-3.2.9-2.5-.7 2.3-5.9 3.1-12.1 2.1-18.4-.7-4.1-2.1-7.8.1-11.7.9-1.5 3.1-.2 2.3 1.3l-.3.6C97.5 30 102.9 24 105 16c.4-1.7 3-1 2.5.7-.8 2.9-1.9 5.6-3.4 8.1 6.2-1.7 11.6-4.5 15.2-10.1 1-1.6 3.3-.2 2.3 1.2zM79.4 64c-1.2-1.2.6-3.1 1.8-1.9 2.5 2.3 4.3 5.1 5.6 8.2.6 1.6-1.9 2.4-2.5.8-1.1-2.7-2.8-5.1-4.9-7.1zM84.5 24.5c1.2-1.3 3.1.7 1.9 1.9-5.3 5.5-5.2 15.2-4.4 22.1.2 1.7-2.4 1.7-2.6 0-.9-7.6-.6-18 5.1-24zM75 27.5c.9-1.5 3.2-.1 2.3 1.3-3.2 5-4.3 11.2-3.4 17 .2 1.7-2.4 1.7-2.6 0-.9-6.2.3-13 3.7-18.3zM125.7 53.5c-.8-1.5 1.5-3 2.2-1.4 2.2 4.4 4.7 9.5 5.1 14.5.2 2.5-.5 5.5-2.2 7.4-1.7 1.9-4.3 2.2-6.3 3.7-1.4 1-2.7-1.3-1.4-2.3 1.7-1.2 4.1-1.4 5.6-2.9 2.1-2.1 1.9-5.4 1.3-8.1-1.1-3.8-2.6-7.5-4.3-10.9zM120.2 73.8c.4.6.1 1.5-.4 1.9-.7.4-1.4.1-1.8-.5.4.5.1.2 0 0-.1-.1-.2-.1 0 0-.1-.1-.2-.2-.4-.2-.6-.3-1.4-.4-2.2-.4-1.7 0-1.7-2.7 0-2.7s3.6.5 4.8 1.9zM113.4 96.2c-1.5-.8-.2-3.2 1.3-2.4 2.7 1.6 6.3.9 9-.1 1.6-.6 2.3 2 .7 2.6-3.4 1.3-7.7 1.9-11-.1zM105.7 73.3c1.3-1.1 3.2.8 1.9 1.9-1.6 1.4-3.2 3.1-4.2 5.1-1.6 3.3.7 5.3.6 8.5 0 1.7-2.7 1.8-2.6 0 0-1.6-1-3.1-1.2-4.7-.2-1.6 0-3 .6-4.5 1-2.4 2.9-4.5 4.9-6.3zM131.9 75.3c-.7-1.5 1.5-3 2.2-1.4.9 1.9 1.6 4 1.7 6 .1 2.4-1.2 4.6-1.5 6.9-.3 1.7-2.8 1-2.5-.7.3-1.9 1.4-3.7 1.5-5.6-.1-1.7-.7-3.6-1.4-5.2z"/><path class="st1" d="M80.6 94.3c-.6-1.6 1.9-2.4 2.5-.8 3.8 10.7 13.7 19.6 24.7 22.2 3.6.8 7.7.8 11.3-.1 4.5-1.2 7.7-4.7 10.2-8.5.3-.4 1.4-2.3 1.3-2-.1.2.2-2 .2-2.7.3-3.3.7-6.5.9-9.8.1-1.7 2.7-1.8 2.6 0-.4 6.2-.1 12.2-3.8 17.4-5 6.9-11.8 9.8-20.3 9C97 117.6 85 106.5 80.6 94.3z"/><path class="st1" d="M146.4 44.2c-1.7.2-1.7-2.5 0-2.7 3.5-.4 2.8-7.4 2.5-9.6-.6-4.7-2-9.9-4.3-14-3.4-6-10.8-9.2-17-11.3-7-2.4-15.1-4.5-22.5-3.8C98 3.2 91.3 6 85.4 9.6c-5.2 3.1-9.8 6.5-13.2 11.6-7.5 11.3-5.8 25.8-2.4 38.3 1.5 5.3 4.1 9.9 6.3 14.9.9 2 4.2 14.8 6.6 15.3.5-3 .4-6.3.3-9.1-.1-1.7 2.5-1.8 2.6 0 .3 4.9.3 10.8-2.1 15.2-.8 1.5-3.1.2-2.3-1.3.4-.6.6-1.3.9-2.1-4.5-1-6.1-11.3-7.3-14.4-2.9-7.3-6.8-13.8-8.4-21.7-3-14.5-3.5-29.2 6.9-40.8 6-6.8 15.5-11.8 24.1-14.2 8.7-2.4 17.3-1.2 25.9 1.1 7.2 1.9 15 4.8 20.4 10.1 5.1 5.1 7.2 13.4 7.8 20.5.4 4 0 10.5-5.1 11.2zM91.4 131.4c-1.3-1.1.5-3.1 1.8-1.9 2.4 2.1 4.9 4.2 7.8 5.5-.6.3-1.3.6-1.9.8 1.9-6.9 5.3-14 10.4-19.1 1.2-1.2 3.1.7 1.9 1.9-4.8 4.8-8 11.4-9.7 17.9-.2.9-1.1 1.2-1.9.8-3.1-1.4-5.9-3.7-8.4-5.9zM119.4 118.6c-1.3-1.1.5-3 1.8-1.9 5.3 4.2 10.5 9.2 13.7 15.2-.8.1-1.6.2-2.4.4 1.1-6.2 2-12.1 1.3-18.4-.5-4.6-1.2-9.2-2.1-13.8-.3-1.7 2.2-2.5 2.5-.8.9 4.8 1.7 9.6 2.2 14.5.7 6.5-.3 12.7-1.4 19.1-.2 1.1-1.9 1.4-2.4.4-3.1-5.9-8.2-10.7-13.2-14.7z"/><path class="st1" d="M112.5 55.4c.2.7-.2 1.5-.9 1.7-.7.2-1.4-.2-1.6-.9-.3-.9-.5-2-.1-2.8.4-.9 1.5-1.4 2.4-.8.8.5 1 1.4 1 2.3.1 1 .1 2-.8 2.7-.9.6-2.1.2-2.5-.7-.4-.9-.6-2.1-.2-2.9.4-.9 1.3-1.5 2.3-1.3 1 .3 1.7 1.4 1.4 2.4-.2.7-.9 1.2-1.6 1-.7-.2-1.2-1-.9-1.6.3.9.7 1.1 1.1.8.1 0 0-.1 0 0l.1.4c0 .3.1 0-.2-.2-.2-.1-.4-.1-.7-.2-.2.3-.4.4-.6.5v-.2-.6-.3c0-.1 0-.1 0 0v-.1c0 .1.1.2.2.3.2.1.4.1.7.2.3-.1.5-.2.7-.5v-.1V54.8c0 .1.1.3.2.6zM137.6 55.4c.2.7-.2 1.5-.9 1.7-.7.2-1.4-.2-1.6-.9-.3-.9-.5-2-.1-2.8.4-.9 1.5-1.4 2.4-.8.8.5 1 1.4 1 2.3.1 1 .1 2-.8 2.7-.9.6-2.1.2-2.5-.7-.4-.9-.6-2.1-.2-2.9.4-.9 1.3-1.5 2.3-1.3 1 .3 1.7 1.4 1.4 2.4-.2.7-.9 1.2-1.6 1-.7-.2-1.2-1-.9-1.6.3.9.7 1.1 1.1.8.1 0 0-.1 0 0l.1.4c0 .3.1 0-.2-.2-.2-.1-.4-.1-.7-.2-.2.3-.4.4-.6.5v-.2-.6-.3c0-.1 0-.1 0 0v-.1c0 .1.1.2.2.3.2.1.4.1.7.2.3-.1.5-.2.7-.5v-.1V54.8c0 .1.1.3.2.6zM105.4 45.9c-1.7 0-1.7-2.7 0-2.7 2.5 0 5-.1 7.5.4 2.4.5 4.7 1.7 6.8 2.9 1.5.8.2 3.2-1.3 2.4-2-1.1-4-2.2-6.2-2.7-2.2-.4-4.5-.3-6.8-.3zM130.8 48.4c-1.2 1.2-3.1-.7-1.9-1.9 3.6-3.5 8.7-4.7 13.5-3.9 1.7.2 1 2.9-.7 2.6-3.8-.6-8 .4-10.9 3.2zM142.8 265.6c.4 1.7-2.2 2.5-2.5.8-2.3-10.8-5.9-21.5-9.4-32-8.2-24.9-17.1-49.8-27.7-73.7-9.5-21.4-17.5-43.4-24.2-65.8.7.2 1.5.4 2.2.6-2.3 2.5-6 5.9-6.8 9.3-.7 3.1-.2 7.1-.5 10.3-.6 7-1.4 14-2.3 21-.3-.5-.6-1.1-.9-1.6 3.3.8 6.6 1.6 9.9 2.5 1 .2 1.3 1.5.6 2.3-3.1 3.4-6.1 6.8-9.2 10.2-.5.5-1.1 1.6-1.8 2-.9.5-.1-1 0-.8.5.9.7 2.3 1 3.3 3.8 11.4 8.8 23.3 15.3 33.4 4 6.3 8.4 12.4 12.6 18.6 14.4 21.3 28.8 42.5 42.5 64.2.9 1.4-1.3 2.9-2.2 1.4-7.9-12.6-16.1-24.9-24.4-37.3-7.2-10.9-14.5-21.7-21.9-32.5-3.7-5.5-7.8-10.8-10.9-16.7-3.9-7.3-7.5-14.7-10.6-22.4-1.3-3.3-3.5-7.4-3.9-11-.2-2.3 1.7-3.6 3.3-5.3 2.7-3 5.5-6.1 8.2-9.1.2.8.4 1.5.6 2.3-3.3-.8-6.6-1.6-9.9-2.5-.8-.2-1-.9-.9-1.6 1-7.9 2-15.9 2.5-23.8.2-3-.4-6.5.9-9.3 1.6-3.2 4.3-6.1 6.8-8.8.7-.8 1.9-.4 2.2.6 2.8 9.6 6 19.2 9.4 28.7 9.3 26.3 21.3 51.6 30.9 77.9 7.9 20.9 16.4 42.6 21.1 64.8z"/><path class="st1" d="M134.2 114.1c-.2-1.7 2.4-1.7 2.6 0 1.1 8.5 2.1 17.1 3 25.6 3.2 29 6.5 58.1 5.2 87.3-.7 16.6-2.4 33.2-3.5 49.8-.8 11.1-.1 22.2-.4 33.2 0 1.7-2.7 1.8-2.6 0 .3-12.7-.2-25.4.7-38.1 1.3-17.3 2.9-34.5 3.4-51.9.4-14.1-.5-28.1-1.6-42.1-1.8-21.2-4.2-42.5-6.8-63.8z"/><path class="st1" d="M133.4 108.8c-1.1-1.3.7-3.3 1.8-1.9 7.4 9 14.9 17.9 21.8 27.3.4.5.2 1.2-.2 1.6-1.8 2.1-3.7 4.1-5.5 6.2l-.3-2.1c2.9 1.8 6 3.5 9.4 4.2.5.1 1 .7 1 1.3-1.9 43.9-8 87.8-19.4 130.2-.5 1.7-3 1-2.5-.7 11.4-42.2 17.5-85.9 19.4-129.5.3.4.7.9 1 1.3-3.6-.8-6.9-2.5-10-4.5-.7-.5-.9-1.5-.3-2.1 1.9-2 3.7-4.1 5.5-6.2-.1.5-.1 1.1-.2 1.6-6.9-9.2-14.3-17.9-21.5-26.7z"/><path class="st1" d="M141.9 118.8c10.7 5.9 21.5 11.9 32.8 16.6 1.6.7 2.8-1.7 1.3-2.4-11.3-4.7-22.1-10.7-32.8-16.6-1.5-.8-2.8 1.6-1.3 2.4zM181.9 192.6c0-1.7 2.6-1.8 2.6 0 0 23 .6 46.2 2.5 69.1.7 7.8 2.5 15.4 3.2 23.3.7 8.1 1.1 16.2 1.3 24.3 0 1.7-2.6 1.8-2.6 0-.2-8.1-.6-16.2-1.3-24.3-.7-7.8-2.5-15.4-3.2-23.3-2-22.9-2.5-46.1-2.5-69.1zM71 103.9c1.5-.9 2.8 1.4 1.4 2.3-13.5 8.1-27.1 16.1-40.9 23.7-2.9 1.6-5.8 3.2-8.8 4.7-3 1.5-6.5 2.1-9.3 3.8-3.5 2-4 6.7-4.1 10.4-.3 5.6-.1 11.1-.4 16.7-1.2 19.9-1.8 39.9-3.1 59.9-.4 5.8-1.4 11.6-2.2 17.1-.7 5.3-.2 11.2-.3 16.5-.3 17-1 34.1 0 51.1.1 1.7-2.5 1.8-2.6 0-1.1-19.5-.2-39.2.2-58.7.2-12.5 2.4-24.8 3-37.3 1-21 2.5-42 2.9-63 .1-3.6.2-7.1 1.6-10.4 1.5-3.5 4-4.8 7.5-6.1 6.6-2.4 12.6-5.8 18.7-9.3 12-6.9 24.2-14.1 36.4-21.4zM142.8 206.4c-2.2-13.2-5.2-26.3-8.3-39.4-1.4-5.9-2.6-11.8-5.1-17.3-2.1-4.7-4.7-9.3-7.4-13.7-2.3-.4-4.6.9-6.3 2.5-2.7 16.7-.6 33.3 1.6 50 .2 1.7-2.4 1.7-2.6 0-2.2-16.8-4.3-33.6-1.6-50.5-2.4-4.5-5.5-8.5-8.9-12.3-1.1-1.2.7-3.2 1.8-1.9 3.3 3.6 6.4 7.6 8.8 11.9 2.1-1.6 4.5-2.8 7.1-2.5 1.2-3.4 2.4-6.8 3.6-10.1.6-1.6 3.1-.9 2.5.7-1.3 3.6-2.6 7.2-3.8 10.8 6 9.7 10 19.6 12.6 30.6 3.2 13.4 6.3 26.8 8.5 40.4.3 1.8-2.2 2.5-2.5.8zM120 40.5c-1.7 0-1.7-2.7 0-2.7h6.9c1.7 0 1.7 2.7 0 2.7H120zM120 33.2c-1.7-.1-1.7-2.8 0-2.7 2.3.1 4.6.2 6.9.2 1.7.1 1.7 2.8 0 2.7-2.3 0-4.6-.1-6.9-.2z"/><path class="st1" d="M14.3 147.2c-.2-1.7 2.5-1.8 2.6 0 .2 2.4 2.6 5.5 3.7 7.6 2.4 4.7 4.8 9.5 7.1 14.3 5.5 11.7 10.4 23.9 12.6 36.7.3 1.7-2.2 2.5-2.5.8-2.4-13.8-7.9-26.8-14-39.4-2.3-4.7-4.7-9.2-7-13.8-.9-2-2.3-4.1-2.5-6.2zM42 223.9c-.2-1.7 2.5-1.8 2.6 0 2.3 26.3 4.8 53.5 2.4 79.9-.2 1.7-2.8 1.8-2.6 0 2.4-26.3-.1-53.6-2.4-79.9zM131.1 79.4c-3.9-2.4-10.2-.9-14.5-1-3.9-.1-7.7.3-11.3 2-1.3.6-.5 2.5.8 2.5-.8 4.7 5.5 7.2 9 7.8 3 .5 6.3.4 9.2-.4 1.6-.4 3.3-1 4.4-2.3 1.6-1.7 1.2-3.5 2.1-5.5.1-.2.1-.4.1-.6.9-.4 1.3-1.9.2-2.5zm-6.5 7.9c-1.9.8-4.3.9-6.3.8-2 0-10.4-1.1-9.6-4.9.1-.5 0-.9-.3-1.2 2.7-.8 5.5-1 8.3-.9 3.3.1 8.4-1 11.8 0-1.1 2.7-.8 4.9-3.9 6.2zM187.1 115.2c-.3.9-.5 1.9-.5 2.9 0 1.7 2.6 1.7 2.6 0 0-.8.1-1.5.4-2.2.2-.7-.3-1.5-.9-1.6-.8-.3-1.4.2-1.6.9z"/><path class="st1" d="M221 132.5c-1.6-3.4-5-5.8-7.1-8.7-1.4-2-2.6-4.2-4.9-5.3-1.6-.7-2.8-1-4.3-2.1-1.1-.8-2.2-1.8-3.6-1.9-.4 0-.7 0-1 .1-.2-3.9-1.3-7.6-2.1-11.5-.6-3.1-1.3-6.6-5.1-6.8-4-.2-6.3 3.3-7 6.8-.4 1.9-.3 3.4.2 5.2.7 2.3-.2 4.6.7 7 .6 1.6 3.1.9 2.5-.8-.5-1.2-.4-2.4-.3-3.7 1.4.4 3 .4 4.2.1 1.6-.4.9-3-.7-2.6-.7.2-1.4.2-2.1 0-.3-.1-.6-.2-1-.3-.2-.1-.5-.3-.6-.4v-.1c-.7-2.2-.7-4.6.6-6.7 1.6-2.5 4.3-2.6 5.5 0 1.1 2.4 1.3 5.8 1.9 8.4.4 1.8.6 3.6.7 5.4-.7-.4-1.5-.5-2.4-.3-2.8.7-5.6 2.3-8.4 3.1-2 .6-4.7 1.1-6.3 2.6-2.4 2.3-3.4 7-4.7 10-1.6 3.7-4.1 7.9-4.6 12-.5 4 1.8 8.3 3.3 11.8 1.9 4.3 3.7 9.1 6.5 12.9 2.4 3.3 5.9 6.1 9.3 8.4 1.4 1 2.7-1.4 1.3-2.4-5.6-3.9-9.1-8.3-12.1-14.3-2.6-5.4-7.1-12.4-5-18.5 1.2-3.4 2.7-6.7 4.2-10 1-2.2 1.7-5.2 3.1-7.2 2.2-3 8.3-3.1 11.6-4.5.4-.2 1.9-1.2 2.2-1.1.4.8.9 1.5 1.3 2.3-.6 1.4-1.4 2.6-2.5 3.6-1.9 1.9-4.2 3.3-6.7 4.5-1.2.6-1 2.4 0 2.7-.9 1.9-1.8 3.9-2.3 5.9-.8 3.4 1.4 6 2.9 9 1.4 2.8 1.1 4 3.5 5.5 4.2 2.6 6.6 6.6 7.6 11.4.4 1.7 2.9.9 2.5-.8-.7-3.5-2.2-6.7-4.5-9.4 1 .2 2 .2 3.2 0 .2 7.6 9.2 8.6 14.2 4.1 1.3-1.1-.6-3-1.9-1.9-3.2 2.9-10.1 2.9-9.7-2.9.2-2.1 1.5-3.9 2.5-5.8 1.7-3.1 3.4-6.3 5-9.4.8-1.5-1.5-2.9-2.3-1.3-1.4 2.6-2.7 5.2-4.1 7.8-1.1 2.1-2.6 4.2-3.3 6.6-4.9 1.4-7.7-2.7-6-7 .9-2.3 2.2-4.5 3.4-6.6 1.8-3.2 3.7-6.4 5.7-9.6.9-1.4-1.4-2.8-2.3-1.3-3.3 5.3-6.9 10.7-9.2 16.5-.2.6-.4 1.1-.5 1.7-.3 0-.6.1-.9.4l-.1.1h-.1-.1-.2-.1c-.1 0-.2-.1-.3-.1-1-1.6-2.2-3.4-2.4-5.1-.3-2.8 2-6.3 3.2-8.7.1-.2.1-.4.1-.6 3.9-2.1 8.1-5.3 8.5-9.6 0-.4 0-.8-.1-1.2 1.6-1.5 5 1.7 6.4 2.3 1.7.8 2.8 1.5 3.8 2.4-.6-.4-1.3-.8-2-1-1.6-.5-2.3 2.2-.7 2.6 1.7.5 2.9 2.1 2.8 3.9 0 1.7 2.6 1.7 2.6 0 0-1-.2-1.9-.6-2.8 3.3 4.5 7.7 7.2 7.5 13.4-.4 10.5-3.2 20.3-8.5 29.4-.9 1.5 1.4 2.8 2.3 1.3 3.1-5.2 5.4-10 6.7-15.9 1.3-5.9 3.9-15.1 1.2-21zm-29.4 15.1c.1.2-.1-.7-.4-1.6.1 0 .3-.1.4-.1.1.9.4 1.8.8 2.5-.3-.3-.6-.5-.8-.8z"/><path class="st1" d="M214 145.5c-.8 2.1-1.9 4-3.2 5.8-1 1.4 1.3 2.7 2.3 1.3 1.4-2 2.5-4.2 3.4-6.5.6-1.5-1.9-2.2-2.5-.6zM200.7 184.1c.7 2.9 1.7 6 3.6 8.3 1.1 1.3-.7 3.3-1.8 1.9-2.5-3.1-3.8-7.1-4.6-10.9-4.2-1.4-7.4-5.6-9.3-9.4-.7-1.5 1.5-3 2.2-1.4 2 4.1 5.8 9 10.8 8.5h.4c6.8-1.3 12.5-8.4 10.6-15.4-.4-1.7 2.1-2.4 2.5-.8 2.6 9.3-5.2 18.7-14.4 19.2zM205.6 200.5c-1.7 0-1.7-2.7 0-2.7h.1c1.7 0 1.7 2.7 0 2.7h-.1zM206.1 205.6c0-.7.6-1.4 1.3-1.4.7 0 1.3.6 1.3 1.3v.1c0 .7-.6 1.4-1.3 1.4-.7 0-1.3-.6-1.3-1.3v-.1z"/><path class="st1" d="M202 195.7c.9 4.6 2 9.5 4 13.7.8 1.5-1.5 3-2.2 1.4-2.4-4.8-3.5-10.4-4.6-15.7-2.6-.9-4.4-2.4-5.7-4.2.5 4.2 1.1 8.4 1.9 12.6.7 3.7 1.7 7.6 1.5 11.4-.2 3.9-2.5 7.1-.7 11 .7 1.5-1.5 3-2.2 1.4-1.5-3.2-1.4-5.4-.5-8.8 1.3-4.8.3-9.4-.6-14.2-1.6-8.2-2.6-16.4-3-24.7-.2-1.1-.3-2.3-.4-3.4-.2-1.7 2.4-1.7 2.6 0l.3 3c0 .1.1.3.1.4 0 .2 0 .5.1.7.7 5.6 2 10.8 8.4 12.7 6.3-1.9 11-7 13.8-12.8 2.1-4.4 3.6-10.7-.5-14.5-1.2-1.2.6-3.1 1.8-1.9 10.4 9.8-2.7 27.2-13.4 31.5-.1 0-.4.3-.7.4z"/><path class="st1" d="M246.1 233.5c-.2 1.1-.4 2.3-.6 3.4.7 6.1-.6 12.6-2.7 18.3-3.2 8.5-9.9 19.7-20.5 18-10.6-1.7-18.8-10.3-24-19.1-5.1-8.5-8.6-18-14.3-26.2-1-1.4 1.3-2.8 2.2-1.4 10 14.4 13.5 33.5 30.5 42 7.1 3.6 12.8 2.5 17.8-3.8 3.3-4.1 5.6-8.9 7-13.9l.3-1.2c-.1-.2-.1-.3-.2-.5-.5-4.1.4-8.5 1.2-12.6 0-.2 0-.4.1-.6v-.2c.5-2.3 1-4.2.5-6.6-.6-2.9-2.5-5.7-3.7-8.4-2.3-5.2-4.4-10.5-6.6-15.7-3-7.4-6-14.8-8.9-22.3-1.5-4-3.2-13.7-7.8-14.8-1.6-.4-1-3 .7-2.6 5.5 1.2 6.7 8.5 8.3 13 2.8 7.8 6 15.5 9.1 23.1 2.6 6.5 5.2 13 8.2 19.4 2 4.2 4.2 7.9 3.4 12.7z"/></svg>