<svg id="Слой_3" xmlns="http://www.w3.org/2000/svg" viewBox="0 0 335.6 307.5"><style>.st0{fill:#25d6b4}.st1{fill:#2e2e2e}</style><path class="st0" d="M206.7 139.3l-4.5 8.5s6.1 14.1 7.8 27.2c1.7 13.2 5.8 70.1 5.8 70.1l4.5 61.5s-28.5 2.1-32.2 0V222s1-45.2.8-52.7c-.2-7.5 2.5-20.1 2.5-20.1l-8.9-11.9 9.2-10.4 3.5.2c-.1-.1 9.2 8.3 11.5 12.2z"/><path class="st1" d="M225.4 94c-3.8-1.4-12.1-3.4-14.5 1.2-1.9 3.7.2 9.9 3.1 12.5 1.5 1.4-.9 3.5-2.4 2.2-4-3.6-6.2-11.7-3.4-16.5 3.4-5.9 12.9-4.3 18.2-2.4 2 .6 1 3.7-1 3zM224.5 63.1c-2.1-4-6-7-10.4-8-2-.4-1-3.5 1-3.1 5.1 1.1 9.8 4.9 12.2 9.6 1 1.9-1.8 3.3-2.8 1.5zM221.1 64.3c1.3.8 1.6 2.9.6 4.7-1 1.8-3 2.6-4.3 1.8-1.3-.8-1.6-2.9-.6-4.7 1.1-1.7 3-2.6 4.3-1.8zM179.3 63.7c-1.8-3.7-6.4-8-10.1-2.7-1.6 2.3-1.6 5.8-1 8.4 1.2 5.2 5.1 8.9 10 10.4 2 .6 1 3.7-1 3.1-8.5-2.7-14.8-11.8-12-20.9 2.9-9.5 13.2-7.5 16.9.2.9 1.9-1.9 3.4-2.8 1.5z"/><path class="st1" d="M257 42.3c-2.5 2.9-7.3 5.7-11.3 5.1.1 3.9-.2 7.9-1 11.6-.6 2.5-1.4 4.8-2.8 7-2.2 3.3-5 5.8-4.7 10.1.3 3.7 3.8 9.4 1.5 13-1.3 2-3.8 1.9-6.3 1.2-.6 2.7-1.5 5.4-3.3 7.6-1.1 1.3-2.4 2.2-3.6 3.4-2.5 2.4-3.8 4.9-5.3 7.9-1.2 2.3-1.9 3.3-4.2 4.4-3.1 1.5-5.7 4.8-9.3 5.1-6 .4-12.3-6.5-16.2-10.3-5.1-5-9.3-10.6-11.3-17.6-.6-2 2.6-2.7 3.1-.7 1.5 5.4 4.7 10.1 8.6 14.1 3.3 3.4 10.3 11.5 15.7 10.9 2.5-.3 5.6-3 7.9-4.4 2.6-1.6 3-4.1 4.5-6.7 3.3-5.6 8.9-7.9 10.3-14.7-1.3-.4-2.5-.7-3.4-.7-2.1 0-1.9-3.2.2-3.2s3.9.8 5.9 1.3c1.3.3 3.3 1.4 4-.2.3-.7-.5-3.4-.7-4.1-.9-3.9-2.2-7.6-.6-11.5 1-2.5 3-4.4 4.4-6.7 1.6-2.6 2.4-5.3 2.9-8.3.5-3.3.6-6.7.5-10 0-.6.2-1 .6-1.2.4-.7 1.3-1.1 2.3-.6 2.9 1.5 7.7-2 9.4-4 2.8-3.3 3.1-7.8 1-11.5-1-1.8 1.9-3.3 2.9-1.5 2.6 4.8 2 10.9-1.7 15.2z"/><path class="st1" d="M247.8 39.3c-6.4 1-12.4-.4-18.4-2.4-1.5-.5-2.9-1.1-4.4-1.8l-.1.1c-4.6 3.5-10.6 3.5-16.6 2.9-.1.2-.1.3-.3.5-2.9 3.5-5.1 7.2-6.5 11.6-1.3 3.9-2 7.9-4 11.4-3 5.3-8.3 8.5-14.4 6.4-1.9-.7-.9-3.8 1-3.1 9.3 3.3 12.1-8.6 14-14.9 1.4-4.6 3.5-8.7 6.5-12.4-2.1-.3-4.2-.6-6.1-.8-2.1-.2-1.9-3.4.2-3.2 6.4.6 16.7 3.4 22.8 0-3.7-1.7-7.5-3.4-11.3-4-2-.3-1.9-3.5.2-3.2 5.2.8 9.9 3.7 14.8 5.6 6.9 2.7 14.3 5.4 21.9 4.2 2-.3 2.7 2.8.7 3.1z"/><path class="st1" d="M253.2 23.6c-7.1-8.2-17.7-9.6-27.8-11.5-4.9-.9-9.7-2.1-14.2-4.2-1.9-.9-3.3-1.8-5.2-2.3-14.7-4.1-32-3.4-41.9 9.6-8.7 11.5-9.6 28.3-7.7 42.2 2.1 14.8 7.4 29 9.4 43.9.3 2-2.9 2.7-3.1.7-3.3-24.9-14.9-49.2-7.9-74.6C158 15.9 166 5 177.9 1.6c9.2-2.6 21.5-2 30.6 1.3 3.4 1.2 6.3 3.2 9.8 4.3 4.8 1.4 9.7 2.2 14.6 3.1 8.6 1.7 16.9 4.4 22.8 11.2 1.2 1.6-1.2 3.7-2.5 2.1z"/><path class="st1" d="M176.4 87.5c-2.3 2.1-3.6 4.9-5 7.7-1.7 3.6-4.3 6.5-5.8 10.2-.8 1.9-3.8.9-3.1-1 1.7-4 4.4-7.4 6.3-11.3 1.4-2.9 3-5.8 5.4-8 1.5-1.4 3.7 1 2.2 2.4z"/><path class="st1" d="M205.2 118.8c-2.7 8.9-10.9 11.6-19.2 7.9-10-4.5-18-14.1-23.1-23.6-1-1.8 1.9-3.3 2.9-1.5 3.7 6.9 8.7 13 14.8 17.9 6.9 5.4 18 9.7 21.5-1.8.6-1.9 3.7-.8 3.1 1.1z"/><path class="st1" d="M216.5 147.8c-.1.8-.6 1.3-1.3 1.4-.6.4-1.4.4-2-.3-3-3.4-6-6.7-9.1-10.1-2.9-3.2-6.1-8.3-9.9-10.5-1.8-1 0-3.7 1.8-2.7 3.8 2.2 6.8 6.9 9.8 10.2 2.5 2.8 5.1 5.6 7.6 8.5-.1-4-.9-8-1.5-11.9-.3-2.2-.6-4.4-1.1-6.6-.6-3.1-2.1-5.1-3.7-7.8-1.1-1.8 1.8-3.2 2.9-1.5 3.2 5.2 4.1 9.1 5.1 15.1.7 5.3 1.9 10.9 1.4 16.2zM192.4 128.8c-6.2 5.6-11.8 12.4-15.7 19.9-.3.7-.9.9-1.5.7-.6.1-1.2-.1-1.6-.8-2.8-5-4.8-10.3-7.2-15.5-2-4.4-4.6-8.5-5.7-13.3-1.5-6.7-2.6-14 3.2-19.1 1.6-1.4 3.7 1 2.2 2.4-5.7 5-3.3 15.1-.5 21 3.2 6.8 6.1 13.9 9.5 20.5 3.9-6.8 9.2-13 15-18.3 1.7-1.2 3.9 1.2 2.3 2.5z"/><path class="st1" d="M213.1 123c6.3 3.3 12.7 6.5 19.2 9.6 4.4 2.1 8.8 4.2 13.3 6.1 3.9 1.6 8.1 2.5 11.5 5.3 4.3 3.5 6.5 8.8 8.5 13.8 2.4 6.4 4.9 12.7 8.3 18.8 5.7 10.4 15.3 18.4 19.9 29.3.8 1.9-2.1 3.4-2.9 1.5-4.4-10.4-13.5-18-19.1-27.8-3.2-5.6-5.9-11.4-8.1-17.5-2.3-6.1-4.6-13.4-10.5-16.9-3.4-2-7.7-3-11.3-4.6-4.4-1.9-8.8-4-13.1-6.2-5.8-2.8-11.6-5.8-17.4-8.7-1.9-.9-.1-3.6 1.7-2.7z"/><path class="st1" d="M334.6 246.2c-1.4 7.8-3.6 19.3-10.5 24.3-5.3 3.8-13.4 1.9-18.6-1.1-4.2-2.4-7.9-6.1-11.6-9.2-5.5-4.7-10.9-9.6-16.3-14.4-8.7-7.9-17.3-15.9-25.9-24-1.5-1.4.9-3.6 2.4-2.2 15.3 14.4 30.6 29.1 46.9 42.4 3 2.5 5.8 4.8 9.6 6.1 5.7 1.9 10.9 2.3 14.6-3.4 2.7-4.2 4.2-9.5 5.4-14.3 2.6-10.9 3.1-21.7-1.5-32-4.2-9.4-8-18.6-11.4-28.4-1.8-5.1-4.2-9.8-6-14.8-1.6-4.4-2.9-9.9-5.1-14.4-1.5 3.8-4.7 7-8.4 8.8-1.2.6-4.1.9-4.9 1.7-1.8 1.7-1.1 7.4-.8 9.3.7 4.6 2.3 9.1 4.2 13.3.8 1.9-2 3.4-2.9 1.5-2.7-6.2-7.7-17.9-3.9-24.8-1.6-.7-3.1-1.7-4.2-2.9-.5 10 4.9 19.3 6.5 29.1 1 6.3 1.8 12.7 2.6 19.1 1 8.8.6 19 7.5 25.6 1.5 1.4-.9 3.6-2.4 2.2-6.7-6.4-7.1-15.4-7.9-24.1-.7-7.4-1.7-14.7-2.9-22.1-1.9-11.9-8.7-22.5-5.9-34.9.3-1.3 2.5-1.5 3-.2 1.1 2.9 3.3 4.9 6.2 5.7 2.5-1.5 6.1-1.8 8.4-4.1 1.9-2 3.4-4.8 3.6-7.6.1-1.3 2-2.2 2.8-1 3.3 4.7 4.8 11.2 6.7 16.6 1.8 4.9 3.6 8.5 5.4 13 1.6 4.2 2.9 8.6 4.4 12.8 2.3 6.7 5.4 12.8 8.3 19.2 4.1 9.4 4.4 18.9 2.6 29.2z"/><path class="st1" d="M313.5 186.9c-.9 5.9-7 9.1-12.4 9.8-1.4.2-1.8-1.9-.4-2.1 3.5-.5 7-1.7 9.1-4.6.5-.7 1-1.5 1.3-2.3.1-.3.3-1.2.3-1 .2-1.3 2.3-1.2 2.1.2zM312.1 119.8c.6-4.2 2.6-7.6 1.9-11.8-1.2-7-2.4-14.2-4.3-21-1.7-5.9-4.6-11.6-7.3-17.1-.3-.7-1.1-.9-1.8-.8-7.9.8-3.9 12.1-2.8 16.4 1.4 5.4 2.3 10.7 3.1 16.2-4.1-3.1-8.4-5.7-13.1-8.1-3-1.5-11.8-7.7-12.7-1-.4 2.9 1.7 4.9 3.9 6.4 3.6 2.5 7.3 4.6 10.7 7.5 2.8 2.4 5.6 4.7 8.5 7-.1.2-.1.4-.2.6-.2.5-.5 1-.9 1.4-8.3-3.7-24.4-10.3-24.6-5-.1 1.5.7 2.9 1.9 4.1-.4.1-.8.1-1.2.3-2.5.9-2.9 3.2-1.5 5.2 2.2 3.2 6.9 5 10.2 6.8 1.5.8 2.9 1.5 4.4 2.3-5 2.8-9.4 7.6-8.6 13.6 1 7.7 3.9 15.5 6.4 22.8.6 2 3.8 1.3 3.1-.7-1.8-5.6-3.6-11.3-5-17-1.2-4.6-2.2-8.8 1.4-12.6 1.5-1.6 3.4-2.9 5.4-3.9.3-.1.4-.3.6-.5 1.3.7 2.6 1.5 3.9 2.3 1.8 1.1 3.5-1.6 1.8-2.7-4.9-2.9-10-5.4-14.9-8.2-1.4-.8-2.8-1.6-4-2.5-1-.7-2.5-1.4-1.1-2 1.4-.6 4.6.7 6.1 1.2.3.1.5.1.8.1.3.1.5.2.8.4 4.3 2.1 8.6 4 12.9 5.9 1.9.8 2.9-2.2 1-3.1-4.4-1.9-9.6-3.6-14-6.1-.1-.1-.2-.1-.3-.2-1.4-.8-2.7-1.6-3.9-2.5-.2-.6-.3-1-.5-1.4 1.2.4 2.4.6 3.5 1 2.8.9 5.6 2 8.3 3 2.1.8 4.2 1.6 6.2 2.5.3.3.7.5 1.1.5 1.1.5 2.2.9 3.4 1.4 1.9.8 2.9-2.3 1-3.1-.3-.1-.7-.3-1.3-.6.2-.4.5-.8.7-1.2l1.5 1.2c1.6 1.3 3.4-1.4 1.8-2.7-6.9-5.5-13.4-11.5-20.9-16.2-.9-.6-2.1-1.1-2.9-1.9-6-5.7-.3-2.6 1.5-1.8 3.2 1.5 6.3 3.1 9.3 4.8 3.8 2.1 7.3 4.6 10.5 7.4.2.3.4.5.6.6 1 .9 2 1.9 3 2.9 1.4 1.5 3.8-.7 2.4-2.2-1-1-2-2-3.1-3-.6-4.4-1.1-8.9-1.9-13.2-.6-3.2-5.7-16.1-2.5-18.8 2.4 4.9 4.8 9.9 6.3 15.1 1.8 6.1 2.6 12.6 3.9 18.9.7 3.7-.4 6.4-1.1 9.9-.6 3.3-.8 6.1-2.7 8.9-.8 1.3-1.8 2.6-2.7 3.9-2.9 4.2-6.3 8-9.6 11.9-1.3 1.6.8 4 2.2 2.4 1.1-1.3 2.2-2.5 3.3-3.8 1 6.3 2.3 12.7 4.2 18.7.6 2 3.8 1.3 3.1-.7-2.2-6.7-3.4-13.7-4.5-20.7 0-.2-.1-.4-.2-.5 1.6-1.9 3.1-3.9 4.5-5.9 2.2-3.7 4.3-6.6 5-11z"/><path class="st1" d="M274.1 115.1c.4-.7.7-1.4 1.1-2.1.4-.8 1.6-.9 2.2-.5.8.5.9 1.5.5 2.2-.4.7-.7 1.4-1.1 2.1-.4.8-1.6.9-2.2.5-.9-.5-.9-1.4-.5-2.2zM267.4 128.3l4.8-9.6c.9-1.8 3.6-.1 2.7 1.8l-4.8 9.6c-.9 1.8-3.6.1-2.7-1.8zM284.8 93.6L295.6 72c.9-1.8 3.6-.1 2.7 1.8l-10.8 21.6c-.9 1.8-3.6 0-2.7-1.8zM276.9 109.4c1.7-3.5 3.5-7 5.2-10.4.9-1.8 3.6-.1 2.7 1.8-1.7 3.5-3.5 7-5.2 10.4-.9 1.8-3.6 0-2.7-1.8z"/><path class="st1" d="M281.2 98.4c-4.8 9.7-9.7 19.4-14.5 29 0-.7-.1-1.3-.1-2 3 3 2.5 2.7 6.6 3.9 3.3.9 6.7 1.9 10 2.8 2 .6 1 3.6-1 3.1-3.8-1-7.5-2.1-11.3-3.1-3.2-.9-4.2-2-6.7-4.4-.5-.5-.5-1.3-.1-2 4.8-9.7 9.7-19.4 14.5-29 .8-1.9 3.5-.1 2.6 1.7zM299 72.6c-1.5-.4-2.8-.7-4.4-.6-1 0 0-.3.1-.3-.4.4-.6 1.2-.9 1.7-1.3 2.5-2.5 5-3.8 7.6l-6.3 12.6c-.9 1.8-3.6.1-2.7-1.8 2.7-5.3 5.3-10.6 8-15.9.9-1.7 1.7-4.6 3-6 1.9-2 5.8-.9 8-.3 2 .5.9 3.5-1 3zM303.7 71.4l11.7 3.3c2.9.8 6.1 1.8 5.7 5.5-.3 3-2.9 6.4-4.2 9.1-1.2 2.3-2.3 4.6-3.5 6.9l-1.2 2.4c-.4.8-.2 1.2-.2.1 0 2.1-3.2 1.9-3.2-.2 0-1.7 2-4.2 2.7-5.7 1.8-3.5 4.4-7.4 5.6-11.1.5-1.6 1.7-1.8-.4-3.3-1.1-.8-3.2-.9-4.4-1.2l-9.6-2.7c-2-.6-1-3.7 1-3.1zM296.8 175c1.2 0 2.2 1 2.2 2.2 0 1.2-1 2.2-2.2 2.2-1.2 0-2.2-1-2.2-2.2 0-1.2 1-2.2 2.2-2.2zM299.8 184.6c1.2 0 2.2 1 2.2 2.2s-1 2.2-2.2 2.2-2.2-1-2.2-2.2.9-2.2 2.2-2.2zM255.5 206.9c-3.6 21-3.5 42.5.6 63.4 2.2 11 6.5 25.1 3 36.2-.6 2-3.7 1-3.1-1 1.9-6.1.5-13.6-.4-19.7-1-7-2.7-13.8-3.9-20.8-3.1-19.3-2.9-39 .4-58.2.6-2.1 3.8-2 3.4.1zM107.1 219.3c1.9 7.2 4.3 14.3 5.2 21.8.9 7.6-.1 15.4 0 23 .3 14 2.3 28 2 42 0 2.1-3.3 1.9-3.2-.2.3-13.3-1.6-26.7-1.9-40-.2-8 1-16.2 0-24.1-.9-7.4-3.3-14.6-5.2-21.8-.6-2 2.5-2.7 3.1-.7zM207.2 141.8c-1.2 2.3-2.4 4.6-3.6 6.8-.4.8-1.6.9-2.2.5-3.1-2.2-6.5-.6-8.9 1.9-.6.6-1.8.6-2.3-.1l-8.7-12.3c-1.2-1.7 1.2-3.8 2.4-2.2l8.7 12.3c-.8 0-1.5-.1-2.3-.1 3.4-3.5 8.5-5.3 12.8-2.2-.7.2-1.5.3-2.2.5 1.2-2.3 2.4-4.6 3.6-6.8.9-1.9 3.6-.1 2.7 1.7z"/><path class="st1" d="M203.6 147c3.1 8.5 7.2 17.1 8.3 26.2 1.1 9.5 1.7 19 2.4 28.5 2 27.1 3.8 54.3 5.7 81.4.5 7.3.2 15.3 1.8 22.5.5 2-2.7 2.7-3.1.7-1.3-5.6-1.1-11.9-1.5-17.6-.9-12.2-1.7-24.4-2.5-36.5-1.7-24.9-3.1-49.8-5.6-74.6-1-10.2-4.9-19.4-8.4-28.9-.6-2.1 2.2-3.6 2.9-1.7zM193 149.9c-2.9 19.6-3.1 38.6-3.2 58.4-.1 25.7-.1 51.5-.1 77.2V306c0 2.1-3.2 1.9-3.2-.2 0-41.7-.4-83.3.2-125 .2-10.5 1.4-20.8 2.9-31.2.5-1.9 3.7-1.8 3.4.3zM72 194c-5 6.8-13.3 13.4-13.8 22.5-.1 2.1-3.3 1.9-3.2-.2.5-9.8 8.9-16.8 14.3-24.1 1.2-1.7 3.9.1 2.7 1.8zM161.8 112c-10.4 4.4-20.8 9-31 13.8-5.7 2.7-11.7 5.3-17 8.8-7.4 4.8-12.3 15-17 22.2-1.1 1.7-3.8 0-2.7-1.8 4.8-7.2 9.5-16.9 16.6-22.2 4.9-3.7 11-6.2 16.6-8.8 10.9-5.2 21.9-10.1 33.1-14.8 1.8-.8 3.3 2 1.4 2.8z"/><path class="st0" d="M50.7 188.5c13.9 3.8 29.2 3.7 43.5 4.1 9.5.2 19.1.3 28.6.1-.4.9-.9 1.8-1.3 2.7-7.6-7.7-13.5-17.4-19.5-26.4-7.7-11.6-15.4-23.5-21.7-36-4.4-8.9-5.6-18.9-6.7-28.7-1.3-12.4-1.9-24.8-2.2-37.3-.2-7.5-.3-15.1-.3-22.6.8.5 1.6 1 2.3 1.5C49.8 56.3 26.3 67.1 2.3 76.6c.2-.8.3-1.7.5-2.5 4.6 4.6 9 9.8 12.3 15.5 3.9 6.6 6 14.6 7.6 22 .4 2-2.7 2.7-3.1.7C18 105.1 16 97.4 12.3 91 9.1 85.6 4.8 80.7.4 76.2c-.7-.7-.5-2.1.5-2.5 24-9.5 47.5-20.3 71.1-30.6 1.1-.5 2.4.2 2.3 1.5-.1 17.9.4 35.9 1.9 53.7.9 10 1.5 21.1 5.5 30.4 5 11.6 12.3 22.4 19.2 32.9 6.9 10.7 13.9 22.4 22.9 31.6 1 1.1 0 2.7-1.3 2.7-9.9.2-19.9.1-29.8-.2-14.2-.4-29.3-.4-43.1-4.2-1.9-.5-.9-3.5 1.1-3z"/><path class="st0" d="M72 47.7c3.5-1.5 7-3 10.5-4.6 1.1-.5 2.5.2 2.3 1.5-1.7 19-3.3 37.9-4.3 56.9-.6 11.4-.7 22.5 4.4 33.2 3.1 6.4 7.6 12.4 11.6 18.2 4.2 6.1 8.7 12.2 13.5 17.8 3.9 4.5 8.5 10 14.2 12.2.9.3 1.2 1.2 1 2-.9 3.6-4.5 4.7-7.8 4.8-2.1 0-1.9-3.2.2-3.2 1.9 0 4.1-.5 4.6-2.6.3.7.7 1.4 1 2-10.4-4.1-18.2-15.9-24.5-24.5-5.6-7.7-11.5-15.7-16-24.1-4.6-8.6-6-18.7-5.7-28.3.4-12.5 1.4-25.1 2.4-37.6.7-9 1.4-18.1 2.3-27.1.8.5 1.6 1 2.3 1.5-3.5 1.5-7 3-10.5 4.6-1.9 1-3.4-1.9-1.5-2.7z"/><path class="st0" d="M78.1 124c-.8-5.7.3-11.7 1.3-17.3 1.4-7.9 3.1-15.8 5-23.6 2.6-10.7 5.4-21.3 8.5-31.8.6.7 1.2 1.4 1.9 2.1-4.1 1-8.1 2-12.2 3-2 .5-2.7-2.7-.7-3.1 4.1-1 8.1-2 12.2-3 1.2-.3 2.2.9 1.9 2.1-2.9 9.8-5.5 19.6-7.9 29.5-2 7.9-3.8 15.9-5.2 24-1 5.6-2.3 11.8-1.6 17.5.2 1.9-2.9 2.6-3.2.6z"/><path class="st1" d="M29.4 169.7c-3.9-7.5-7-15.3-10.1-23.1-3.6-6-4.8-14-4.9-20.5-.1-4.4-2.3-6.5-.7-10.8 1.4-3.7 2.3-7.2 2.7-11.1.2-2.1 3.4-1.9 3.2.2-.2 2.3-.6 4.7-1.1 6.9-.4 1.8-1.2 3.3-1.7 5.1-.8 3 .4 4.4.9 7.1.3 1.4-.3 2.7-.2 4.1.1 2.1 1 4.2 1.2 6.3.4 3.7 1.3 7.6 3.2 10.9.1.1.1.2.2.4.6 1.1 1.4 2.1 2.3 3.1.7.8.5 1.7-.2 2.2 2.5 6.1 5 12.2 8 18 1.1 1.6-1.8 3.1-2.8 1.2z"/><path class="st1" d="M41.5 126.2c6 .5 12 1.2 18 1.9 3.2.4 7.9.9 8 5.1.1 2.7-1.9 3.7-4.1 4.3.1.2.2.4.2.6 1.8 5.5-5.1 6.5-8.7 6.6-3.6 0-7.2.5-10.8 1.2 2 2.3 3.5 5.1 4.4 7.9 1 3.3 1.2 7.2.6 10.6-.3 1.6-1 3-1 4.6-.2 4.2 1.4 9 2.1 13.1l1.8 10.5c.4 2-2.8 2.7-3.1.7-1.3-7.4-2.7-14.8-3.7-22.3-.4-2.9.5-5 1-7.9.9-5.9-1-12.7-5.6-16.6-2.4.5-4.7 1.1-7.1 1.6-2 .5-2.7-2.7-.7-3.1 2.5-.6 5-1.2 7.5-1.7.2-.1.5-.2.8-.2 1.9-.4 3.7-.8 5.6-1.1 2.5-.4 4.9-.7 7.4-.7 1.6 0 4.2.6 5.5-.5 2-1.6.3-1.9-1.3-2.2C50 137.1 41.4 137 33 137c-2.1 0-1.9-3.2.2-3.2 5.4 0 10.8.1 16.2.5 2.9.2 5.9.5 8.8.9.2-.1.4-.3.7-.3 1.1-.2 5.3-.9 4.4-3-.3-.8-4.4-.8-5.2-.9-3.1-.3-6.1-.6-9.1-1-5-.8-10.1-1-15.1-1.3-.4 0-.6-.1-.9-.3-.3.1-.6.2-.8.3-2 .7-2.6-2.5-.7-3.1 4.8-1.6 9.8-3.6 14.9-3.7 6.1-.1 10.6.2 16.4 2 1 .3 5.5 2.2 5.2-.9-.1-.8-2.1-1.5-2.7-1.7-1.7-.8-3.7-1.4-5.5-2-4.6-1.5-9.7-2-14.5-2.2-3.3-.1-6.6.1-10 .5-.5.3-1 .3-1.4.2-2.5.3-5 .7-7.5 1-2 .3-2.7-2.9-.7-3.1 2.7-.4 5.5-.7 8.2-1 2.2-2.1 3-5.7 5.8-6.9 2.4-1 6.4-.4 8.9-.5 3.8-.1 5.9 1.2 9.6 2.1 1.5.4 7.7 1.7 5.2-1.3-1.3-1.5-4.1-2.5-5.9-3.4-7.4-3.9-18.5-5.3-25.4.2-4.7 3.7-8.8 8.2-12.7 12.6-1.4 1.6-3.5-.8-2.2-2.4 4.7-5.4 10.3-12.4 16.9-15.5 3.9-1.9 9.5-1.5 13.8-1.3 5.3.3 9.4 2.4 13.9 4.9 2.3 1.3 7 3.5 5.8 6.9-.9 2.7-4.5 3-6.9 2.9-3.3-.2-5.9-2.2-9-2.8-1.5-.3-3.4.1-5 .1-2.3.1-5.1-.4-6.8 1.2-.8.7-1.4 1.7-1.9 2.6 4.7-.3 9.5-.4 14.3.2 4.8.6 19.3 2.3 18.9 9.2-.5 8.4-13 1.7-16.6 1.5-4.8-.1-9 .3-13.1 1.2z"/><path class="st1" d="M26.3 157.4c1.3 19.2 3 38.4 4.2 57.6.8 12.6-1.8 24.9 2.6 37.2 2.1 6 3 12.4 6.2 18 5.4 9.7 17.4 13.6 26.4 5.8 5.6-4.9 9.7-11.9 13.8-18.1 4.1-6.2 8-12.5 11.7-19 6.1-10.7 10.9-22.5 20.4-30.6 1.6-1.3 3.7 1 2.2 2.4-9.8 8.3-14.6 20.9-20.9 31.8-6.6 11.4-13.6 23.6-22.4 33.3-6.4 7-15.3 9.9-24.2 5.6-6.5-3.2-10.3-9.4-12.6-16-2-5.6-4.1-11.7-5.5-17.4-1.8-7.7-1.2-16.1-1-23.9.3-11.8-1.1-23.4-2-35.2-.8-10.5-1.4-21.1-2.1-31.6-.2-2.1 3.1-1.9 3.2.1z"/><path class="st1" d="M65.1 253.9c.6-4.5 1.8-9.1.4-13.6-1.2-3.8-4.3-7.2-6-10.8-2.1-4.4-4.1-9.2-5.2-14-1.8-8-2.4-16.5-3.6-24.6-.2-1.7 2.3-2.9 3-1.1 1.4 3.3-3.8 5.2-5.9 6-1.9.7-3.4-2.1-1.5-2.9.7-.3 4.3-2.3 4.5-1.7 1-.4 2-.7 3-1.1 1.2 8.1 1.8 16.6 3.6 24.6 1.3 5.7 3.8 11.8 6.7 16.8 2.2 3.7 4.6 6.3 5 10.7.4 3.9-.5 7.8-1 11.6 0 2.3-3.3 2.1-3 .1z"/><path class="st1" d="M27.4 189.1c2.1.8 4.2 1.4 6.4 1.9 3.1.7 7.9.1 10.7 1.4 2.9 1.3 3.3 5.9 3.8 8.6.9 4.9 1.2 9.9 1.6 14.8.5 5.7 3.9 10.2 4.7 15.9.3 2-2.8 2.7-3.1.7-.7-4.9-3.9-8.9-4.5-13.8-.5-4.2-.7-8.5-1.2-12.7-.3-2.2-.6-4.4-1.1-6.6-.7-2.9-.8-3.7-3.9-4-4.8-.4-9.8-1.4-14.4-3.1-2-.8-1-3.9 1-3.1z"/><path class="st1" d="M38.2 218c4.9 1.6 13 2 16.1-3.3.7-1.2 2.5 0 1.8 1.2-3.5 6.2-12.4 6.1-18.6 4.1-1.3-.4-.6-2.5.7-2zM38.6 201.7c-.3 1.2.4 2.4 1.6 2.7 1.2.3 2.4-.4 2.7-1.6.3-1.2-.4-2.4-1.6-2.7-1.2-.3-2.4.4-2.7 1.6zM39 211.7c-.3 1.2.4 2.4 1.6 2.7 1.2.3 2.4-.4 2.7-1.6.3-1.2-.4-2.4-1.6-2.7-1.1-.3-2.3.4-2.7 1.6zM241.3 65.2c-1.3 0-3.3.5-4.8 1.1-1.9.8-3.4-2.1-1.5-2.9 2-.9 4.2-1.4 6.4-1.5 2.1 0 1.9 3.2-.1 3.3z"/></svg>