<svg id="Слой_2" xmlns="http://www.w3.org/2000/svg" viewBox="0 0 195.9 312.3"><style>.st1{fill:#2e2e2e}</style><path d="M107.4 151.9l-5.8 7.3s4.2 11.7 5.6 22.5c1.4 10.8 1.4 56.6 1.4 56.6l1.3 32.3s-5 14.8-11.9 22.3c-6.6-5.6-12.4-21.9-13.7-22.7l1.6-50.8s1.7-32.7 4.1-42.4c1.5-6 4.9-17.1 4.9-17.1l-7.3-9.8 7.5-8.5 3.5-2.4c-.1.1 6.9 9.6 8.8 12.7z" fill="#25d6b4"/><path class="st1" d="M119.4 121.7c-.8 0-1.5-.6-1.6-1.4-.8-6.9-.8-19.2-.8-19.8 0-.9.7-1.6 1.6-1.6.9 0 1.6.7 1.6 1.6 0 .1 0 12.6.8 19.4.1.9-.5 1.7-1.4 1.8h-.2z"/><path class="st1" d="M120.9 121.3c-.1.6-3.5 14.1-23.7 19h-.4c-.2 0-.4 0-.5-.1-1.4-.5-2.9-1.1-4.3-1.9-.8-.4-1.1-1.4-.7-2.2.4-.8 1.4-1.1 2.2-.7 1.1.6 2.3 1.1 3.5 1.5 17.7-4.5 20.6-15.9 20.8-16.4.2-.9 1.1-1.4 2-1.2.8.3 1.4 1.2 1.1 2z"/><path class="st1" d="M125.8 131.1c-3.1 12.4-13.8 24.4-14.3 24.9-.3.3-.8.5-1.2.5h-.2c-.5-.1-1-.4-1.2-.9-1.2-2.4-8.5-10.9-11.2-14-.2-.2-.3-.5-.4-.7l-10.5 14.9c-.3.4-.7.6-1.1.7h-.2c-.4 0-.8-.1-1.1-.4-.9-.8-1.9-1.7-2.7-2.5-.6-.6-.7-1.7 0-2.3.6-.6 1.7-.7 2.3 0l1.2 1.2 10.3-14.6c.5-.7 1.5-.9 2.3-.4.5.4.8 1 .7 1.6.6-.2 1.2 0 1.7.5.9 1 7.3 8.4 10.3 12.6 2.9-3.6 9.6-12.4 12-21.3-.7-1.6-2.8-6.5-4.5-8.9-.5-.7-.3-1.8.4-2.3.7-.5 1.8-.3 2.3.4 2.2 3.2 4.9 9.7 5.1 10 .1.3.1.6 0 1z"/><path d="M106.5 215.4c-.3-22.5-.7-34.8-1.4-37.8-1.4-5.8-3.8-13.3-4.8-16.1h-5c-.9 2.5-3.1 9.1-4.2 14 0 0-1.6 8.6-2.4 20.5-1.1 14.5-2 38.8-2.8 72.3 0 1.3-.1 2.2-.1 2.8 1 2.1 6.7 13.5 12 19.6 2.4-3.7 8.1-12.9 10.6-19.5-.1-4-1.8-41.8-1.9-55.8z" fill="none"/><path class="st1" d="M109.8 215.3c-.3-23.4-.7-35.2-1.5-38.5-1.5-6.2-4.1-14.1-5-16.7l4.7-6.1c.5-.7.4-1.7-.3-2.3-.7-.5-1.7-.4-2.3.3l-4.7 6.2h-5.6l-4.5-7.4c-.5-.8-1.5-1-2.2-.5-.8.5-1 1.5-.5 2.2l4.6 7.5c-.8 2.3-3.3 9.4-4.4 14.8 0 .1-1.6 8.8-2.5 20.9-1.1 14.5-2 38.9-2.8 72.5 0 1.6-.1 2.7-.1 3.1 0 .3 0 .5.2.7.3.6 7.6 15.9 14.2 22.3.3.3.7.5 1.1.5h.2c.5-.1.9-.3 1.2-.7.4-.5 8.9-13.3 12.2-22.2.1-.2.1-.4.1-.6-.1-.4-2-41.3-2.1-56zm-12 75.3c-5.4-6.1-11-17.5-12-19.6 0-.6 0-1.5.1-2.8.8-33.5 1.7-57.8 2.8-72.3.9-11.9 2.4-20.5 2.4-20.5 1-4.9 3.3-11.4 4.2-14h5c.9 2.8 3.4 10.3 4.8 16.1.7 2.9 1.1 15.3 1.4 37.8.1 14 1.8 51.8 2 55.8-2.5 6.7-8.2 15.8-10.7 19.5zM23.9 148.5c-.7 0-1.3-.4-1.6-1.1-.3-.9.2-1.8 1.1-2.1 15.8-5 25.7-8.3 38.7-13.4.8-.3 1.8.1 2.1.9.3.8-.1 1.8-.9 2.1-13.1 5.1-23 8.4-38.9 13.5-.1 0-.3.1-.5.1zM104.6 114.1c-.7 0-1.3-.4-1.5-1-.3-.8.1-1.8.9-2.1 17.1-6.8 21-26.6 22.5-46.9.1-.9.9-1.6 1.8-1.5.9.1 1.6.9 1.5 1.8-1.6 20.4-5.7 42.3-24.6 49.7h-.6zM74.9 101.8c-.5 0-1-.2-1.3-.7-2.4-3.3-4.5-7.2-6.2-11.5-3.3-8.7-5-18.6-4.7-28 0-.9.8-1.6 1.7-1.6.9 0 1.6.8 1.6 1.7-.3 8.9 1.3 18.4 4.5 26.7 1.6 4 3.5 7.7 5.8 10.8.5.7.4 1.8-.4 2.3-.3.2-.7.3-1 .3z"/><path class="st1" d="M69.9 93.1h-.2c-5.3-.7-10-3.7-12.8-8.3-2.5-4.1-3.1-8.9-1.7-12.6.9-2.4 2.3-3.9 4.2-4.3 3.2-.8 6.1 1.7 6.5 2 .7.6.7 1.6.1 2.3-.6.7-1.6.7-2.3.2-.5-.4-2.3-1.6-3.5-1.3-.8.2-1.4 1-1.9 2.3-1 2.8-.5 6.5 1.5 9.8 1.3 2.2 4.4 6 10.4 6.8.9.1 1.5.9 1.4 1.8-.2.7-.9 1.3-1.7 1.3zM123.3 93.1c-.8 0-1.5-.6-1.6-1.4-.1-.9.5-1.7 1.4-1.8 6-.8 9.1-4.6 10.4-6.8 2-3.2 2.5-7 1.5-9.8-.5-1.3-1.1-2.1-1.9-2.3-1.3-.3-3 .9-3.5 1.3-.7.6-1.7.5-2.3-.2-.6-.7-.5-1.7.1-2.3.3-.3 3.3-2.8 6.5-2 1.9.5 3.3 1.9 4.2 4.3 1.4 3.7.7 8.5-1.7 12.6-2.8 4.6-7.4 7.6-12.8 8.3-.2.1-.2.1-.3.1z"/><path class="st1" d="M61.5 71c-.7 0-1.3-.4-1.5-1.1-7.7-20.8-5.1-34.3-1.7-41.9 3.9-8.5 9.6-11.9 9.9-12 .8-.5 1.8-.2 2.2.6.5.8.2 1.8-.6 2.2-.9.5-20.6 12.7-6.8 50 .3.8-.1 1.8-1 2.1-.1 0-.3.1-.5.1z"/><path class="st1" d="M131.8 71.1c-.2 0-.4 0-.6-.1-.8-.4-1.2-1.3-.9-2.1l.1-.3c4.2-9.9 8.2-19.3 4.4-32.5-5.7-20-21-32.3-40.9-32.7C77.3 2.9 70.7 16.5 70.5 17c-.4.8-1.4 1.2-2.2.8-.8-.4-1.2-1.4-.8-2.2.1-.1 7.7-16 26.5-15.6 21.4.5 37.8 13.6 43.9 35.1 4.1 14.3-.3 24.7-4.5 34.7l-.1.3c-.3.6-.9 1-1.5 1z"/><path class="st1" d="M129.5 69.2c.1.9-.6 1.7-1.5 1.7h-.1c-.9 0-1.6-.7-1.6-1.5-.8-11.2-6.5-19.1-7.8-20.7-7-2.3-13.8-7.4-19.5-11.7-4.1-3.1-8-6-10.7-6.9-3.7-1.3-7.6-1.2-10.6-.9-.1.2-.2.4-.4.5-.3.2-14.3 14.3-11.4 33 .1.9-.5 1.7-1.4 1.9h-.2c-.8 0-1.5-.6-1.6-1.4-2.4-15.5 5.6-27.7 9.8-33-.8.1-1.6-.3-1.9-1.1-.3-.9.2-1.8 1.1-2 .4-.1 9.4-2.8 17.6 0 3.2 1.1 7.1 4 11.6 7.4 6.7 5 15 11.2 22.7 12.2.9.1 1.5.9 1.4 1.8-.1.8-.8 1.4-1.6 1.4h-.2c2.3 3.8 5.7 10.6 6.3 19.3z"/><path class="st1" d="M107 57.8c-.5 0-.9-.2-1.3-.6-.6-.7-.5-1.7.2-2.3.2-.1 4.2-3.4 9.8-2.9.9.1 1.6.9 1.5 1.8-.1.9-.9 1.6-1.8 1.5-4.3-.4-7.4 2.1-7.4 2.1-.3.3-.6.4-1 .4zM113.2 66.6c0 1.9-1.6 3.5-3.5 3.5s-3.5-1.6-3.5-3.5 1.6-3.5 3.5-3.5c2 .1 3.5 1.6 3.5 3.5zM74.4 56.6c-.7 0-1.3-.4-1.5-1-.3-.8.1-1.8.9-2.1 5.3-2.1 10-.1 10.2 0 .8.4 1.2 1.3.9 2.1-.4.8-1.3 1.2-2.1.9-.1 0-3.8-1.5-7.7 0-.3.1-.5.1-.7.1zM80.3 63.2c1.9 0 3.5 1.6 3.5 3.5s-1.6 3.5-3.5 3.5-3.5-1.6-3.5-3.5 1.6-3.5 3.5-3.5zM99.9 83.2h-6.6c-.9 0-1.6-.7-1.6-1.6 0-.9.7-1.6 1.6-1.6h6.6c.9 0 1.6.7 1.6 1.6 0 .8-.7 1.6-1.6 1.6zM167.7 293.6c-.9 0-1.7-.8-1.6-1.7l1.4-85.1c0-.9.8-1.6 1.7-1.6.9 0 1.6.8 1.6 1.7l-1.4 85.1c-.1.9-.8 1.6-1.7 1.6z"/><path class="st1" d="M194.3 312.3c-.9 0-1.6-.7-1.6-1.6 0-97.3-7.5-148.1-7.6-148.3v-.1c-2.2-8.7-16.8-15.6-23.5-17.5-7.4-2.2-36.6-12.1-37.9-12.5-.9-.3-1.3-1.2-1-2.1.3-.9 1.2-1.3 2.1-1 .3.1 30.4 10.4 37.7 12.5 6.2 1.8 22.9 9 25.7 19.8.5 1.5 7.7 52.3 7.7 149.2 0 .9-.7 1.6-1.6 1.6zm-159.3 0c.9 0 1.6-.8 1.6-1.7l-.9-45.5c0-.9-.8-1.6-1.7-1.6-.9 0-1.6.8-1.6 1.7l.9 45.5c0 1 .7 1.6 1.7 1.6-.1 0-.1 0 0 0zM100.8 94h-8.4c-.9 0-1.6-.7-1.6-1.6 0-.9.7-1.6 1.6-1.6h8.4c.9 0 1.6.7 1.6 1.6 0 .8-.7 1.6-1.6 1.6zM77.1 155.7c-.9 0-1.6-.7-1.6-1.6 0-.2-.1-4.3-5.3-6.3-3-1.2-7.3-.4-8.8 0-.9.3-1.8-.2-2-1.1-.3-.9.2-1.8 1.1-2 .3-.1 6.2-1.8 10.9 0 7.3 2.9 7.4 9.1 7.4 9.3-.1 1-.8 1.7-1.7 1.7zM73 169h-.1c-.9-.1-1.6-.9-1.5-1.8.2-2.1-1.6-4.1-5.4-5.7-5.7-2.5-8.7.4-8.8.4-.6.6-1.7.6-2.3 0-.6-.7-.6-1.7 0-2.3.2-.2 4.7-4.4 12.3-1.1 6.4 2.8 7.5 6.4 7.3 8.9 0 1-.7 1.6-1.5 1.6z"/><path class="st1" d="M103.6 117c-.1-.2-.3-.5-.5-.8.9-1.1 1-2.2.9-2.9-.2-2.1-2.2-3.3-2.4-3.4-.4-.2-9.2-5.2-11.8-6.5-1.1-.5-2.5-.8-4-.9 1.4-3.5 5-12.5 6.6-15.2 2.6-4.4 3.3-7.6 2.1-9.7-1.1-2-3.3-2-3.5-2-.5 0-1.1.3-1.4.7-.7 1-16.5 24.5-19.1 31.1-2.5 6.4-10.6 36.1-11.2 38.3-1.1 2.5-21.9 51.2-26.4 58.6-4.6 7.5-9.3 15.4-9.7 22.8-.1.9.6 1.7 1.5 1.7h.1c.9 0 1.6-.7 1.6-1.5.4-6.6 4.9-14.1 9.3-21.3 4.7-7.8 25.8-57 26.7-59.1 0-.1 0-.1.1-.2v-.1c.1-.3 8.7-31.7 11.2-38.1 2.2-5.5 14.9-24.7 18.1-29.4v.1c.1.3.7 1.8-2.1 6.4-2 3.3-6.5 14.7-7.3 16.8-.9 0-1.5.1-1.7.1-.9.1-1.6.9-1.5 1.8.1.9.9 1.6 1.8 1.5 2.1-.2 5.9-.2 7.5.5 2.5 1.2 11.5 6.3 11.5 6.3.3.2.8.7.8 1 0 .2-.1.3-.2.5-3.7-2.2-9.7-4.2-13.7-5.5-.9-.3-1.8.2-2 1.1-.3.9.2 1.8 1.1 2 6.4 2 13.9 5 14.7 6.3.3.8-.2 1.5-.8 2-3.2-2.1-8.8-3.7-12.5-4.7-.9-.2-1.8.3-2 1.2-.2.9.3 1.8 1.2 2 5.3 1.4 10.5 3.3 12.1 4.6l.3.3.2.2s.3 1.5-4.8 4.8c0-.4.4-.9 1-1.4.5-.4.8-1.1.6-1.8-.2-.7-.8-1.1-1.5-1.2-1.1-.1-4.4-.4-6.3-1.1-.8-.3-1.8.1-2.1.9-.3.8.1 1.8.9 2.1.4.2.9.3 1.3.4.2 1.1 1.2 6.9-2.3 9.1-2.5 1.5-3.8 1.9-4.7 2.1-.9.2-1.9.5-2.6 1.7-1 1.6-2.8 8-3.3 10-.2.9.3 1.8 1.2 2 .1 0 .3.1.4.1.7 0 1.4-.5 1.6-1.2 1-3.7 2.4-8.2 2.9-9l.1-.1c.1 0 .4-.1.6-.2 1-.3 2.7-.7 5.6-2.5 2.8-1.8 3.8-4.8 4-7.5.4.6.8 1 .9 1.1.3.2.7.4 1 .4.3 0 .6-.1.9-.2 3.8-2.3 8.8-5.8 7.6-9.4 0-.1-.1-.1-.1-.2 1.3-1.3 2.4-3.2 1.5-5.5z"/><path class="st1" d="M77.5 152.5c-.9-.3-1.8.2-2 1.1-.1.5-3.3 11.1-4.1 14.8-.1.6-.4 2.1-.9 4.7C67.7 188 59 233 53 243.7c-8.1 14.3-16.7 21.2-26.4 21.2-5.6 0-20.5-9.9-22.9-55.3-2.7-51.4 7-55.3 15.6-58.7 1.8-.7 3.7-1.5 5.5-2.6.8-.5 1-1.5.5-2.3-.5-.8-1.5-1-2.3-.5-1.5 1-3.2 1.6-4.9 2.3-9.6 3.8-20.5 8.2-17.7 61.9 2.4 46.2 18.2 58.4 26.2 58.4 10.9 0 20.5-7.5 29.2-22.8 6.3-11.2 15-56.6 17.9-71.5.5-2.4.8-4.1.9-4.6.8-3.6 4-14.5 4-14.6.3-.9-.2-1.8-1.1-2.1z"/><path class="st1" d="M31.7 211.3c-.8 0-1.5-.6-1.6-1.5l-1.4-13c-.1-.9.5-1.7 1.4-1.8.9-.1 1.7.5 1.8 1.4l1.4 13c.1.9-.5 1.7-1.4 1.8-.1.1-.1.1-.2.1zM61.7 119.4s-.1 0 0 0c-.8 0-1.3-.6-1.2-1.3.7-10.1 5.1-16.8 5.3-17.1.4-.6 1.1-.7 1.7-.3.6.4.7 1.1.3 1.7 0 .1-4.3 6.5-4.9 15.9 0 .6-.6 1.1-1.2 1.1z"/></svg>