<svg xmlns="http://www.w3.org/2000/svg" viewBox="0 0 539 337"><style>path{stroke-dasharray:200;stroke-dashoffset:0;opacity:0;-webkit-animation:dash 1s linear 1s forwards;animation:dash 1s linear 1s forwards}@-webkit-keyframes dash{0%{opacity:0;stroke-dashoffset:200}15%{opacity:1}100%{opacity:1;stroke-dashoffset:0}}@keyframes dash{0%{opacity:0;stroke-dashoffset:200}15%{opacity:1}100%{opacity:1;stroke-dashoffset:0}}.st0{fill:#2e2e2e}.st1{fill:#25d6b4}.st2{fill:none;stroke:#25d6b4;stroke-width:3;stroke-linecap:round;stroke-linejoin:round;stroke-miterlimit:10}</style><switch><g><g id="character"><path class="st0" d="M141.5 150.6c.4 1.8 1.1 5.8.2 10-.1.6-.7 1-1.3 1h-.3c-.7-.2-1.2-.9-1-1.6 1-4.7-.4-9.5-.4-9.5v-.2-.5c0-.2.1-.3.2-.4.1-.1.2-.2.4-.3.7-.4 1.5-1.7 1.8-3.2.2-.9.1-1.7-.2-2-.8-.9-4.6-2.1-7.8-2.7-.4-.1-.7-.3-.9-.6-3.9-6.3-6.9-7.9-6.9-7.9-.6-.3-.9-1.1-.6-1.8s1.1-.9 1.8-.6c.1.1 3.5 1.7 7.7 8.4 2 .4 7.2 1.6 8.7 3.4.9 1 1.2 2.5.9 4.2-.3 1.4-1.1 3.2-2.3 4.3z"/><path class="st0" d="M127.2 158.8c-.7 2.2 2.5 4.5 2.5 4.5.6.4.7 1.2.3 1.8-.3.4-.7.6-1.1.6-.3 0-.5-.1-.8-.2-.2-.1-4.8-3.4-3.5-7.5.5-1.6 1.3-2.5 2.4-2.7.6-.1 1.1 0 1.6.2.4-1.9-.5-3.7-1.9-6-1.5-2.5-3.2-5.3-2.2-8.8.9-3.1.5-6.7.1-9.2-.4-2.4-2.3-4.3-4.8-4.9-8.6-1.9-23.7-2.5-27.9 14.7 0 .1 0 .1-.1.2S86 154.9 94 163.8c5.6 6.2 11 7.6 11.1 7.6.7.2 1.2.9 1 1.6-.1.6-.7 1-1.3 1h-.3c-.3-.1-6.2-1.5-12.4-8.4-8.9-9.8-3.3-23.5-2.7-25 5-20 23.4-18.3 31.1-16.6 3.5.8 6.2 3.5 6.8 7 .7 4 .7 7.5-.1 10.4-.7 2.4.5 4.4 1.9 6.8 1.7 2.8 3.6 6.1 1.4 10.2 0 .1-.1.1-.2.2l-.2.2s-.1 0-.1.1c-.1.1-.2.1-.3.2h-.5c-.2 0-.3-.1-.5-.2-.1 0-.1-.1-.2-.2l-.2-.2c-.2-.2-.5-.5-.6-.5-.2 0-.3.3-.5.8z"/><path class="st0" d="M98.7 181.7c-.3 0-.5-.1-.8-.2-.6-.4-.7-1.3-.3-1.9.5-.7 13-17.8 32.6-16 .7.1 1.3.7 1.2 1.4s-.7 1.3-1.4 1.2c-18.2-1.7-30.1 14.7-30.2 14.9-.3.4-.7.6-1.1.6zM266.2 107.7c-.7 1.2-3.9 6.8-5.4 8.6l.1.1c.8 1.1 1.7 3.6.3 5.8-.3.5-.7.9-1 1.3.4 1.6.9 5.4-1.7 7.6-3.2 2.6-5.9 3.8-8.9 3.8-2.3 0-4.9.1-5.9.2l-11.3 9c-.2.2-.5.3-.8.3-.4 0-.8-.2-1-.5-.5-.6-.4-1.4.2-1.9l11.6-9.2c.2-.2.5-.3.8-.3 0 0 3.6-.2 6.5-.2 2.4 0 4.6-1 7.3-3.2.9-.8 1.1-2.2 1.1-3.3-.2.1-.3.2-.3.2-.2.1-.5.2-.7.2-.4 0-.9-.2-1.1-.6-.4-.6-.2-1.4.4-1.8 0 0 1.8-1.2 2.9-2.9.6-.9.2-2-.1-2.5-1.2 1-2.4 2.1-2.4 2.1-.3.2-.6.3-.9.3-.4 0-.7-.2-1-.5-.5-.6-.4-1.4.1-1.9 0 0 2.8-2.4 3.9-3.5.7-.7 3.2-4.8 4.9-7.8-1 0-4.2 2.7-6.8 5.8-.1.1-.3.3-.4.3-1.8.9-8.6 3.5-8.9 3.6-.7.3-1.5-.1-1.7-.8-.3-.7.1-1.5.8-1.7 0 0 1-.4 2.3-.9.1-.2.2-.3.4-.5.9-.8 1.5-1.5 1.4-2 0-.1-.1-.2-.1-.3-1.2.8-3.1 1.9-5.6 3.3-1.7.9-3.9 2.2-4.4 2.6-.5.8-1.9 5.6-2.9 9.6 0 .2-.1.3-.2.4l-.1.1c-.1.1-.2.2-.3.2l-13.3 8.1c-.2.1-.5.2-.7.2-.4 0-.9-.2-1.1-.6-.4-.6-.2-1.4.4-1.8l12.8-7.8c.9-3.6 2.4-9.1 3.3-10.1.5-.6 1.8-1.4 5.2-3.2 2.2-1.2 5.2-2.9 5.9-3.6.4-.4 1-.5 1.6-.2.2.1 1.9 1.1 2.1 3 0 .3 0 .6-.1 1 .7-.3 1.3-.5 1.7-.7 2-2.3 6.4-7.1 9.4-6.4.6.1 1.7.6 2.1 2.2-.2.2-.3.5-.4.8z"/><path class="st1" d="M224.1 149.3c-.5 0-.9-.2-1.2-.7-.4-.6-.1-1.5.5-1.8l6-3.3c-1.4-4.4-5.9-7.6-7.5-8.6l-6.7 3.6c-.6.4-1.5.1-1.8-.5-.4-.6-.1-1.5.5-1.8l7.4-4c.4-.2.9-.2 1.3 0 .3.2 8.1 4.7 9.7 11.7.1.6-.1 1.2-.7 1.4l-6.9 3.8c-.1.2-.3.2-.6.2z"/><path class="st0" d="M100.4 181.7c-.1 0-7 1.7-10.8 8.1-.1.2-.3.4-.5.5-6.5 3.8-22.8 13.9-28.3 19.3.2.3.4.7.3 1.1-.2.7-.8 1.2-1.5 1-.1 0-3.1-.1-5 7.3-2.3 8.9-3.1 26.2-3.1 26.3 0 .7-.6 1.3-1.3 1.3h-.1c-.7 0-1.3-.7-1.3-1.4s.8-17.7 3.2-26.9c1.4-5.5 3.5-7.8 5.2-8.7 4.1-5.8 27.3-19.7 30.3-21.5 4.4-7.2 12-9 12.3-9.1.7-.2 1.4.3 1.6 1 .2.8-.3 1.5-1 1.7z"/><path class="st0" d="M89.8 207.8c0 .1-.6 11.4-1.5 22.5-.3 4.2-1.8 9.2-3.2 14.1-2.2 7.7-4.7 16.4-1.5 18.7.6.4.7 1.3.3 1.9-.3.4-.7.6-1.1.6-.3 0-.5-.1-.8-.2-4.7-3.4-2.2-12.2.5-21.6 1.4-4.8 2.8-9.7 3.1-13.6.3-3.6.5-7.3.8-10.5l-12.7 6.2c-.2.1-.4.1-.6.1H73c0 .4 0 .9-.1 1.4-.3 6.9-5.6 20-5.9 20.6-.2.5-.7.8-1.2.8-.2 0-.3 0-.5-.1-.7-.3-1-1.1-.7-1.7.1-.1 5.4-13.2 5.7-19.7.3-6.6 0-9.2 0-9.2-.1-.7.4-1.4 1.2-1.5.7-.1 1.4.4 1.5 1.2 0 .1.2 1.7.1 5.5l13.3-6.5c.1 0 .2 0 .2-.1.3-5.2.5-8.8.5-8.9 0-.7.7-1.3 1.4-1.3.8-.1 1.3.6 1.3 1.3zM140.9 272.8c-.3 0-.6-.1-.9-.3-.6-.5-.6-1.3-.1-1.9 0 0 1.3-1.5 4.7-7.2 2.7-4.6 2.2-26.4 1.7-34.4 0-.7.5-1.4 1.3-1.4.7 0 1.4.5 1.4 1.3.2 3 1.6 29.8-2.1 35.9-3.6 5.9-4.9 7.5-5 7.6-.3.3-.7.4-1 .4z"/><path class="st1" d="M127.5 243.6h-.2l-16.1-3c-.5-.1-.9-.4-1-.9-.2-.4-.1-.9.2-1.3l7.7-9.2c.2-.2.5-.4.8-.5.3 0 29.8-5 29.1-21.1 0-.7.5-1.4 1.3-1.4.7 0 1.4.5 1.4 1.3.7 17.4-26.7 23-30.8 23.7l-5.9 7 13.5 2.5c10.9-3.8 18.3-9.7 22.1-17.5 5.3-11.1 1.4-22.3 1.3-22.4-.2-.7.1-1.5.8-1.7s1.5.1 1.7.8c.2.5 4.4 12.4-1.4 24.5-4.1 8.6-12.2 15-23.9 19-.3.2-.4.2-.6.2z"/><path class="st0" d="M226.2 153.6l-.3.3c-.9.5-20.9 12.5-30.5 15.1-2.2 1.5-25.9 17.4-37.5 23.6-.9 1.1-1.8 2.2-2.7 3.4l-5.5 14.8c-.2.5-.7.9-1.2.9-.2 0-.3 0-.5-.1-.7-.3-1-1-.8-1.7l2.6-7c-1.8 2.4-3.3 4.4-4.1 5.5-.3.4-.7.6-1.1.6-.3 0-.5-.1-.7-.2-.6-.4-.8-1.2-.4-1.8 1.7-2.6 7.4-9.9 11.9-15.5.1-.4.3-.7.7-.9 2.8-3.5 4.9-6.1 5.1-6.4.5-.6 1.3-.7 1.9-.2.6.5.7 1.3.2 1.9 0 0-.4.5-1 1.3 12.8-7.6 31.5-20.2 31.8-20.4.1-.1.2-.1.4-.2 8.1-2.1 25.1-12 29.2-14.4-2.5-7.4-8.9-12.3-10.9-13.6-7.7 3.8-19.1 9.7-24.7 12.7.1.2.2.4.2.6 0 .7-.6 1.3-1.3 1.3-8.7 0-16.5 3.1-21.7 5.2-2.6 1-4.4 1.8-5.7 1.9-1.3.1-2.7 0-4.1-.1-2.5-.2-5.3-.5-9.3.1-8.7 1.3-47.9 22.7-48.3 22.9-.2.1-.4.2-.6.2-.5 0-.9-.2-1.2-.7-.4-.6-.1-1.5.5-1.8 1.6-.9 40-21.8 49.2-23.2 4.3-.6 7.4-.4 9.9-.2 1.4.1 2.6.2 3.7.1.8-.1 2.7-.8 4.9-1.7 4.7-1.9 11.4-4.6 19.1-5.3.2-.1 18.5-9.7 28.9-14.9.4-.2.9-.2 1.3.1.4.2 10.1 6.1 13 16.5V153c-.2.3-.3.4-.4.6 0-.1 0 0 0 0zM140 267.8c-.6 0-1.1-.4-1.3-1-.8-3.1-5.7-8.1-29.4-7.9-6.4.1-21.8 5.2-21.9 5.2-.7.2-1.4-.1-1.7-.8-.2-.7.1-1.4.8-1.7.6-.2 16-5.3 22.8-5.4 19.5-.2 30.3 3.1 32 9.9.2.7-.2 1.4-1 1.6-.1.1-.2.1-.3.1zM128.6 256c-.4 0-.8-.2-1-.5-.5-.6-.3-1.4.2-1.9l11.3-8.9c.6-.5 1.4-.4 1.9.2.5.6.3 1.4-.2 1.9l-11.3 8.9c-.3.2-.6.3-.9.3zM87.8 257.6c-.2 0-.3 0-.5-.1-.7-.3-1-1-.8-1.7l4.2-11.5c.3-.7 1-1 1.7-.8.7.3 1 1 .8 1.7L89 256.7c-.2.6-.7.9-1.2.9zM511.8 337c-.9 0-1.6-.7-1.6-1.6s.7-1.6 1.6-1.6c9.2-.1 17.1-.1 25.6 0 .9 0 1.6.7 1.6 1.6s-.7 1.6-1.6 1.6c-8.5-.1-16.4-.1-25.6 0zm-6.5-1.6c0-.9-.7-1.6-1.6-1.6h-4.5c-.9 0-1.6.7-1.6 1.6s.7 1.6 1.6 1.6h4.5c.9 0 1.6-.8 1.6-1.6zm-12.2 0c0-.9-.7-1.6-1.6-1.6-108.6-.1-164-.1-283 0-.9 0-1.6.7-1.6 1.6s.7 1.6 1.6 1.6h283c.9 0 1.6-.8 1.6-1.6zm-297.5 1.5h5c.9 0 1.6-.7 1.6-1.6s-.7-1.6-1.6-1.6h-5c-.9 0-1.6.7-1.6 1.6 0 .9.7 1.6 1.6 1.6zm-31.2.1h23.4c.9 0 1.6-.7 1.6-1.6s-.7-1.6-1.6-1.6h-23.4c-.9 0-1.6.7-1.6 1.6 0 .8.7 1.6 1.6 1.6zM9.1 335.4c0-.9-.7-1.6-1.6-1.6H1.6c-.9 0-1.6.7-1.6 1.6s.7 1.6 1.6 1.6h5.9c.9 0 1.6-.8 1.6-1.6zm65.9 0c0-.9-.7-1.6-1.6-1.6-19-.1-38.4-.1-57.6 0-.9 0-1.6.7-1.6 1.6s.7 1.6 1.6 1.6c19.2-.1 38.6-.1 57.6 0 .8 0 1.6-.8 1.6-1.6z"/><path class="st0" d="M89.7 303.3c.2.4.3.8.1 1.2-.1.2-.2.3-.3.4-2.5 12.2-13.5 30.2-14 31.1-.3.4-.7.6-1.1.6-.2 0-.5-.1-.7-.2-.6-.4-.8-1.2-.4-1.8.1-.2 11.5-18.6 13.7-30.2-1.7-1.3-4.7-4.7-6.7-12.7-2.7-10.9 2.2-27.3 2.4-28 .2-.7 1-1.1 1.7-.9s1.1 1 .9 1.7c0 .2-4.9 16.5-2.4 26.6 1.3 5.3 3.1 8.3 4.5 9.9 0-.7 0-1.3-.1-1.9-1.8-10.7-.1-22.4 0-22.9.1-.7.8-1.2 1.5-1.1s1.2.8 1.1 1.5c0 .1-1.7 11.7 0 22 .1 1.5 0 3.1-.2 4.7zM163.9 336.6c-.2.1-.4.1-.5.1-.5 0-1-.3-1.2-.8l-21.8-48.5c-.2.6-.5 1.3-.8 1.9-2.1 4.3-11 22.6-17.1 35l11 10.1c.5.5.6 1.3.1 1.9-.3.3-.6.4-1 .4-.3 0-.6-.1-.9-.4l-10.4-9.5c-2.6 5.4-4.5 9.1-4.5 9.1l-2.4-1.2s19.5-39.9 22.7-46.6c3-6.1 1.6-12.5 1.6-12.6-.2-.7.3-1.4 1-1.6s1.4.3 1.6 1c0 .2.8 3.8.1 8.3l23.2 51.5c.3.8 0 1.6-.7 1.9zM67.6 296.7c-.2.1-1.2.4-2.4.4-.7 0-1.6-.1-2.3-.5-.5-.3-.9-.6-1.3-1.1l-2.4 11.6c-.1.4-.3.7-.6.9-.2.1-.4.2-.7.2-.1 0-.3 0-.4-.1-.8-.2-2-.9-2.8-2.1l-1 2.5c-.1.4-.4.6-.8.8-.1 0-.3.1-.4.1-.2 0-.5-.1-.7-.2s-4.9-3-3.9-7.1c0-.1.1-.3.1-.5l-2.9 2.7c-.2.2-.6.3-.9.3h-.1c-.4 0-.7-.2-.9-.5-1.2-1.6-2.7-4.8-.7-6.8 2.3-2.3 5.5-6.6 5.5-6.6l.1-.1-.9-4.1c-1.1-5.1 1.2-13.7 1.6-15.2l-.1-13.7c0-.7.6-1.3 1.3-1.3.7 0 1.3.6 1.3 1.3l.1 13.9v.3c0 .1-2.6 9.2-1.6 14.1l1.1 5.2c.2.7-.3 1.4-1 1.6h-.1c-1 1.2-3.4 4.4-5.4 6.4-.4.4-.2 1.3.1 2.1l5.1-4.6c.7-2.1 1.4-4 1.5-4.1.3-.7 1-1 1.7-.8.7.3 1 1 .8 1.7 0 .1-2.3 6.2-3.1 9.3-.3 1.2.6 2.4 1.4 3.2l1.7-4.5c.5-4.1 1.5-8.8 1.6-9 .2-.7.9-1.2 1.6-1 .7.2 1.2.9 1 1.6 0 0-1.1 5-1.5 8.9-.1 1.3.2 2.2.7 2.8l2.7-13.5c0-.1.1-.3.2-.4-.5-1.5-.9-2.8-1.2-3.5-1.6-.6-5.6-2.7-6.8-7.2-.2-.7.2-1.4.9-1.6s1.4.2 1.6.9c1.1 4.1 5.6 5.6 5.7 5.6.4.1.7.4.8.8.1.2 1.4 3.8 2.3 7.4.2.7.5 1 .8 1.1.4.2.9.2 1.4.2-.6-2-1.6-5.7-2.3-7.8-.9-3.1-2.4-12-2.5-12.4v-.3l1.1-16.3c0-.7.7-1.3 1.4-1.2.7 0 1.3.7 1.2 1.4l-1.1 16.2c.2 1.2 1.6 9.3 2.4 12 .9 3 2.7 9.2 2.7 9.2.3.4 0 1.2-.7 1.4z"/><path class="st1" d="M67.1 247.3c0-.2 0-.3-.1-.4v-.1c-.1-.1-.2-.3-.3-.4-9.9-9.2-19-.7-19.1-.7-.3.3-.5.7-.4 1.1l1.5 10.9c0 .1.1.2.1.3 0 .1 0 .1.1.2.1.2.2.3.3.4.1.1.2.2.4.2h.6c.1 0 .3-.1.4-.1.1-.1.3-.2.4-.3 0 0 3-3.5 6.3-3.3 1.7.1 3.3 1.2 4.8 3.2.3.4.7.6 1.1.6h.2c.5-.1.9-.5 1.1-1l2.7-10.3c-.1 0-.1-.1-.1-.3zm-4.6 7.5c-1.5-1.5-3.2-2.2-5.1-2.3-2.6-.1-4.9 1.2-6.4 2.4l-1-7.7c1.7-1.4 7.7-5.1 14.4.6l-1.9 7zM342.8 49.7v-.4-.1-.1-.1h-.1l-.1-.1h-.1-.7l-38.4 10h-.1c-.1 0-.1 0-.2.1l-.1.1-.1.1-.1.1s0 .1-.1.2v.6s0 .1.1.1l.1.1.1.1.1.1s.1 0 .1.1c.1 0 .1 0 .2.1h.1c.7.2 6.5 2.3 10.3 3.8l1.8 14.8V79.6c0 .1.1.2.2.3.1.1.1.1.2.1h.4c.1 0 .2 0 .3-.1h.1c.1 0 .2-.1.2-.2l10-10.2 8.9 3.2h.6c.1 0 .1-.1.2-.1l.1-.1.1-.1s0-.1.1-.1c0 0 0-.1.1-.1l5.7-22.2v-.3c0 .1 0 .1 0 0zm-7.2 20.9l-11.5-4.1 16.2-14.3-4.7 18.4zm-20.1-6.4l20.6-10.6-14.2 12.6-.1.1-.1.1-4.8 9.5-1.4-11.7zm-8.9-4.5l27.8-7.2-19.9 10.2c-3.8-1.5-6.3-2.4-7.9-3zm13.1 14.6l3.2-6.4 2.3.8-5.5 5.6z"/><path class="st0" d="M279.4 96.2c-.3 0-.5-.1-.7-.4-.3-.4-.2-1 .2-1.2l5.8-4.2c.4-.3 1-.2 1.2.2.3.4.2 1-.2 1.2L280 96c-.2.1-.4.2-.6.2zm11.8-8.2l6-4.3c.4-.3.5-.8.2-1.2-.3-.4-.8-.5-1.2-.2l-6 4.3c-.4.3-.5.8-.2 1.2.2.2.4.4.7.4.2-.1.3-.1.5-.2zm-2.6 9.5l11.2-8.1c.4-.3.5-.8.2-1.2-.3-.4-.8-.5-1.2-.2l-11.2 8.1c-.4.3-.5.8-.2 1.2.2.2.4.4.7.4.2 0 .3-.1.5-.2zm14.5-10.4l2.7-2c.4-.3.5-.8.2-1.2-.3-.4-.8-.5-1.2-.2l-2.7 2c-.4.3-.5.8-.2 1.2.2.2.4.4.7.4.2 0 .4-.1.5-.2zM357.2 177.1c-2.5.4-4.8 1.7-6.3 3.8-1.4 1.9-2 4.2-1.8 6.5.4.5.3 1.3-.2 1.7-.1.1-.2.1-.3.2h-.1c-.1.1-.3.1-.4.1h-.2c-.6 0-1.1-.4-1.3-1-3.5-3.5-9.2-3.8-13.1-.5-.6.5-1.4.4-1.9-.1-.5-.6-.4-1.4.1-1.9 4.2-3.7 10.3-3.9 14.7-1 .2-2.1 1-4 2.3-5.7 1.9-2.6 4.8-4.3 8-4.8.7-.1 1.4.4 1.5 1.1.2.8-.3 1.5-1 1.6zM297.9 211.8c-.2.7-1 1.1-1.7.8-4.8-1.6-10 .8-11.9 5.4.1.7-.3 1.3-1 1.5h-.4-.1c-.1 0-.3 0-.4-.1-.7-.2-1-.9-.9-1.5-1.5-4.7-6.5-7.6-11.4-6.4-.7.2-1.4-.3-1.6-1s.3-1.4 1-1.6c5.4-1.3 10.9 1.2 13.6 5.8 3-4.4 8.7-6.5 14-4.7.7.3 1 1.1.8 1.8zM152.5 64.2c-.3.3-.6.4-.9.4-.3 0-.7-.1-1-.4-1.8-1.8-4.2-2.9-6.7-2.9-2.3 0-4.6.8-6.3 2.3-.2.5-.7.9-1.2.9h-.3c-.2 0-.4-.1-.5-.3-.1-.1-.2-.1-.3-.2-.5-.5-.5-1.2-.1-1.7.8-4.9-2.3-9.7-7.2-10.9-.7-.2-1.2-.9-1-1.6.2-.7.9-1.2 1.6-1 3.2.7 5.9 2.7 7.6 5.5 1.1 1.8 1.7 3.8 1.8 5.9 4.7-2.6 10.7-1.8 14.6 2.2.5.4.4 1.3-.1 1.8z"/><path class="st1" d="M126.1 286.2c-.3 0-.7-.1-.9-.4-.5-.5-.5-1.4 0-1.9 3.7-3.7 7.8-14.3 7.9-14.4.3-.7 1-1 1.7-.8.7.3 1 1 .8 1.7-.2.5-4.3 11.2-8.5 15.3-.4.4-.7.5-1 .5z"/></g><path class="st2" d="M290.6 308.7s-20.1-43.5 24.1-42.1c-19.2-21 14.8-76.8 61.4-32.4m34.3 1.2c-36.2-21.9-41.9 14.7-41.9 14.7m83.3-15.6c-8.7-46.8-55.5-34.2-57.6-6.2m95.1-35.3c-14.6-51.1-73.7-27-68.4 10m99.2 5c-3.3-27.2-26.1-27.1-31.2-16.1" id="Слой_2"/><path class="st2" d="M28.7 42.7C48.1 22 26.6-3.3 6.5 3m57.3 63.7c27.6-22.3-2.9-58.4-29.1-50.5m32 80.2c14.2-8.2 8-29.8-2.2-30.4" id="Слой_3"/></g></switch></svg>