<svg id="Слой_3" xmlns="http://www.w3.org/2000/svg" viewBox="0 0 91.3 82"><style>.st1{fill:none;stroke:#25d6b4;stroke-width:2;stroke-miterlimit:10}.st4{fill:#2e2e2e}</style><path d="M32.6 18h-.4c-1 0-1.8-.8-1.8-1.8V2.8c0-1 .8-1.8 1.8-1.8H59c1 0 1.8.8 1.8 1.8v13.5c0 1-.8 1.8-1.8 1.8H41.7" fill="none" stroke="#2e2e2e" stroke-width="2" stroke-miterlimit="10"/><path class="st1" d="M2.8 1h17.9c1 0 1.8.8 1.8 1.8v13.4c0 1-.8 1.8-1.8 1.8H2.8c-1 0-1.8-.8-1.8-1.8V2.8C1 1.8 1.8 1 2.8 1zM70.5 1h17.9c1 0 1.8.8 1.8 1.8v13.4c0 1-.8 1.8-1.8 1.8H70.5c-1 0-1.8-.8-1.8-1.8V2.8c0-1 .8-1.8 1.8-1.8z"/><path d="M63.3 41.5v31.3H39.8v-1.6c-.2-2.7-2.7-5.3-5.5-7.3-4.3-3.2-6.8-8.4-6.8-13.8v-2.9c0-2 1.7-3.7 3.7-3.7h1.5V17.3c0-1.2.5-2.4 1.3-3.2.8-.8 1.9-1.3 3.2-1.3 2.5 0 4.5 2 4.5 4.5v15.9c0-2.1 1.7-3.8 3.8-3.8h.3c2.1 0 3.8 1.7 3.8 3.8v3.9c0-1 .4-2 1.1-2.7.7-.7 1.6-1.1 2.7-1.1 2.1 0 3.8 1.7 3.8 3.8v2.6l.3.1c.5-1 1.6-1.7 2.8-1.7 1.7 0 3.1 1.4 3.1 3.1l-.1.3z" fill="none" stroke="#25d6b4" stroke-width="2" stroke-linecap="round" stroke-linejoin="round" stroke-miterlimit="10"/><path d="M37.8 73h27.9v8H37.8v-8z" fill="none" stroke="#25d6b4" stroke-width="2" stroke-linejoin="round" stroke-miterlimit="10"/><path class="st4" d="M41.1 75.2c.7 0 1.2.5 1.2 1.2v.7c0 .7-.5 1.2-1.2 1.2s-1.2-.5-1.2-1.2v-.7c0-.7.5-1.2 1.2-1.2zM46.2 5.9l1 2c0 .1.1.1.1.1l2.2.3c.1 0 .2.2.1.3L48 10.2s-.1.1 0 .2l.4 2.2c0 .1-.1.2-.2.2l-2-1H46l-2 1c-.1.1-.3 0-.2-.2l.4-2.2v-.2l-1.6-1.6c-.1-.1 0-.3.1-.3l2.1-.3c.1 0 .1 0 .1-.1l1-2c.1-.1.2-.1.3 0z"/></svg>