<svg xmlns="http://www.w3.org/2000/svg" viewBox="0 0 604.4 503"><style>.animate,path{opacity:0}.animate{stroke-dasharray:2000;stroke-dashoffset:0;-webkit-animation:dash 3s linear forwards;animation:dash 3s linear forwards}@-webkit-keyframes dash{0%{opacity:0;stroke-dashoffset:2000}15%{opacity:1}100%{opacity:1;stroke-dashoffset:0}}@keyframes dash{0%{opacity:0;stroke-dashoffset:2000}15%{opacity:1}100%{opacity:1;stroke-dashoffset:0}}.st2{fill:#2e2e2e;}.st3{fill:#00d6b3}.st4,.st5,.st8{fill:none;stroke:#2e2e2e;stroke-width:3;stroke-linecap:round;stroke-linejoin:round;stroke-miterlimit:10}.st5,.st8{stroke-width:2}.st8{stroke:#00d6b3}.st9{fill:#9f9842}.st11{fill:none}@media all and
(-ms-high-contrast:none),(-ms-high-contrast:active){path{opacity:1}}</style><g id="Layer"><path fill="#fffc19" d="M398.3 607.3z"/><path d="M490.6 8.5c.1-.6.6-1 1.2-.9.6.1 1 .6.9 1.2 0 .3-.3 3 2.7 3.9.8.3 1.7.5 2.5.7 3.4.9 7.3 1.9 7.9 5.5.6 1.1 3.2 6.1-.1 11.1-.1.1-.1.2-.2.2-.2.2-5.7 5.1-2.5 9.9.3.5.2 1.2-.3 1.5-.2.1-.4.2-.6.2-.4 0-.7-.2-.9-.5-3.4-5.1.3-10.5 2.8-12.7 2.7-4.3-.1-8.7-.1-8.8-.1-.1-.1-.3-.2-.4-.3-2.2-2.6-2.9-6.3-3.9-.9-.2-1.8-.5-2.6-.7-3.9-1.2-4.4-4.6-4.2-6.3z" fill="#231f20"/><path class="st2" d="M503.8 40c.7-.7 3.1-2.8 5-2.7.6.1 1.1.3 1.5.8 1.5 1.9 1.8 5.3-1 8-.6.6-1.1 1.2-1.6 1.8-1.2 1.4-2.5 3-4.2 3-.6 0-1.2-.2-1.8-.7-.5-.4-.6-1-.2-1.5.4-.5 1-.6 1.5-.2.7.5 1.1.3 3-2 .5-.6 1.1-1.3 1.7-1.9 2.1-2.1 1.5-4.2.9-5.1-.5 0-2 1-3.2 2.1-.4.4-1.1.4-1.6 0-.5-.5-.5-1.2 0-1.6z"/><path class="st3" d="M468.8 209.2c-2.1 0-3.9 1.7-3.9 3.9 0 2.1 1.7 3.9 3.9 3.9 2.1 0 3.9-1.7 3.9-3.9-.1-2.2-1.8-3.9-3.9-3.9zm0 6.2c-1.3 0-2.4-1.1-2.4-2.4 0-1.3 1.1-2.4 2.4-2.4 1.3 0 2.4 1.1 2.4 2.4 0 1.4-1.1 2.4-2.4 2.4zM505.6 232.3c0-2.3-1.5-4.1-3.4-4.1s-3.4 1.8-3.4 4.1 1.5 4.1 3.4 4.1 3.4-1.8 3.4-4.1zm-5.2 0c0-1.4.9-2.6 1.9-2.6 1 0 1.9 1.2 1.9 2.6 0 1.4-.9 2.6-1.9 2.6-1 0-1.9-1.2-1.9-2.6zM515.7 222.3c-1.9 0-3.5 1.6-3.5 3.5s1.6 3.5 3.5 3.5 3.5-1.6 3.5-3.5c-.1-2-1.6-3.5-3.5-3.5zm0 5.4c-1.1 0-2-.9-2-2s.9-2 2-2 2 .9 2 2-.9 2-2 2zM481.9 223.4c-2.1 0-3.9 1.7-3.9 3.9 0 2.1 1.7 3.9 3.9 3.9 2.1 0 3.9-1.7 3.9-3.9 0-2.1-1.7-3.9-3.9-3.9zm0 6.3c-1.3 0-2.4-1.1-2.4-2.4 0-1.3 1.1-2.4 2.4-2.4 1.3 0 2.4 1.1 2.4 2.4 0 1.3-1.1 2.4-2.4 2.4zM462.8 218.2c-2.1 0-3.9 1.7-3.9 3.9 0 2.1 1.7 3.9 3.9 3.9 2.1 0 3.9-1.7 3.9-3.9-.1-2.1-1.8-3.9-3.9-3.9zm0 6.3c-1.3 0-2.4-1.1-2.4-2.4 0-1.3 1.1-2.4 2.4-2.4 1.3 0 2.4 1.1 2.4 2.4 0 1.3-1.1 2.4-2.4 2.4zM506.3 261.1c-2 0-3.6 1.6-3.6 3.6s1.6 3.6 3.6 3.6 3.6-1.6 3.6-3.6-1.6-3.6-3.6-3.6zm0 5.8c-1.2 0-2.2-1-2.2-2.2 0-1.2 1-2.2 2.2-2.2 1.2 0 2.2 1 2.2 2.2-.1 1.2-1 2.2-2.2 2.2zM487 266.4c-2 0-3.6 1.6-3.6 3.6s1.6 3.6 3.6 3.6 3.6-1.6 3.6-3.6c.1-1.9-1.5-3.6-3.6-3.6zm0 5.8c-1.2 0-2.2-1-2.2-2.2 0-1.2 1-2.2 2.2-2.2 1.2 0 2.2 1 2.2 2.2 0 1.3-1 2.2-2.2 2.2zM464.9 231.1c-2.1 0-3.9 1.7-3.9 3.9 0 2.1 1.7 3.9 3.9 3.9 2.1 0 3.9-1.7 3.9-3.9s-1.8-3.9-3.9-3.9zm0 6.2c-1.3 0-2.4-1.1-2.4-2.4 0-1.3 1.1-2.4 2.4-2.4 1.3 0 2.4 1.1 2.4 2.4 0 1.4-1.1 2.4-2.4 2.4z"/><path class="st2" d="M535.6 138c4.3 6.1 8.4 12 10.4 14.7.1.2.3.3.5.4 2.4 9.4 7.3 28.8 10.8 39.6.2.6.8 1 1.4 1h.3l.7 2.6c.1.3.3.6.6.7.1 0 .2.1.3.1-1.6 2.8-4.5 8.2-3.2 10.5l.1.1 1.2 1.4c-.6.8-1.1 1.8-1.1 2.9-.1 2.8 0 7.1 0 7.3 0 .6.5 1.1 1.1 1.1.6 0 1.1-.5 1.1-1.1 0 0-.1-4.4 0-7.1.1-2.4 3.8-4 5.3-4.5.4.6.7 1.4.8 2.3l-2.1 1c-.4.2-.7.6-.6 1.1l.6 5.9c.1.6.5 1 1.1 1h.1c.6-.1 1-.6 1-1.2l-.1-.5c.2.1.4.2.6.2.1 0 .3 0 .4-.1l12.8-5.6c.6-.2.8-.9.6-1.5-.2-.6-.9-.8-1.5-.6l-2.5 1.1c.1-.1.2-.3.2-.4 0-.1.1-.2.1-.3.2 0 .4-.1.6-.3.8-.7 1.4-1.4 1.9-2.2.6 1 1.3 2.3 1.3 3.1 0 .6.5 1.1 1.1 1.1.6 0 1.1-.5 1.1-1.1 0-2.1-2.1-5-2.3-5.3l-.2-.2c.1-.5.2-1 .2-1.6.3 0 .7-.1 1.1.2.6.4 2.1 3.5 3.2 6.1.2.4.6.7 1 .7.1 0 .3 0 .4-.1.6-.2.8-.9.6-1.4-1-2.4-2.9-6.4-4.1-7.2-.9-.5-1.7-.5-2.3-.5-.4-2.4-1.5-4.7-2.6-6.1v-.1-.1-.1l-.5-2.7c.7.2 1 .4 1 .4.5.2 1 .2 1.5-.1.4-.3.7-.8.6-1.4-.9-8.3-11.9-44.5-12.4-46.1v-.1c-4.6-12.4-25.3-50.4-26.2-52-.3-.5-.9-.8-1.4-.8.5-.4.7-1.2.4-1.8-4.5-9.1-22.5-17.6-27.2-19.7l.1-.6c.1-.4 0-.8-.2-1.1l-2.1-3.2c-.3-.4-.7-.6-1.2-.7-.5 0-.9.2-1.2.6 0 0-.1.2-.3.4l-1.5-3.7c-.2-.4-.5-.6-.9-.7.2-.3.3-.7.2-1.1-.5-2.4 2.1-6.6 3.9-8.8 8-8.2 11.4-12.8 13.9-22.3 2.5-9.3-2.5-19.2-2.7-19.6 0-.1-.1-.2-.2-.3-10.6-13-22.1-9.4-26.4-8.1-.3.1-.6.2-.8.3-1.2.3-2.4.2-3.9.1-2.3-.2-4.9-.3-7.9.8-1.8.7-2.6 2-2.8 2.9-.7 2.5.8 5.5 1.7 6.9-2.5 2.6-4.8 6.2-6.1 10.9v.3c.2 2.7.2 5.9.1 6.5-.3.7-2.8 7-1.9 13.7.9 6.5-.2 11.9-.2 11.9v.4c.1.4.5 2.4 4.2 3.7v.1c.1.5.6 3.5 1 5.6-.6 0-1.2.5-1.3 1.2-.1.5-10.9 51.5-10.8 86.6-.6 3-1.1 6-1.5 9-1.1 8.8.7 22.3 2.8 34.1-.5 2.1-3.3 13.2-4.3 19-3.2-1.4-8.3-4-10.3-6.2.1-2 .5-5.5 1-9.9.8-7 2-16.7 2.4-26.2 0-.7 2.7-65.7 3.4-78.5 0-.8-.6-1.5-1.4-1.5-.8 0-1.5.6-1.5 1.4-.2 4.2-.7 13.9-1.2 25.1-2.9.5-6.4 1.4-9.6 2.3 2-7.9 8.3-34.6 9.2-38.2 3.2-3.5 15.2-10.5 19.6-12.9.7-.4 1-1.3.6-2s-1.3-1-2-.6-16.9 9.3-20.7 13.8l-.3.6c-.1.3-7.8 33.3-9.5 39.6-.1.2-.1.4 0 .6-3.3 1.1-6.1 2.1-7.2 2.5-.5.1-1.2.4-1.8 1.1-1.1 1.3-1.2 4.8-1 8.8l-5.3 2c-.5.2-.8.7-.7 1.2 1 6.8 2.7 12.3 5 15.7l-4.4 8.8c-4.9-2.6-9.7-5.1-13.5-7.1-.5-.3-1.2-.1-1.5.4-2.9 5.3-17.3 35.2-18 36.4-.3.5 0 1.2.5 1.5l2.4 1.2h.1c0 .3.2.5.4.6l6.6 3.3c-1.2 2.2-3.4 6.8-2.2 8.9.4.7 1.1 1.1 1.9 1.2h.3c2.3 0 4.1-2.2 5.2-4.2 0 1.4.5 2.5 1.4 3.1.6.4 1.2.5 1.8.5h.6c.2.6.5 1.2 1.1 1.7.5.4 1.2.6 1.9.6.5 0 1-.1 1.6-.3.2.6.5 1.3 1.2 1.7.5.3 1 .4 1.6.4.6 0 1.2-.1 1.8-.4l.6.6c.1.1.2.1.3.2.1 0 .3.1.6.1.9 0 2.6-.5 4.1-3.4v-.1c0 .4.3.8.7 1l17 6.8c.1.1.3.1.4.1.4 0 .8-.2 1-.6l3-6.3c1.5 2 4.7 3.9 7.6 5.5.6 4.9 3.2 25.6 5.6 33v.1c-1.5 6.7-2.7 12.7-3 15.1-.1.5.2.9.6 1.1.3.1.9.4 1.6.8-1.2 3.2-6 16.9-4.1 22 1.8 4.7 1.5 7.8 1.5 7.9-.1.8.5 1.5 1.3 1.6h.2c.7 0 1.4-.5 1.5-1.3 0-.2.4-3.9-1.7-9.3-1.2-3.2 1.7-13.6 4-19.8 6.3 2.8 17.5 7.3 22.7 7.3.5 0 .9 0 1.3-.1 2.3-.5 5.5-1.5 8.8-2.5l1.6 7.4c.1.4.3.7.6.9.1 0 7.4 4.9 10.9 22.5v.2c.1.2 3.3 10.2 6.8 20.1-2.9 5.1-7.4 5.6-9.5 5.6.2-.4.2-.9 0-1.3-3.8-7.3-21.1-36.2-24.3-41.4 2.7-4.1 6.1-9 6.1-9.1.5-.7.3-1.6-.4-2-.7-.5-1.6-.3-2 .4-.3.5-7.7 11.1-9.4 14.3-.4.7-.1 1.6.6 2 .2.1.5.2.7.2.5 0 1-.3 1.3-.8.3-.5.8-1.3 1.3-2.2 4.5 7.5 20 33.3 23.5 40 .1.2.2.3.3.4-.2.4-.2.9.1 1.2.7.9 1.4 2 1.9 3.3-.1.1-.2.3-.2.5-.1.6.3 1.1.9 1.2 1.1 3.1 1.8 6.5 2 7.9-.4.1-.7.2-1.1.4-.5.2-.9.7-.9 1.2-.4 3.2-1.6 8-3.3 9.4-4.9.8-13.3 4.9-12.3 14.7 0 .5.3.9.7 1.1.1.1 2.2 1.2 6.1 1.2 2.7 0 6.3-.5 10.7-2.3 3.8-1.5 8.2-4.5 13.1-8.9.4-.3.5-.8.5-1.3l-.2-1.3 4.5-4.6c.2.3.5.5.8.6.5.2 1.1 0 1.5-.4 2-2.2 3.2-3.7 3.3-3.8.2-.3.3-.6.3-.9 0-.2 0-5.4-3.8-8.3l-3.2-2.4c-.3-.2-.7-.3-1.1-.3h-.2c-4-9.7-11.8-33.6-12.4-35.2-3.2-16.3-9.7-22.5-11.6-24l-1.5-7.1v-.1c1.7-.6 3.3-1.1 4.7-1.6l3.9-1.3c1.4-.5 2-.8 2-5.2 0-.1.3-14.6 2.9-22.2 2.3-6.6 6.4-16.9 7.6-20 4.2-1.6 8.5-3.7 12.7-6.4.4-.3.7-.8.7-1.3.3-.5-1.7-61 .2-75.3zm-82.3 38.6c-1.1-.5-2.8-1.5-5.1-2.6 2.2-3.3 4.4-8.2 5.7-11.3-.3 6.3-.4 10.4-.4 10.5 0 1.1-.1 2.3-.2 3.4zm1.2-27.7l-13.9 5.9c1.1-3.5 1.1-10 0-19.8 0-.3-.1-.6-.1-.7-.1-.6-.5-5-2.1-7.3 3.8-1.4 11.6-4 17.3-5-.4 8.8-.8 18.4-1.2 26.9zm-21.3-11.2c.7 6.8 2.2 14.1 2.2 14.2.1.6.7.9 1.3.8.6-.1.9-.7.8-1.3-.8-3.1-3.8-21.1-1.9-23.2.1-.2.2-.2.3-.3h.1s.1 0 .2-.1c.6.3 1.8 3 2.1 6.7 0 .1 0 .4.1.8 1.7 15.1.3 19.2-.6 20.3-.2.3-.4.3-.5.3-2.3.1-6.2-5-8-16.7l3.9-1.5zm.2 18.5c1.2 1.2 2.5 1.9 3.8 1.9h.2c.8 0 1.5-.4 2.1-1.1 0-.1.1-.1.1-.2l14.8-6.3c-.1 2.8-.2 5.5-.3 7.9-.5-.1-1 .2-1.2.7 0 .1-3.4 9.1-6.7 13.8-4.7-2.4-10.8-5.6-16.9-8.8l4.1-7.9zM397 192.9c1.2-2.5 4.5-9.4 8-16.4l-6.7 17.1-1.3-.7zm7.4 14.5h-.1c-.4-.5.5-3.6 2.2-6.9l2.5 1.3c-.8 2.1-2.7 5.8-4.6 5.6zm7.9-.8c-.3-.2-.4-.7-.4-1.4.1-3.6 2-6.6 3-7.3.7-.4 1.3-.6 1.7-.5.2.1.4.3.5.6-2.7 2.3-3.6 6.8-3.8 8.7-.3.1-.8.1-1-.1zm3.5 2.3c-.4-.3-.4-1-.4-1.2 0-.1.9-8.2 4.8-8.7h.2c.2-.1.7-.1.8 0 .1.1.3.7-.1 2-2.2 1.7-3.1 4.8-3.2 7.7-1 .3-1.7.4-2.1.2zm7.3-3.7c-1 1.9-1.4 3.9-1.2 5.5-.6.3-1.2.3-1.4.2-.3-.2-.4-.9-.4-1.2 0-.8 0-7.4 4.6-7.8.2 0 .6.2.7.3 0 0 0 .2-.1.5v.1c-.9.4-1.6 1.3-2.2 2.4zm3.3 3.9c-.8 1.6-1.6 2.1-2 2.2-.5-.8-.6-2.9.6-5.1.6-1.2 1.3-1.9 2-2.1h.3c.3 0 .5.1.6.1.6.7-.9 3.7-1.5 4.9zm19.5 6.3l-16-6.4c-.4-.1-.8-.1-1.1.1 1.4-2.9 2.2-5.2.5-6.6 0 0-.1 0-.1-.1-.1-.1-.8-.5-1.7-.5 0-.4-.2-.8-.3-1-.7-1.2-2.3-1.3-2.5-1.3h-.1c-.3 0-.7.1-1 .2 0-1-.2-1.8-.8-2.4-1-1-2.5-.7-2.9-.6-.3 0-.6.1-.8.2-.5-.9-1.1-1.3-1.7-1.6-1.1-.4-2.4-.2-3.7.7-1.1.8-2.4 2.5-3.2 4.7-.1 0-.2-.1-.4-.1l-3.2-1.6c-.1-.3-.2-.5-.5-.7-.3-.2-.7-.2-1-.1l-6.3-3.2 13.7-34.6c.4-.8.8-1.5 1.1-2.1 5.9 3.1 35.4 18.6 39.2 20.5-.5 7.5-1.4 14.7-2.1 20.2-.3 2.7-.6 5-.8 7l-4.3 9.3zm73.4 110.8c.3 1 .7 1.9 1 2.8-2 4.1-7.1 4.7-9.5 4.7-.3-.8-.7-1.7-1.1-2.4 2.5-.1 6.6-1 9.6-5.1zm8.2 15.1l2 1.5c2 1.5 2.5 4.3 2.6 5.5-.2.2-.5.6-.9 1-.2-.2-.4-.4-.7-.5-.5-.2-1.1 0-1.5.4l-6.9 7.1c-.3.3-.5.8-.4 1.2l.2 1.3c-4.4 3.9-8.3 6.5-11.6 7.9-7.5 3-12 2.1-13.6 1.5-.3-9 9.8-10.6 10.2-10.7.2 0 .4-.1.6-.2 3.1-1.9 4.4-8.3 4.7-10.8 1.3-.4 2.3-.3 3.2.1 1.5.7 2.1 2.5 2.1 2.5.1.4.3.7.7.9 1.9 1.1 3.4.8 4.3.3 3.1-1.5 4.2-6.6 4.4-8.2l.6-.8zm-2.6-1.5l-.7 1c-.1.2-.2.4-.2.6-.3 2.2-1.4 5.6-2.9 6.3-.1.1-.5.2-1.1 0-.4-1-1.4-2.7-3.4-3.7-1-.5-2-.7-3.1-.6-.2-1.4-.8-4.4-1.9-7.5 2.6-.1 7-.9 9.6-4.3 1 2.9 2 5.4 2.8 7.4.3.4.6.7.9.8zm44-125.8h.1-.1zm-2.9-1.6c0 .3.2.5.4.7.1 0 .3.2.6.4-.8.1-1.3-.4-1.4-.5v-.4l.4-.2zm.1 2.8c-.1.1-.2.1-.3.2l-.1-.6c.2.1.5.2.8.2l-.4.2zm5-2.2c.2-.1.3-.3.5-.5.2 0 .3 0 .5.1l-1 .4zm6.5-7.1c.2-1.3.2-2.3.2-2.4 0-.6-.5-1.1-1.1-1.1-.6 0-1.1.5-1.1 1.1 0 0-.1 3.6-1 6-.3.9-1.3 1-2 1 .4-1.3.7-3.3.3-5.8-.1-.6-.7-1-1.3-.9-.6.1-1 .7-.9 1.3.5 3.1-.4 5.4-.6 5.8-.4.6-.8.9-1.2 1-.2 0-.5 0-.7-.1.3-4.3-3-7.5-3.1-7.7-.4-.4-1.1-.4-1.6 0-.4.4-.4 1.1 0 1.6l.2.2c-1 .4-2.7 1.1-4.1 2.3l-1.1-1.2c-.8-1.6 1.9-7 4.1-10.4v-.1c2.5-1 7.7-2.5 12.9-.6 0 .2.1.3.2.5.3.1 4.2 5.2 1.9 9.5zm-2.4-12.6c-5.8-1.7-11.4.2-13.8 1.2l-.3-1.3c5.5-2.6 10.6-2.4 13.8-1.8l.3 1.9zM498.3 52.9c-.4-.4-1.1-.4-1.6 0-1.4 1.4-6.8 4.6-9.1 5.9-10.1.7-12-2.1-12.3-2.7.2-1.2 1-6.3.1-12.4-.9-6.4 1.7-12.6 1.8-12.6V31c.1-.3.2-.8.2-1.5 1.1.2 2.3 1.5 2.8 2.1.1.2.4.3.6.3.2 0 .3-.1.5-.2.3-.3.4-.7.1-1-.2-.3-2-2.4-3.9-2.6 0-1.4-.1-3-.1-4.1 2.8.4 3.2 3.1 3.3 3.4.1.6.5 1 1.1 1h.1c.6-.1 1-.6.9-1.2-.2-1.7-1.5-4.7-4.9-5.3 1.2-3.3 3.1-6 5.1-8 .3 0 .5-.1.7-.3.3-.3.5-.6.6-1 2.9-2.6 5.5-3.8 5.5-3.8.6-.2.8-.9.6-1.5-.2-.6-.9-.8-1.5-.6-.2.1-2.7 1.2-5.6 3.7-.7-1.2-1.4-2.9-1-4 .1-.3.3-.7 1.1-1 2.4-.9 4.6-.8 6.6-.6 1.7.1 3.3.2 4.9-.2l.9-.3c4.1-1.3 13.8-4.3 23.1 7 .6 1.2 4.5 9.7 2.4 17.4-2.3 8.3-4.9 12.5-13.2 21 0 0 0 .1-.1.1-.6.7-5.6 6.8-4.5 11.4.2.7.8 1.1 1.4 1.1h.1c-.1.2-.1.5 0 .8l1.8 4.6c0 .1.1.2.2.3-3.4 4.6-11.3 15.7-19.4 30.3-.5-3.9-1.3-7.9-1.7-9.9.2 0 .4-.1.6-.3l3.1-2.8c.4.6.7 1.1 1 1.5.2.3.5.4.9.4.2 0 .5-.1.7-.2.5-.4.6-1.1.2-1.5-1.6-2.1-5-7.9-6.3-10.3 3.1-1.6 12.3-6.4 16.6-9.7.5-.4.6-1.1.2-1.5-.4-.5-1.1-.6-1.5-.2-4.5 3.4-15 8.8-17 9.8l-3.8-6.8c-.2-.8-.7-3.8-1.1-6.1 1.4.3 3.1.4 5.1.4 1 0 2.1 0 3.3-.1.2 0 .3-.1.5-.1.8-.5 7.9-4.5 9.8-6.4.6-.5.6-1.2.1-1.6zm-18.7 16.2l3.8 6.8c.2.4.6.6 1 .6h.1c.9 1.6 2.6 4.5 4.1 6.9l-2.9 2.7-3.6-.8-1.6-4.1 3-2.8c.4-.4.5-1.1.1-1.6-.4-.4-1.1-.5-1.6-.1l-4.6 4.2c.9-5.5 1.7-9.6 2.2-11.8zm-5.6 31.7c3.2-7.1 7.5-10.9 7.6-10.9.5-.4.5-1.1.1-1.6s-1.1-.5-1.6-.1c-.1.1-2.5 2.2-5.1 6.2.6-3.7 1.2-7.1 1.7-10.2.2 0 .3-.1.5-.2l1.5-1.3 1.5 3.9c.1.3.4.6.8.7l2.8.6c.4 1.6 1.9 8.6 2.2 13.8-6.1 11.4-12.2 24.7-16.4 38.6.8-13.2 2.5-27.2 4.4-39.5zm38.7 139.7c-2.2 6.4-2.8 16.9-2.9 21.1.4 5.5-3.2 5.8-4.5 6.3-4 1.3-9.6 3.3-13.7 4.4-2.3 1.3-6.3.1-7.2 0-6.4-1.6-16.4-5.8-21.3-8.1 1.2-7.8 8.3-38.2 8.4-38.5.1-.6-.2-1.2-.8-1.3-.6-.1-1.2.2-1.3.8-.1.5-4.2 20.7-4.7 21.2-1-6.5-3.7-25.2-4.1-28.7 1 .5 1.9.9 2.5 1.1.5.2 2.5.7 2.8-.3.1-.2.2-.4.2-.5.1-1.4 2.4-12.7 2.9-15.2.5 2.6 1.7 8.1 2 9.6 1.1 4.6 1.9 7.7 2 8.2.1.4.4.8.9 1 .1 0 1.3.5 3.6 1.2 1.9.8 7.7 1.8 7.7 1.8 3.6.6 8 1.1 12.8 1.1 4.7 0 9.9-.5 15.3-1.6 1.8-.5 4.9-1.3 6.2-1.3-.2 1.7-3 7.9-3 7.9-1.5 3.2-2.8 6.9-3.8 9.8zm20.1-104c-2.1 11.9-.3 68.3 0 76.2-26.1 16.3-52.8 7.9-57.3 6.3-1.4-5.5-9.8-39.9-7.8-56.1 5.2-42.3 35.8-85.1 42.4-93.9l.6 1-.2 1.2c-.1.7.2 1.4.9 1.7.2.1 22.1 9.4 26.8 18.8.3.6.9.9 1.5.8-.5.4-.7 1.2-.3 1.8.2.4 21.4 39.4 26 51.6.4 1.3 9.7 32.2 11.9 43.2-.2-.1-.5-.1-.8-.2-.2-.2-.5-.3-.9-.2-3.7-.7-9.5-1-15.7 2.1-4.6-14.9-11.7-43.4-11.7-43.7-.2-.8-1-1.3-1.8-1.1-.4.1-.7.4-.9.7-7.3-10.2-21.1-30.3-21.3-30.5-.5-.7-1.4-.8-2-.4-.7.5-.8 1.4-.4 2 .1.2 6.1 8.8 12.2 17.6-.7.2-1.1.6-1.2 1.1z"/><path class="st2" d="M474.1 77.9c-5.1 13.6-10 28.9-9.6 30.8l2.4 5.3c.2.6 0 1.2-.6 1.5-.1.1-.3.1-.4.1-.4 0-.8-.2-1-.7l-2.4-5.4c-1.3-2.8 6.2-23.6 9.5-32.5.2-.6.8-.9 1.4-.6.6.3.9.9.7 1.5zM464.3 116.9c-1.6 2.1-3 4.5-2.9 5.1v.2c0 .2 1.6 23.7 3.1 31.1.1.6-.3 1.2-.9 1.3h-.2c-.5 0-1-.4-1.1-.9-1.5-7.4-3-29.4-3.1-31.3-.4-1.8 1.9-5.1 3.3-7 .4-.5 1.1-.6 1.5-.2.6.5.7 1.2.3 1.7zM490.2 119.4c-.3-.5 0-1.2.5-1.5l8.5-4.2c1.4-4.2 5.6-25.4 7.7-36.4.1-.6.7-1 1.3-.9.6.1 1 .7.9 1.3-.3 1.4-6.4 33.3-8 37.2-.1.3-.3.5-.5.6l-8.9 4.4c-.2.1-.3.1-.5.1-.4 0-.8-.2-1-.6zM498.3 129.5c-.2.2-18.8 16.7-24.2 27.2-.2.4-.6.6-1 .6-.2 0-.3 0-.5-.1-.5-.3-.8-.9-.5-1.5 5.2-10.1 21.6-25 24.3-27.5-.1-3.3-1.6-7.2-1.6-7.2-.2-.6.1-1.2.6-1.4.6-.2 1.2.1 1.4.6.1.2 1.8 4.6 1.8 8.5.1.3-.1.6-.3.8zM498.2 31.5c-.2.1-.4.2-.6.2-.4 0-.7-.2-.9-.5 0 0-1.3-1.9-3.3-2.6-1.5-.6-3.8.3-4.5.7-.5.3-1.2.1-1.5-.5-.3-.5-.1-1.2.5-1.5.1-.1 3.5-1.8 6.3-.8 2.6 1 4.3 3.4 4.3 3.5.3.5.2 1.1-.3 1.5zM494.8 34.2c.3.3.3.8 0 1-.1.1-.3.2-.5.2s-.4-.1-.5-.2c-2.7-2.9-5.5-1.9-5.6-1.9-.4.1-.8-.1-.9-.4-.1-.4.1-.8.4-.9.1-.1 3.7-1.4 7.1 2.2zM475.8 39.3v-.1c0-1.9 3.5-5.2 4.6-6.1.3-.3.8-.2 1 .1.3.3.2.8-.1 1-1.9 1.7-4 4-4.1 4.9.1.3.8 1.4 3.7 1.7.4 0 .7.4.7.8s-.4.7-.7.7h-.1c-4.4-.5-5-2.8-5-3zM488.1 45.5c.1.4-.2.8-.6.9-1.1.2-3.7 1-3.8 1h-.2-.1c-1.8-.1-6-1.8-6.5-2-.4-.2-.6-.6-.4-1 .2-.4.6-.6 1-.4 1.2.5 4.5 1.7 5.9 1.9.6-.2 2.7-.7 3.7-1 .5-.1.9.2 1 .6z"/><path class="st2" d="M483.4 50.8c.1.4-.2.8-.6.9-.3 0-.5.1-.8.1-2 0-4.3-1.2-4.5-1.3-.2-.1-.3-.3-.4-.5-.1-.2 0-.4.1-.6.4-.6.1-2-.2-2.6-.2-.4 0-.8.4-1 .4-.1.8 0 1 .4.1.2.7 1.8.4 3.2 1 .4 2.6 1 3.7.8.5 0 .8.2.9.6zm2.3-3.6l-2 2.6c-.2.3-.2.8.1 1 .1.1.3.2.4.2.2 0 .4-.1.6-.3l2-2.6c.2-.3.2-.8-.1-1-.3-.3-.8-.2-1 .1zM431.6 140c0-.4-.3-.7-.8-.7-.4 0-.7.3-.7.8 0 .3.2 7.2 3.8 12.2.1.2.4.3.6.3.1 0 .3 0 .4-.1.3-.2.4-.7.2-1-3.3-4.7-3.5-11.5-3.5-11.5zM438 148.4c-.4 0-.7-.3-.7-.7.1-6.7-1.2-15.2-1.2-15.3-.1-.4.2-.8.6-.8.4-.1.8.2.8.6 0 .1 1.3 8.7 1.2 15.5 0 .4-.3.7-.7.7zM481 292c-.8.2-1.3 1-1.1 1.8 0 .2 4 16.9-11.5 36.7l-.1.1-10.7 17.7c-4.3-4-9.1-4.9-12-5.1 3.5-12.3 14.6-43.1 14.7-43.4.3-.8-.1-1.6-.9-1.9-.8-.3-1.6.1-1.9.9-.1.3-11.5 31.8-14.9 43.9-.1.2-.1.4 0 .6-.2.1-.4.3-.5.5-3.9 8.9-4.8 11.2-4.9 11.9-.9-.1-1.5 0-1.6 0-.5.1-.8.2-1 .6-.2.2-1.2 1-4.2 2.3-2.8 1.2-8-.3-9.8-1-5.4-2.9-9.2-2-11.4-.6-2.9 1.7-4.5 4.9-4.5 5.8 0 .6.3 1.1.9 1.3l24.4 11.2c.4.2.9.2 1.3 0 2.1-1.1 2.9-1.1 3-1 1.1.1 3.4 1.4 5.1 2.4l-.5 1c-.2.4-.2.8-.1 1.2.1.4.4.7.8.9l6.2 2.9c.2.1.4.1.6.1.5 0 1-.3 1.2-.7.1-.1 1.6-2.7 3.7-6.8 2.4-4.7.1-9.7 0-10-.1-.2-.2-.4-.4-.5l.3-.3 7.3-12c.4.2.8.1 1.1-.1.5-.4.5-1.1.2-1.5l-.2-.2 11.1-18.3c16.3-20.9 12.1-38.4 12-39.1-.1-1-.9-1.5-1.7-1.3zm-26 60.8c-3.7-3.9-9.3-4.8-12-5.1.4-.8.7-1.6 1-2.3 1.8-.1 7.5.1 12.5 4.9l-1.5 2.5zm-6.2 21.1c-1.2 2.5-2.3 4.4-2.9 5.5l-3.6-1.6.4-.8c.4-.7.2-1.5-.4-1.9-.5-.3-4.9-3.4-7.5-3.7-1-.1-2.3.2-4 1l-22.4-10.3c.6-.9 1.7-2.3 3.4-3 2.2-.9 4.8-.5 7.7 1.2.1 0 .1.1.2.1.8.3 7.7 2.9 12.1 1 2.8-1.2 4.1-2.1 4.8-2.7.7 0 2.2.1 3.1 1 .8.8 1.2 2.1 1 3.9v.2c0 .3.2 2.5 1.9 3.9.7.5 1.9 1.1 3.6.8.7-.1 1.1-.2 1.4-.2.1 0 .2 0 .2-.1l1.4-.4c.3 1.4.7 3.8-.4 6.1zm0-11c-.3.6-.3 1.3.2 1.8l-2 .6c-.3 0-.7.1-1.3.2-.8.1-1.2-.1-1.3-.2-.5-.4-.7-1.3-.8-1.7.2-2.6-.5-4.7-1.9-6.1-.7-.7-1.5-1.1-2.2-1.4.1-.6 1.3-3.3 2.6-6.3 2.1.1 8.2.7 11.8 4.9l-5.1 8.2z"/><path class="st3" d="M493.4 242.1c0-2.5-1.7-4.5-3.9-4.5-2.1 0-3.9 2-3.9 4.5s1.7 4.5 3.9 4.5c2.1 0 3.9-2.1 3.9-4.5zm-6.3 0c0-1.7 1.1-3 2.4-3 1.3 0 2.4 1.4 2.4 3s-1.1 3-2.4 3c-1.3 0-2.4-1.4-2.4-3zM492.4 255.7c-2 0-3.6 1.6-3.6 3.6s1.6 3.6 3.6 3.6 3.6-1.6 3.6-3.6c0-1.9-1.6-3.6-3.6-3.6zm0 5.9c-1.2 0-2.2-1-2.2-2.2 0-1.2 1-2.2 2.2-2.2 1.2 0 2.2 1 2.2 2.2 0 1.2-1 2.2-2.2 2.2zM505 245.1c-1.9 0-3.5 1.6-3.5 3.5s1.6 3.5 3.5 3.5 3.5-1.6 3.5-3.5c0-2-1.6-3.5-3.5-3.5zm0 5.4c-1.1 0-2-.9-2-2s.9-2 2-2 2 .9 2 2-.9 2-2 2zM474.3 235.7c-2 0-3.5 2.1-3.5 4.7s1.6 4.7 3.5 4.7c2 0 3.5-2.1 3.5-4.7s-1.5-4.7-3.5-4.7zm0 7.8c-1.1 0-2.1-1.5-2.1-3.2 0-1.7 1-3.2 2.1-3.2s2.1 1.5 2.1 3.2c0 1.8-1 3.2-2.1 3.2zM469.1 254.4c-2.1 0-3.9 1.7-3.9 3.9 0 2.1 1.7 3.9 3.9 3.9 2.1 0 3.9-1.7 3.9-3.9s-1.8-3.9-3.9-3.9zm0 6.2c-1.3 0-2.4-1.1-2.4-2.4 0-1.3 1.1-2.4 2.4-2.4 1.3 0 2.4 1.1 2.4 2.4 0 1.4-1.1 2.4-2.4 2.4zM481.4 248.9c-2 0-3.6 2-3.6 4.4 0 2.4 1.6 4.4 3.6 4.4s3.6-2 3.6-4.4c0-2.4-1.6-4.4-3.6-4.4zm0 7.4c-1.2 0-2.2-1.3-2.2-2.9 0-1.6 1-2.9 2.2-2.9 1.2 0 2.2 1.3 2.2 2.9-.1 1.6-1 2.9-2.2 2.9z"/><path class="st2" d="M604.4 253.1l-3.2-12.1c1.7-1 2.8-1.8 3-2 .2-.3.3-.7.1-1-.9-2.6-8.7-25.4-11.5-28.1-3.2-3-5-2.1-5.3-1.9-.5.3-.6 1-.3 1.5s.9.6 1.4.4c.3 0 1.2.1 2.7 1.6 1.8 1.7 7.4 16.8 10.7 26.5-.5.3-1.2.8-2.2 1.3h-.2c-.3.1-.5.2-.6.5-6.9 4-22.5 12.3-33.4 18.1-2.5-5.6-12.7-27.5-13.1-28.5-.1-.3-.4-.5-.8-.6l-3-.6c-.6-.1-1.2.3-1.3.9-.1.6.3 1.2.9 1.3l2.5.5c.7 1.5 2.7 5.9 5 10.8-.1.2-.1.5-.1.8l9.2 30.8c-1.3-.5-2.8-1.1-4-1.3l-4.9-23c-.1-.6-.7-1-1.3-.8-.6.1-1 .7-.8 1.3l4.8 22.6c-1.2.3-2.6.9-3.7 1.4-1.2-8.9-8.2-44.1-8.6-45.7-.1-.6-.7-1-1.3-.9-.6.1-1 .7-.9 1.3 3 14.9 8.6 43.8 8.7 47 0 .4.2.7.6.9.2.1.4.1.5.1s.4 0 .5-.1c1.4-.8 4.1-2.1 5.4-2.1 1.3 0 4.5 1.3 6.2 2.1h.8c.1 0 .2-.1.2-.1l36.7-21.7c.5-.2.7-.7.6-1.2zm-17.8-2.7c-.4 1.1-1.6 2.1-3.6 3-1.9.8-2.5.6-2.7.5-.3-.2-.3-.5-.3-.6 0-.2-.1-.4-.2-.6 2.3-1.2 4.6-2.5 6.9-3.7.1.5 0 1-.1 1.4zm-19.4 23l-5.8-19.2c1.3 2.9 2.3 5 2.5 5.6.1.3.3.5.6.6.1 0 .3.1.4.1.2 0 .4 0 .5-.1 3.6-1.9 7.9-4.2 12.3-6.6.1.5.4 1.4 1.2 2 .5.3 1.1.5 1.8.5.9 0 1.9-.3 3-.8 2.6-1.1 4.2-2.6 4.8-4.3.4-1 .4-2.1 0-3.2 4.1-2.2 7.8-4.3 10.5-5.9l2.8 10.7-34.6 20.6z"/><path class="st2" d="M556.2 219.5l-9.5 4.9c-.5.3-.8.9-.5 1.5.2.4.6.6 1 .6.2 0 .3 0 .5-.1l9.5-4.9c.5-.3.8-.9.5-1.5-.3-.5-1-.8-1.5-.5zM472 166c-1.7-.2-3.3 1.5-3.5 3.7-.2 2.2 1 4.2 2.8 4.3h.2c1.6 0 3.1-1.6 3.3-3.7.2-2.2-1.1-4.1-2.8-4.3zm1.3 4.2c-.1 1.4-1 2.5-1.9 2.4-.9-.1-1.6-1.3-1.5-2.7.1-1.3 1-2.4 1.8-2.4h.1c1 .1 1.6 1.3 1.5 2.7z"/><path class="st4" d="M148.5 501.5h302.7m105.6 0h28.1m-45.5 0h10.7m-92.2 0h4m131 0h5.3m-129.6 0h64.1m-432.3 0h28.1m-45.5 0h10.7m-92.2 0h4m131 0h5.3m-129.6 0h64.1"/></g><g id="Слой_2"><path class="st5" d="M323.4 439.7v.6c-2.7-.3-5.2-.2-7.6-1.3-3.3-1.4-4.7-4.3-8.4-4.9 8.9-1.9 16-.7 16 5.6z"/><path class="st4" d="M91 409.9l.6-85.4 46.6 9.4-.5 57.3-.1 13c-1.4 2-4.2 3.1-6.4 4.6 0 0-.1 0-.1.1v-.1c-.5-3.5-2.7-4.9-5.7-4.9-2.1 0-4.5.6-7.1 1.8-4.1 1.8-8.5 4.6-12.1 7.8-4.7 4.1-8.1 8.7-7.9 12-2.4.7-5 1.9-7.3 3l.1-17.1v-1.5z"/><path class="st5" d="M131 409.5c-2.6.1-5.3-.5-7.2-.7-.6-2-3.2-3.1-5.7-3.2 2.6-1.1 5-1.8 7.1-1.8 3.1.1 5.3 2.2 5.8 5.7z"/><path class="st4" d="M2.6 275.4l78 14.8 15.4 3L276.2 329v13.5l-4.5-.9-6.9-1.3-8-1.5-.5-.1-160.4-32.1-15.4-3-52.8-10.1-10.4-2-5-1-10.6-2c0-.1-.9-6.7.9-13.1z"/><path class="st4" d="M80.5 303.7l15.4 3 160.4 32.1.5.1 8 1.5V465.3c-2.4-.5-5.1-.6-7.7-1.2h-.8V360l-118.2-25.9-46.6-9.4-.5 85.2v1.5l-.1 17.1s-.1 0-.1.1c-2.8-1.1-6.6-1.2-9.6-1.9v-1c0-13-16.1-16.9-25.2-19.3-4-1.2-15-4.1-18.3-4.5-8.2-.9-13.9 1.8-15.4 13.3 0 0-.1 0-.2.1-1.4-.6-3.1-1.1-4.7-1.6v-122l10.4 2 52.7 10z"/><path class="st5" d="M37.6 402c-4 1.5-8 7-6.9 11-2 0-7.5 2.8-8.5 3.2 1.5-11.6 7.3-15.1 15.4-14.2z"/><path class="st4" d="M292.2 289.1l13.4 2.5 45.7 8.3-.4.2-26.6 10.4-47.7 18.7-.4-.1-180.3-35.9-15.4-3-78-14.9-.6-.1 44.3-9.2 57.1-11.9 17.8 3.3M134.5 259.9l112.3 20.8M264.9 361.6v-21.3l6.9 1.3 4.5.9 48.3-19.7 8.5-3.5v115.3c-2.5 2.1-6 4.3-8.8 5.8-.3 0-.6-.1-.8-.1v-.6c0-6.3-7.1-7.4-16.1-5.6-3.1.6-6.3 1.6-9.5 2.8-13.9 5.3-27.8 15.4-26 24.3-1.6 1-4.3 3.2-5.9 4.3-.3-.1-.7-.2-1-.2V361.6z"/><path class="st4" d="M276.2 342.5V329l.4.1 47.7-18.7 26.6-10.4c-.8 8-1.2 12.4-1.2 12.4l-9.7 4-6.9 2.8-8.5 3.5-48.4 19.8zM123.9 250.5c-10.8-1.8-21.3-3.6-29.2-5-1.3-9.4-3.1-19-5.1-28.6-.5-2.3-1-4.5-1.5-6.8-3.6-16.2-7.8-32.2-11.9-47.2 14 1.8 86.7 7.9 116.3 11.3-.2 3.3-16.4 83.8-16.6 83.8-6.7-1.2-24.4-2.7-34.4-4.4-1.9-.3-3.6-.6-5.6-.9M116.9 268.2c-1.3.2-2.6.3-3.7.5-.6.1-1.3.3-2.1.6-2.7.9-6.4 2.6-9.1 4.6-1 .8-1.9 1.6-2.6 2.4-1.2 1.6-1.6 3.4-.1 5 .3.4.8.7 1.3 1.1 4.2 2.8 9.6 4.5 15.3 5.3 8.6 1.3 17.9.8 24.9-.2 5.7-.8 21.6-5.2 13-13-.2-.2-.4-.4-.7-.6-.2-.2-.5-.4-.7-.5-2.5-1.7-5.8-2.8-9.2-3.5-3.5-.8-7.1-1.2-10.1-1.4m20.8 6"/><path d="M135.3 252.4c0 .3-.1.7-.2 1 0 .1-.1.3-.1.4-.2 1.1-.5 2.4-.7 3.7 0 .3-.1.6-.2.9-.5 2.8-2.2 9.7-2.2 9.7-.7 2.1-1.5 3.9-2.6 5.5-1.5 1.5-4.1 2.6-6.4 2.9h-.3c-2.3-1.4-5.6-2.5-8.3-3.4 1.1-1.6 2.2-3.3 3.1-5.1.5-.8.9-1.7 1.3-2.6 1.2-2.4 2.2-4.8 3.1-7.3.1-.3.2-.6.4-1l.9-2.7c.4-1.3.8-2.6 1.1-3.9 1.1-4.2 1.8-8.3 2.3-12.4.3-5.1-.7-12.4.9-17.1.1-.2.1-.3.2-.5 1.9-3.8 4.2 1 5.6 4.1 4.3 8.8 3.9 18.8 2.1 27.8z" fill="none" stroke="#00d6b3" stroke-width="2.2" stroke-linecap="round" stroke-linejoin="round" stroke-miterlimit="10"/><g><path d="M176.7 289.5c.5-3 1.9-5 4.5-6 1.2-.5 3.4-.6 4.5.7 0 .5 0 .9-.1 1.5 0 .5 0 1.1-.1 1.6h-.2c-2.5-2.1-5.3 1.4-5.2 4.3.2 3 2.9 3.9 5.1 4.5 0 1.2-.1 2.3-.1 3.1h-.3c-4-.7-9-4.3-8.1-9.7z" fill="none" stroke="#00d6b3" stroke-width="1.5" stroke-linecap="round" stroke-linejoin="round" stroke-miterlimit="10"/><path class="st8" d="M213.9 282c-.1 6.1-.8 18.6-.8 19.1 0 2.3-6.1 5-13.8 5-2.4 0-4.6-.2-6.6-.6-4.5-1-7.5-2.7-7.5-4.3 0-.1 0-.8.1-1.9 0-.8 0-1.9.1-3.1.1-2.6.2-5.9.3-8.8 0-.6 0-4.7.1-5.3h.1c0 2.3 6.3 3 14 3 3.3 0 6.3-.3 8.6-.9 3.2-.9 5.4-2.2 5.4-2.2z"/><path class="st3" d="M215 281.8c0-.1 0-.1 0 0v-.1c0-2.5-6.8-4.5-15.1-4.5-7.9 0-14.3 1.8-15.1 4.1v.7c.2.9 1.3 1.8 3 2.5 2.8 1.1 7.1 1.8 12.1 1.8 3.2 0 6.1-.3 8.6-.8 1.3-.3 2.5-.6 3.4-.9 1.8-.9 3-1.8 3.1-2.8zm-3.8-.3c0 .7-1.3 1.3-3.5 1.7-2 .4-4.7.7-7.7.7-3.1 0-5.9-.3-7.9-.7-2.1-.4-3.3-1-3.3-1.7 0-1.3 5-2.4 11.2-2.4 6.1 0 11.2 1.1 11.2 2.4z"/></g><g id="XMLID_128_"><path class="st9" d="M268.3 277.5c.1.3.2.6.4.8 0-.3-.1-.6-.2-.8h-.2zM267.9 276.2c.1.4.3.8.5 1.2h.2l-.3-1.2h-.4z"/><path d="M269.5 282.6c0 .2.1.4.1.6h.3c-.1-.2-.3-.4-.4-.6z" fill="#73712c"/><path class="st8" d="M269.8 281.1c0-.2-.1-.4-.2-.6-.3-.8-.6-1.5-.9-2.3-.1-.3-.2-.6-.4-.8-.2-.4-.3-.8-.5-1.2h.4c-.1-.4-.2-.7-.3-1-3.4-12.5-3.3-24.1-3.1-36.5-.1-3.7-.3-7.5-1-11.1-3-15.4-6.2-30.5-16.7-42.4 0 0 0-.1-.1-.1.3 3.5-1.3 7.3-1.3 11.1-.3 4.9-.6 9.7 0 14.6.5 8.4 3.2 16.8 4.9 25.2 1.1 6.1 3 11.9 5.3 17.6 3.1 7.7 7 15.1 10.5 22.7l.6 1.2c.2.5.5 1 .7 1.5.3.5.5 1.1.7 1.6.3.7.6 1.3 1 2 .1.2.3.5.4.7h.3c0-.8-.1-1.5-.3-2.2z"/><path class="st5" d="M291.8 288.3c-2.6 7.9-6.3 18.9-6.3 19.1 0 2.3-6.8 5.1-15.1 5.1s-14.9-2.8-14.9-5.1c0 0-.3-1-.8-2.6-1.2-3.8-3.4-10.9-5.1-16.5 3.8 1.4 11.8 2.4 21 2.4 5.3 0 10.1-.3 14-.8 3.1-.5 5.5-1 7.2-1.6z"/><path class="st8" d="M291.6 261.7c-1.6 5.2-3.8 10.8-7 15.4-.3.4-.5.7-.8 1.1-.7.9-1.5 1.8-2.4 2.6-.9.9-1.8 1.6-2.8 2.3-2 .1-4.2.2-6.5.2v-.1c.3-.6.7-1.2 1-1.7.1-.2.3-.5.4-.8.6-1 1.1-2.1 1.6-3.1l.6-1.2c2.8-5.6 5.3-11.6 7.6-17.5 1.1-1.5 2.3-2.9 3.4-3.9 2-2.1 3.4-3 4.3-3 2.5-.2 1.9 5.4.6 9.7z"/><path class="st2" d="M295.7 280.4v.2c-.3 1.2-3.3 2.3-8 3-4.4.7-10.2 1.1-16.6 1.1H269c-12.2-.2-21.9-1.9-22.6-4.1v-.2c0-1.7 5.6-3.2 13.8-3.9l1.2 1.2c-7 .5-11.8 1.5-11.8 2.7 0 .5.8.9 2.3 1.4 2.9.8 8.3 1.4 14.8 1.6h5.8c2.4 0 4.7-.1 6.8-.2 3.9-.2 7.3-.6 9.7-1.1 2.5-.5 4-1.1 4-1.8 0-1-3.2-1.8-8.2-2.4.3-.4.6-.7.8-1.1 6.1.8 10.1 2.1 10.1 3.6z"/><path class="st8" d="M269.6 283.2h-3.1c-.7-.9-1.5-1.7-2.3-2.6-.9-.9-1.8-1.9-2.7-2.8-.4-.4-.7-.8-1.1-1.2-6.6-6.7-13.7-13.7-17.3-22.3-1.3-3.1-5.6-13.6-2.8-15.4.7-.4 1.7-.3 3.4.5 6 3.1 9 8.9 12.4 14.1 3.1 7.7 7 15.1 10.5 22.7l.6 1.2c.2.5.5 1 .7 1.5.3.5.5 1.1.7 1.6.3.7.6 1.3 1 2-.1.3 0 .5 0 .7zM279.1 239.2c0 4.7-.6 9.4-1.4 14-.7 3.8-1.5 7.6-2.4 11.4-.7 2.8-1.6 6.3-2.3 9.7-.1.6-.2 1.2-.4 1.9-.1.4-.1.8-.2 1.2-.2 1.1-.3 2.1-.4 3.1 0 .6-.1 1.2-.1 1.8v.7s0 .1-.1.1H270.1c-.1-.7-.2-1.4-.4-2.1 0-.2-.1-.4-.2-.6-.3-.8-.6-1.5-.9-2.3 0-.3-.1-.6-.2-.8l-.3-1.2c-.1-.4-.2-.7-.3-1-3.4-12.5-3.3-24.1-3.1-36.5 0-3.5.1-7 .1-10.6 0-7.3-.3-14.9.5-22.2.6-6.5.6-17.3 5.7-22.2.2.2.3.4.5.6 2 2.7 2 6.2 2.8 9.2 2.4 12.3 4.1 24 4.5 36.2.3 3.2.4 6.4.3 9.6z"/><path class="st5" d="M294.2 280.5c-.2.8-1.2 3.9-2.4 7.8-1.6.6-4.1 1.1-7.1 1.5-3.9.5-8.7.8-14 .8-9.3 0-17.3-1-21-2.4-1.1-3.6-2-6.6-2.3-7.8.6 2.1 9.8 3.7 21.4 3.9h2c6.1 0 11.6-.4 15.7-1.1 4.4-.7 7.3-1.7 7.6-2.9l.1.2z"/><path class="st8" d="M293.7 225.4c-1.4 7.3-3 13.8-5.4 20.8-1.7 4.1-3.3 8.3-5 12.6-2.4 5.9-4.8 11.8-7.6 17.5l-.6 1.2c-.5 1-1.1 2.1-1.6 3.1-.1.3-.3.5-.4.8-.3.6-.6 1.2-1 1.7v-.7c0-.6 0-1.2.1-1.8.1-1 .2-2 .4-3.1.1-.4.1-.8.2-1.2.1-.6.2-1.2.4-1.9.7-3.4 1.6-6.9 2.3-9.7.9-3.8 4.3-19.1 3.8-25.4-.3-3.2 0-6.4-.1-9.5 0-.1.1-.2.1-.2 3.8-7.9 8.1-18.9 15.4-23.8v.1c2.3 5.8.1 13.6-1 19.5z"/></g></g><g id="Слой_3"><path class="st11" d="M134.5 433.4c-.4-.9-.9-1.8-1.5-2.7-.3-.4-.7-.8-1.1-1.1-.1 0-.1 0-.2-.1 0 .1 0 .3-.1.5-1 1.9-1.5 3.9-1.5 6.3 1.5-1.3 3.1-2.3 4.4-2.9zM127.2 447.8c-.2.7-.5 1.3-.6 2 .5.5 1 .9 1.5 1.4.3.3.4.9.1 1.2l-.1.1c.2.2.4.4.4.7 0 .3-.1.6-.4.7-.1.1-.2.1-.3.1-.2.3-.5.5-.9.5l-.4-.1c.6 2.1 2 4 4.4 5.9.3.3.7.5 1.2.8l.3.2c.1.1.3.2.4.3 1.2.4 2.2 1 3.3 1.7 1.1.6 2.1 1.3 3.3 1.6 2.9.9 6.2 1.2 9.2.6.3 0 .6-.1.8-.2-1-.6-2.1-1.1-3.1-1.7-2.1-1.1-4.2-2.2-6.2-3.5-.3-.2-.5-.6-.3-1 .1-.2.3-.4.5-.4v-.3c.1-.2.2-.3.3-.4-.1-.1-.1-.3-.1-.5 0-.4.4-.8.8-.8 5.6.1 11.5 1.1 17.6 2.9.2-.3.4-.5.6-.8.8-1 1.7-2 2.7-2.9.1 0 .1-.1.2-.2.3-.2.7-.2 1 0 .3.2.5.6.5.9-.2 1.4-.9 2.7-2.1 4.2.1.2.1.4 0 .6-.1.5-.6.7-1.1.6h-.1c-.7.7-1.5 1.4-2.5 2.1.8.4 1.5.7 2.2 1.1.7.4 1.4.7 2.1 1.1.3.2.6.3.9.5.4-.4.8-.7 1.3-.9 1.9-1 4-1.4 6.1-1.7 1.5-.3 3.1-.6 4.5-1.1-.3-2.7 1.9-6.1 3.5-7.7 1.2-1.2 2.8-2.4 4.5-3.3-1.8-.6-3.1-1.8-4-3.5-.4-.8-.7-1.8-.9-3.1-.3-2.4.2-4.9.9-7.4v-.1c.3-.6.5-1.2.7-1.8.2-.7.4-1.3.8-2 .5-.9 1-1.9 1.7-2.9 2.5-3.3 5.8-5.5 9.2-6.1.3-.1.6-.1.9-.1 4.2-.4 8 1.4 9.7 4.8.2.5.1 1-.3 1.3-.4.3-.9.2-1.3-.1-1.9-2-4.2-3-6.7-3-.8 0-1.6.1-2.4.3-2.1.6-4.1 1.8-5.7 3.6-.7.7-1.3 1.5-1.8 2.3-.1.2-.2.3-.3.5-.2.3-.4.7-.5 1-1.3 2.6-2 5.5-1.9 7.9 0 .9.1 1.8.4 2.5.1.2.1.4.2.6 1.2 2.8 4.1 3.2 8.1 2.9.7-.1 1.4-.2 2.1-.2H192.9c.1 0 .3.1.4.2.2.1.4.4.4.7 0 .3-.2.6-.5.7h-.1c-.1.1-.2.1-.3.2h-.1c-.1 0-.2.1-.2.1-.1 0-.1.1-.2.1-.7.3-1.5.5-2.3.7-.8.2-1.5.4-2.2.7-1.8.8-3.3 1.6-4.6 2.5-1.7 1.2-3 2.6-3.8 4l-.3.6c-.2.5-.4 1-.5 1.6.1 0 .2-.1.3-.1l.6-.3c2.6-1.3 5.3-2.9 8.1-5 3.3-2.4 6.6-5.4 10.2-9.2l.9-.9c2-2.1 4.2-4.4 5.5-7l.3-.6v-.1c.2-.5.4-1 .5-1.5.1-.7.2-1.4.2-2.1 0-.6.4-1.1 1-1.1h.1c.6 0 1 .4 1.1 1v.7c0 .7 0 1.5-.2 2.2-.3 1.9-1.2 3.8-2.6 5.9-.6.8-1.2 1.7-2.1 2.7-.6.7-1.2 1.4-1.9 2.1-1.6 1.7-3.2 3.4-5 5-.8.8-1.7 1.5-2.7 2.3l-1.5 1.2c-1.6 1.2-3.3 2.4-5 3.4-1.3.8-2.7 1.5-4.2 2.3-1.2.6-2.5 1.2-3.8 1.7-.1.1-.2.1-.4.1-.3.1-.8.3-1.2.5-2 .7-4.1 1.4-6.2 1.9-.7.2-1.4.4-2.2.5-2.8.6-3.5 1.4-3.7 2-.2.8.5 1.7 1.1 2.4 1.2 1.3 4.3 1.1 5.3 1 .6 0 1.1-.1 1.7-.2 2.2-.3 4.4-1 6-1.6.6-.2 1.1-.4 1.7-.6 1.4-.6 2.9-1.2 4.3-2 1.6-.8 3.1-1.7 4.7-2.8l2.1-1.5c.9-.7 1.9-1.4 2.7-2.1 1.7-1.4 3.3-2.9 4.9-4.6 1.5-1.6 3.1-3.4 4.6-5.3 1.3-1.7 2.6-3.5 4-5.6.5-.7.9-1.4 1.4-2.1.7-1.3 1.1-2.9 1.3-4.5.1-1.5 0-3-.3-4.6-.5-2.5-1.7-4.3-3.4-6.3 0 .1-.1.2-.1.2-.2.4-.7.7-1.1.6-.5-.1-.8-.5-.8-1s.1-1 .1-1.5c0-.2 0-.4.1-.5v-.3c-.1-.2-.2-.4-.2-.6-.2-7.2-3.3-12.6-9-15.8-1.3-.8-2.7-1.4-4.2-1.8-3.2-1-6.6-1.4-10.2-1.1-1.5.1-3.1.3-4.6.7-2.2.5-4.2 1.2-6.1 2.3-1.3.7-2.6 1.6-3.8 2.7-1.7 1.5-3.4 3.3-5.2 5.5l-.9 1.2-1.9 2.5-4.1 5.6c-1 1.4-2 2.7-3 4.1-.3.5-.7.9-1 1.4.5.3 1 .5 1.4.9l.1.1.2.2c.3-.2.5-.4.8-.6 1.7-1.2 3.9-2.1 6.4-2.7 1.3-.3 3-.7 4.6-.6 1.3.1 2.4.5 3.1 1.2.8.7 1.2 1.7 1.4 2.8.2 1.6-.1 3.2-.6 4.8-.1.4-.2.8-.4 1.2-1.1 3.5-2.4 6-4.3 7.8-.2.2-.4.2-.6.2-.2 0-.4-.1-.5-.2-.3-.2-.5-.7-.3-1 0-.1.1-.2.1-.3.4-.9.9-1.8 1.3-2.7.5-.9.9-1.8 1.3-2.7.2-.4.3-.8.5-1.2 0-.5.1-.9.1-1.3v-.1c0-.5-.3-1-.8-1.5-.8-.8-2.1-1.1-3.4-1-1.4.1-2.6.8-3.9 1.6-.3.2-.6.3-.8.5-.4.2-.7.4-1.1.6-.5.3-1 .6-1.5.8l-.4.2c-.4.1-.8 0-.9-.3-.2-.4 0-1 .4-1.3.3-.2.5-.4.8-.7 1.3-1 2.9-2.3 4.8-2.9 3.6-1.1 5.8-.4 7.1.4.3.2.5.4.7.6 0-1-.2-1.9-.6-2.3 0 0-1.8-1.4-7.3.4-1.4.5-2.8 1.1-4.2 1.8-.6.3-1.2.6-1.9.9-.3.1-.6.1-.9-.1-.2-.1-.3-.3-.4-.6 0-.1 0-.3.1-.4-.4 0-.8-.1-1.2-.2-.4-.1-.8-.2-1.1-.3-.2-.1-.5-.1-.7-.2l-.6-.2c-.1 0-.2-.1-.4-.1-.8-.2-1.9-.5-3.1-.5h-.7c-1.1 0-2.1.1-3 .3-.2 0-.4.1-.6.1-.2 0-.3.1-.5.1h-.1c-.6.2-1.3.4-1.9.6-.2.1-.5.2-.7.3-1.8.8-4.4 2.6-6.2 4.5-.2.2-.4.4-.5.6-.7 1-1.2 1.9-1.2 2.7-.4 1.6-1 3.1-1.5 4.6zm15.3 2.7c.2-.1.4-.1.6 0 .2.1.4.3.4.5.1.6 0 1-.2 1.4 0 .1-.1.2-.1.4-.1.4-.1.9.1 1.1 0 0 .1.1.2.1.2 0 .6-.4.9-.7l.5-.5c.4-.3.8-.7 1.4-.9.3-.1.6 0 .8.2.2.2.3.6.2.9-.5 1.4-1.9 2.5-2.3 2.9-.5.4-1.1.6-1.6.6-.4 0-.8-.1-1.1-.3-.9-.5-1.4-1.5-1.4-2.6.1-1 .4-2.6 1.6-3.1zm-8.2 3.5c.1 0 .1 0 0 0 .6.2 1 .7 1.2 1.4.1.3 0 .7-.2.9-.2.2-.5.4-.8.4-.2 0-.3.1-.5.1-.4 0-.8-.1-1.2-.3-.6-.3-1-.9-1.1-1.5-.1-.4 0-.8.3-1.1.3-.3.7-.4 1.1-.3h.5c.3.1.5.3.7.4zm-5.5-8.6c.2-.2.6-.2.9 0 .2.2.4.4.5.7.1.5-.1 1-.3 1.5 0 .1-.1.2-.1.3v.1c-.1.2-.1.3.2.4.3.1.8.2 1.7-.8.1-.1.1-.2.2-.3.3-.4.7-.8 1.3-1 .4-.1.9.2 1 .6.3 1.5-1.5 2.8-1.7 2.9-.6.4-1.3.7-2 .7-.4 0-.7-.1-1.1-.2-.4-.2-.8-.4-1.1-.8-.4-.5-.6-1-.6-1.6-.2-.5.3-2 1.1-2.5zM132.3 428.3c.1 0 .1.1.2.1 1.6.7 2.6 2.7 3.4 4.2.5-.1 1-.3 1.5-.4-1.1-1.9-2.8-3.8-4.3-4-.3 0-.5.1-.8.1z"/><path class="st11" d="M148.4 462.4c1.2.7 2.5 1.4 3.7 2.1.3-.1.6-.2.8-.4-.3-.1-.5-.2-.8-.3-1.2-.5-2.4-1-3.7-1.4zM134.6 468.9c.1-.5.2-.9.4-1.4.2-.4.4-.8.7-1.1-1.4-.6-2.5-1.4-3.4-2.2-1.3-.4-2.6-1.2-3.8-2.2-.3.6-.5 1.2-.6 1.7-.1 1 .1 1.8.9 2.7 1.3 1.6 3.5 2.5 5.8 2.5zM155.2 462.9c.5-.3 1.1-.7 1.7-1.2.2-.1.3-.3.5-.4-4-.9-8.1-1.6-11.9-2.2 2.8.9 5.5 2.1 7.9 3l1.8.8zM162.1 469.9c0-.5.1-1 .3-1.4-.3-.1-.6-.2-.9-.4-.8-.4-1.6-.7-2.4-1.1l-1.1-.5c-.6-.3-1.2-.6-1.9-.9l-1.2.6c.7.4 1.4.8 2 1.3 1.4.9 2.5 1.7 3.6 2.4.2.1.4.3.6.4.4-.1.7-.3 1-.4zM142.1 472.7c2.1.3 4.4.5 7.3.5 3.5 0 6.5-.6 9.5-1.8-1.2-.8-2.3-1.6-3.5-2.3-.9-.6-1.9-1.2-2.8-1.8-1 .1-5.4.7-6.9.9-1.3.1-6-.5-7.4-.8l-.1.1c-.4.3-.7.6-.9.9-.2.5-.1.9 0 1.3.2.8.9 1.6 1.7 2.1.8.5 2 .7 3.1.9z"/><path class="st2" d="M206.8 426.2c1.2-6.6-2.8-13.1-7.4-16.6-1.5-1.2-3.2-2.1-5-2.9-3.1-1.3-6.5-2-10.3-2.1-1.5-.1-3 0-4.5.1-4.3.4-8.3 1.6-11.7 3.7-1.2.7-2.4 1.6-3.5 2.5-1.1 1-2.2 2.1-3.2 3.2l-2.4 3c-.9 1.1-1.8 2.3-2.7 3.6-1.5 2-2.8 4-4 5.7-1 1.4-1.9 2.8-2.9 4.2l-1.1 1.6c-1.4-.3-2.9-.5-4.2-.6-.7-.1-1.5-.1-2.2-.1-.5 0-1.1.1-1.6.1-.6-1.6-2.2-5.1-4.8-6.2-1.1-.5-2.2-.4-3.3.1-1.6.7-2.8 2.8-3.7 6.1-.6 2.3-.7 4.7-.2 6.9-1 1.3-1.7 2.7-1.8 3.9-.1.5-.3 1.1-.4 1.6-.2.7-.3 1.4-.5 2.1-.2.6-.5 1.2-.8 1.8v.1c-3.2-2.5-7.1-4.6-11.6-6.4-.4-.2-.9 0-1.1.4-.2.4 0 .9.4 1.1 3.7 1.6 7.2 3.8 11.5 6.9v.2c-4.3-1.9-9.4-3.7-14.7-5.2-.4-.1-.8.1-.9.5-.1.4 0 .8.4 1 1.9.9 4 1.7 5.9 2.4l3 1.2c.8.3 1.7.7 2.5 1-4.1-.7-8.5-1.1-12.9-1.2-.4 0-.8.3-.8.7 0 .4.3.8.7.9 5.5.6 10.8 1.4 16.6 2.4.1.7.3 1.4.6 2.1.3.7.7 1.5 1.1 2.2.5.7 1 1.4 1.6 2.1-.5.4-.9 1-1.1 1.8-.6 1.9.1 4.4 1 5.7 1.5 2 5.5 4.4 8.5 3.8 1.4 2.7 4.8 3.4 7.6 3.8 2.7.4 5.2.5 7.4.5 5 0 8.8-.9 11.5-2.7.5.3 1 .6 1.5 1 .4.2.9.2 1.2-.1 2 1.5 5.1 1.9 9.2 1.2 3.7-.6 7.5-1.8 11.2-3.6 3.2-1.5 6.3-3.4 9-5.7.5-.4 1-.8 1.4-1.2 3-2.6 5.8-5.3 8.2-8.1 3.5-4.1 6.5-8.4 8.9-12.9.1-.3.2-.5.1-.8 1.8-5.7-.8-13.5-5.7-16.8zm-69.5 6.1c-.5.1-1 .3-1.5.4-.7-1.5-1.8-3.6-3.4-4.2-.1 0-.1-.1-.2-.1.2-.1.5-.1.8-.1 1.5.2 3.2 2 4.3 4zm-5.7-2.3c.1-.2.1-.3.1-.5.1 0 .1 0 .2.1.4.3.8.7 1.1 1.1.6.8 1.1 1.7 1.5 2.7-1.3.7-2.9 1.7-4.4 2.9.1-2.3.5-4.4 1.5-6.3zm-1.4 9.9c1.7-1.9 4.4-3.6 6.2-4.5.2-.1.5-.2.7-.3.6-.2 1.2-.4 1.9-.6h.1c.2 0 .3-.1.5-.1s.4-.1.6-.1c.9-.2 1.9-.3 3-.3h.7c1.2 0 2.3.3 3.1.5.1 0 .2.1.4.1l.6.2c.2.1.5.1.7.2.4.1.8.2 1.1.3.5.1.9.2 1.2.2-.1.1-.1.3-.1.4 0 .3.2.5.4.6.3.2.6.2.9.1.6-.3 1.2-.6 1.9-.9 1.3-.6 2.7-1.3 4.2-1.8 5.5-1.8 7.3-.4 7.3-.4.4.4.6 1.4.6 2.3-.2-.2-.5-.4-.7-.6-1.3-.8-3.5-1.6-7.1-.4-1.9.6-3.5 1.9-4.8 2.9-.3.2-.6.5-.8.7-.4.3-.6.9-.4 1.3.2.3.6.5.9.3.2-.1.4-.1.4-.2.5-.3 1-.6 1.5-.8.4-.2.7-.4 1.1-.6.3-.2.6-.3.8-.5 1.3-.8 2.5-1.5 3.9-1.6 1.3-.1 2.5.2 3.4 1 .5.5.8 1 .8 1.5v.1c0 .4 0 .8-.1 1.3-.1.4-.3.8-.5 1.2-.4.9-.8 1.8-1.3 2.7-.5.9-.9 1.8-1.3 2.7 0 .1-.1.2-.1.3-.2.4 0 .8.3 1 .2.1.3.2.5.2s.4-.1.6-.2c1.8-1.8 3.2-4.3 4.3-7.8.1-.4.2-.8.4-1.2.4-1.6.8-3.3.6-4.8-.2-1.1-.6-2.1-1.4-2.8-.8-.7-1.8-1.1-3.1-1.2-1.6-.1-3.3.3-4.6.6-2.5.6-4.6 1.5-6.4 2.7-.3.2-.5.4-.8.6 0-.1-.1-.1-.2-.2l-.1-.1c-.4-.3-.9-.6-1.4-.9.4-.5.7-.9 1-1.4 1-1.4 2-2.7 3-4.1l4.1-5.6 1.9-2.5.9-1.2c1.7-2.2 3.4-4.1 5.2-5.5 1.2-1 2.5-1.9 3.8-2.7 1.9-1.1 3.9-1.8 6.1-2.3 1.5-.3 3.1-.6 4.6-.7 3.6-.3 7.1.1 10.2 1.1 1.5.5 2.9 1.1 4.2 1.8 5.7 3.2 8.8 8.7 9 15.8 0 .2.1.4.2.6v.3c0 .2 0 .4-.1.5-.1.5-.1 1-.1 1.5s.3.9.8 1c.5.1.9-.1 1.1-.6 0-.1.1-.2.1-.2 1.7 2.1 2.9 3.9 3.4 6.3.3 1.6.5 3.1.3 4.6-.1 1.7-.6 3.2-1.3 4.5-.4.7-.9 1.4-1.4 2.1-1.3 2-2.6 3.9-4 5.6-1.5 1.9-3 3.7-4.6 5.3-1.6 1.7-3.2 3.2-4.9 4.6l-2.7 2.1-2.1 1.5c-1.5 1-3.1 1.9-4.7 2.8-1.4.7-2.8 1.4-4.3 2-.6.2-1.1.4-1.7.6-1.6.6-3.8 1.3-6 1.6-.5.1-1.1.1-1.7.2-1 .1-4.1.2-5.3-1-.6-.7-1.3-1.6-1.1-2.4.2-.6.9-1.4 3.7-2 .7-.2 1.5-.3 2.2-.5 2.1-.5 4.2-1.2 6.2-1.9.4-.1.8-.3 1.2-.5.1 0 .2-.1.4-.1 1.3-.5 2.6-1.1 3.8-1.7 1.5-.7 2.9-1.5 4.2-2.3 1.7-1 3.4-2.2 5-3.4l1.5-1.2c1-.8 1.9-1.6 2.7-2.3 1.7-1.6 3.4-3.2 5-5 .6-.7 1.2-1.4 1.9-2.1.9-1 1.5-1.9 2.1-2.7 1.5-2.1 2.3-4 2.6-5.9.1-.7.2-1.5.2-2.2v-.7c0-.6-.5-1-1.1-1h-.1c-.6 0-1.1.5-1 1.1 0 .7 0 1.4-.2 2.1-.1.5-.3 1-.5 1.5v.1l-.3.6c-1.2 2.6-3.5 4.9-5.5 7l-.9.9c-3.6 3.7-6.9 6.7-10.2 9.2-2.8 2-5.4 3.7-8.1 5l-.6.3c-.1 0-.2.1-.3.1.1-.6.2-1.1.5-1.6l.3-.6c.8-1.4 2.1-2.8 3.8-4 1.3-.9 2.8-1.8 4.6-2.5.7-.3 1.5-.5 2.2-.7.8-.2 1.6-.4 2.3-.7.1 0 .2-.1.2-.1.1 0 .2-.1.2-.1h.1c.1 0 .2-.1.3-.2h.1c.3-.1.4-.4.5-.7 0-.3-.2-.6-.4-.7-.1-.1-.3-.1-.4-.2h-.1c-.1 0-.2-.1-.4 0h-.3c-.7 0-1.4.1-2.1.2-4 .3-6.9-.1-8.1-2.9-.1-.2-.2-.4-.2-.6-.2-.8-.4-1.6-.4-2.5-.1-2.4.6-5.3 1.9-7.9.2-.3.3-.7.5-1 .1-.2.2-.3.3-.5.5-.8 1.1-1.6 1.8-2.3 1.7-1.8 3.6-3 5.7-3.6.8-.2 1.6-.3 2.4-.3 2.5 0 4.8 1.1 6.7 3 .4.4.9.4 1.3.1.4-.3.6-.8.3-1.3-1.6-3.3-5.4-5.2-9.7-4.8-.3 0-.6.1-.9.1-3.5.6-6.7 2.8-9.2 6.1-.7.9-1.2 1.9-1.7 2.9-.3.6-.5 1.3-.8 2-.2.6-.4 1.2-.7 1.8v.1c-.6 2.4-1.2 5-.9 7.4.2 1.3.5 2.2.9 3.1.9 1.7 2.3 2.9 4 3.5-1.8 1-3.3 2.1-4.5 3.3-1.6 1.6-3.8 5-3.5 7.7-1.4.5-3 .8-4.5 1.1-2.1.4-4.2.8-6.1 1.7-.5.2-.9.6-1.3.9-.3-.2-.6-.3-.9-.5-.7-.4-1.4-.8-2.1-1.1-.7-.3-1.4-.7-2.2-1.1 1-.7 1.8-1.4 2.5-2.1h.1c.5.1.9-.1 1.1-.6.1-.2 0-.4 0-.6 1.2-1.5 1.9-2.8 2.1-4.2.1-.4-.1-.7-.5-.9-.3-.2-.7-.2-1 0-.1.1-.2.1-.2.2-1 .8-1.9 1.9-2.7 2.9-.2.3-.4.5-.6.8-6.1-1.8-12-2.8-17.6-2.9-.5 0-.8.3-.8.8 0 .2 0 .3.1.5-.2.1-.3.3-.3.4v.3c-.2.1-.4.2-.5.4-.2.4 0 .8.3 1 2 1.3 4.2 2.4 6.2 3.5 1 .5 2.1 1.1 3.1 1.7-.3.1-.6.1-.8.2-3 .5-6.3.3-9.2-.6-1.1-.4-2.2-1-3.3-1.6-1-.6-2.1-1.3-3.3-1.7-.1-.1-.3-.2-.4-.3l-.3-.2c-.5-.3-.9-.6-1.2-.8-2.4-1.9-3.8-3.8-4.4-5.9l.4.1c.4.1.7-.1.9-.5.1 0 .2-.1.3-.1.2-.2.4-.4.4-.7 0-.3-.1-.5-.4-.7l.1-.1c.3-.4.3-.9-.1-1.2-.5-.5-1-.9-1.5-1.4.2-.6.4-1.3.6-2 .5-1.4 1-2.9 1.2-4.5.1-.8.5-1.7 1.2-2.7.4-.3.6-.5.8-.7zm21.9 24.6c-1.2-.7-2.4-1.4-3.7-2.1 1.3.5 2.5.9 3.7 1.4.3.1.5.2.8.3-.2.2-.5.3-.8.4zm5.2-3.1c-.2.1-.3.3-.5.4-.5.4-1.1.8-1.7 1.2l-1.8-.8c-2.3-1-5.1-2.1-7.9-3 3.8.5 7.9 1.3 11.9 2.2zm-20.2 8.2c-.1-.3-.2-.8 0-1.3.1-.3.4-.7.9-.9l.1-.1c1.4.3 6.1.9 7.4.8 1.6-.2 5.9-.7 6.9-.9 1 .6 1.9 1.2 2.8 1.8 1.2.8 2.3 1.5 3.5 2.3-3 1.2-6 1.8-9.5 1.8-2.9 0-5.2-.2-7.3-.5-1.2-.2-2.3-.4-3.3-1-.6-.4-1.2-1.2-1.5-2zm19.9-2.1c-.7-.4-1.4-.9-2-1.3l1.2-.6c.6.3 1.2.6 1.9.9l1.1.5c.8.4 1.6.7 2.4 1.1.3.1.6.2.9.4-.2.5-.3.9-.3 1.4-.3.2-.6.3-.9.5-.2-.1-.4-.3-.6-.4-1.1-.8-2.3-1.6-3.7-2.5zm-29.1-3.7c.1-.5.3-1 .6-1.7 1.2 1 2.5 1.8 3.8 2.2.8.8 2 1.5 3.4 2.2-.3.3-.6.7-.7 1.1-.2.4-.3.9-.4 1.4-2.3 0-4.5-.9-5.8-2.4-.7-1-1-1.9-.9-2.8z"/><path class="st2" d="M142.4 456c.3.2.7.3 1.1.3.5 0 1.1-.2 1.6-.6.4-.3 1.9-1.5 2.3-2.9.1-.3 0-.6-.2-.9-.2-.2-.5-.3-.8-.2-.6.2-1.1.6-1.4.9l-.5.5c-.3.3-.6.7-.9.7-.2 0-.2 0-.2-.1-.2-.2-.2-.7-.1-1.1 0-.1.1-.3.1-.4.1-.4.3-.8.2-1.4 0-.2-.2-.4-.4-.5-.2-.1-.4-.1-.6 0-1.1.5-1.4 2.1-1.5 2.9-.1 1.3.4 2.3 1.3 2.8zM133.1 453.6c-.4-.1-.8 0-1.1.3-.3.3-.4.7-.3 1.1.1.6.5 1.2 1.1 1.5.4.2.8.3 1.2.3.2 0 .3 0 .5-.1.3 0 .6-.2.8-.4.2-.2.3-.6.2-.9-.1-.7-.6-1.2-1.2-1.4h-.1c-.2-.1-.4-.3-.6-.3-.2-.1-.3-.1-.5-.1zM128.1 449.8c.3.3.7.6 1.1.8.3.1.7.2 1.1.2.7 0 1.4-.2 2-.7.2-.1 2-1.5 1.7-2.9-.1-.4-.5-.7-1-.6-.6.1-1 .6-1.3 1-.1.1-.1.2-.2.3-.8.9-1.4.9-1.7.8-.3-.1-.3-.2-.2-.4v-.1c0-.1.1-.2.1-.3.2-.4.4-1 .3-1.5-.1-.3-.2-.5-.5-.7-.3-.2-.7-.2-.9 0-.8.5-1.3 2-1.3 2.8.2.2.4.8.8 1.3z"/></g></svg>