<svg id="Слой_2" xmlns="http://www.w3.org/2000/svg" viewBox="0 0 110 75.7"><style>.st0{fill:none;stroke:#25d6b4;stroke-width:2;stroke-miterlimit:10}.st1{fill:#25d6b4}</style><path class="st0" d="M95.5 53.6v21.2H1V28.5h61.1"/><path class="st0" d="M11 74.7H1v-10c5.5.1 10 4.5 10 10zM1 38.5c5.5 0 10-4.5 10-10H1v10zm84.5 36.2h10v-10c-5.5.1-10 4.5-10 10zM48.2 35.8c6.9 0 12.5 7.1 12.5 15.8s-5.6 15.8-12.5 15.8-12.5-7.1-12.5-15.8 5.6-15.8 12.5-15.8z"/><path class="st1" d="M9.7 49.2h16.7v2.3H9.7v-2.3zm0 6.6h11v-2.3h-11v2.3zM46.1 48.9v1.8h6.1v5.6h-3.1v2.1h-1.9v-2.1h-3.1v-1.9h6.2v-1.8h-6.1V47h3.1v-2.1h1.9V47h3.1v1.9h-6.2z"/><path d="M109 12.7v11.7c0 16.1-6 25.6-22 34.8-.5.3-1 .4-1.5.4s-1-.1-1.5-.4C68 50 62 40.5 62 24.4V12.7c0-1.2.7-2.2 1.8-2.7l20.5-8.8c.7-.3 1.6-.3 2.3 0l20.5 8.8c1.2.5 1.9 1.5 1.9 2.7z" fill="none" stroke="#2e2e2e" stroke-width="2" stroke-miterlimit="10"/><path d="M84.6 36.2c-.1 0-.1 0 0 0-.4 0-.8-.2-1-.5l-5.7-7c-.4-.6-.2-1.3.3-1.7.6-.4 1.3-.2 1.7.3l4.8 5.6 8.8-9.7c.4-.5 1.2-.6 1.7-.2.5.4.6 1.2.2 1.7l-9.8 11.1c-.3.2-.7.4-1 .4z" fill="#2e2e2e"/></svg>