<svg xmlns="http://www.w3.org/2000/svg" viewBox="0 0 507.4 388.5"><style>path{stroke-dasharray:2000;stroke-dashoffset:0;opacity:0;-webkit-animation:dash 3s linear 1s forwards;animation:dash 3s linear 1s forwards}@-webkit-keyframes dash{0%{opacity:0;stroke-dashoffset:2000}15%{opacity:1}100%{opacity:1;stroke-dashoffset:0}}@keyframes dash{0%{opacity:0;stroke-dashoffset:2000}15%{opacity:1}100%{opacity:1;stroke-dashoffset:0}}.st0{fill:#d3c2eb}.st1{fill:#3a3a3a}.st3{fill:none;stroke:#3a3a3a;stroke-width:3;stroke-linecap:round;stroke-linejoin:round;stroke-miterlimit:10}</style><switch><g><g id="Layer"><path class="st0" d="M210.5 135.3l16.9 5.3-5.4 7.3-1.7 5.1 7.1 10.6s8.8 32.2 11.2 38.8c2.3 6.6 2.7 32 2.3 33.7-.4 1.8 0 32.8 0 32.8l-29.3 10.7s3.1-41 2.3-59.3c-.8-18.3-6.6-48.5-6.6-48.5l2.7-17.1-3.8-4.5-11.8-8.4c4.3-8.4 16.1-6.5 16.1-6.5zM22.3 296.8l131.8 14-21.8 44.2-1.6 10.8-125.9-23-1.9-7.8 19.4-38.2zM237.4 334.3h48.2v5.9h-48.2v-5.9zM366.9 264.8c2.6 5.3 0 17 0 17l-6.4 15.8-6.2.1s1.8-1.8 0-15.9c-1.8-14.2 7.7-28 7.7-28s2.3 5.8 4.9 11z"/><path class="st1" d="M202.7 66.8c.5 2.4-.7 4.8-2.8 5.3-2.1.5-4.2-1.1-4.8-3.6-.5-2.4.7-4.8 2.8-5.3 2.2-.4 4.3 1.2 4.8 3.6zM230.5 65.1c.5 2.4-.7 4.8-2.8 5.3-2.1.5-4.2-1.1-4.8-3.6-.5-2.4.7-4.8 2.8-5.3 2.1-.5 4.3 1.1 4.8 3.6zM171.6 301.1c-.7 0-1.3-.4-1.6-1-.4-.9-.1-1.9.8-2.3 1.7-.8 41.9-20.4 54.3-24.7 2.9-1 5.3-1.9 7.6-2.8 7.9-3 14.1-5.3 28.1-7.4 17.8-2.7 57.5-4.7 57.9-4.7 1 0 1.8.7 1.8 1.7s-.7 1.8-1.7 1.8c-.4 0-39.9 2-57.6 4.7-13.6 2.1-19.7 4.4-27.4 7.2-2.4.9-4.8 1.8-7.7 2.8-12.1 4.2-53.5 24.3-53.9 24.5-.1.2-.4.2-.6.2zM326.6 223.4c-.1 0-.3 0-.4-.1-.9-.2-1.5-1.2-1.3-2.1l3.9-15.9c.2-.9 1.2-1.5 2.1-1.3l23.4 5.6c.9.2 1.5 1.2 1.3 2.1-.2.9-1.2 1.5-2.1 1.3l-21.7-5.2-3.5 14.2c-.2.9-.9 1.4-1.7 1.4zM339.8 264.8c-.7 0-1.4-.4-1.6-1.1-.4-.9.1-1.9 1-2.3l22.5-9c.9-.4 1.9.1 2.3 1 .4.9-.1 1.9-1 2.3l-22.5 9c-.2.1-.5.1-.7.1zM362.3 299.5h-6.2c-1 0-1.8-.8-1.8-1.8s.8-1.8 1.8-1.8h6.2c1 0 1.8.8 1.8 1.8-.1 1-.8 1.8-1.8 1.8zM412.9 247.6h-.1l-26-2c-1-.1-1.7-.9-1.6-1.9.1-1 .9-1.7 1.9-1.6l26 2c1 .1 1.7.9 1.6 1.9-.2.9-.9 1.6-1.8 1.6zM234.1 348.5h-3.5c-1 0-1.8-.8-1.8-1.8s.8-1.8 1.8-1.8h3.5c1 0 1.8.8 1.8 1.8s-.8 1.8-1.8 1.8zM287.3 348.5h-6.6c-1 0-1.8-.8-1.8-1.8s.8-1.8 1.8-1.8h6.6c1 0 1.8.8 1.8 1.8-.1 1-.9 1.8-1.8 1.8zm-13.3 0h-6.6c-1 0-1.8-.8-1.8-1.8s.8-1.8 1.8-1.8h6.6c1 0 1.8.8 1.8 1.8-.1 1-.8 1.8-1.8 1.8zm-13.3 0h-6.6c-1 0-1.8-.8-1.8-1.8s.8-1.8 1.8-1.8h6.6c1 0 1.8.8 1.8 1.8s-.8 1.8-1.8 1.8zm-13.3 0h-6.6c-1 0-1.8-.8-1.8-1.8s.8-1.8 1.8-1.8h6.6c1 0 1.8.8 1.8 1.8s-.8 1.8-1.8 1.8zM297.4 348.5h-3.5c-1 0-1.8-.8-1.8-1.8s.8-1.8 1.8-1.8h3.5c1 0 1.8.8 1.8 1.8s-.8 1.8-1.8 1.8zM230.3 356h-3.5c-1 0-1.8-.8-1.8-1.8s.8-1.8 1.8-1.8h3.5c1 0 1.8.8 1.8 1.8s-.8 1.8-1.8 1.8zM290.2 356h-7.5c-1 0-1.8-.8-1.8-1.8s.8-1.8 1.8-1.8h7.5c1 0 1.8.8 1.8 1.8s-.8 1.8-1.8 1.8zm-15 0h-7.5c-1 0-1.8-.8-1.8-1.8s.8-1.8 1.8-1.8h7.5c1 0 1.8.8 1.8 1.8s-.8 1.8-1.8 1.8zm-14.9 0h-7.5c-1 0-1.8-.8-1.8-1.8s.8-1.8 1.8-1.8h7.5c1 0 1.8.8 1.8 1.8s-.9 1.8-1.8 1.8zm-15 0h-7.5c-1 0-1.8-.8-1.8-1.8s.8-1.8 1.8-1.8h7.5c1 0 1.8.8 1.8 1.8s-.8 1.8-1.8 1.8zM301.2 356h-3.5c-1 0-1.8-.8-1.8-1.8s.8-1.8 1.8-1.8h3.5c1 0 1.8.8 1.8 1.8s-.8 1.8-1.8 1.8zM223.5 369.4H220c-1 0-1.8-.8-1.8-1.8s.8-1.8 1.8-1.8h3.5c1 0 1.8.8 1.8 1.8s-.8 1.8-1.8 1.8zM297.2 369.4h-7.4c-1 0-1.8-.8-1.8-1.8s.8-1.8 1.8-1.8h7.4c1 0 1.8.8 1.8 1.8-.1 1-.9 1.8-1.8 1.8zm-14.8 0H275c-1 0-1.8-.8-1.8-1.8s.8-1.8 1.8-1.8h7.4c1 0 1.8.8 1.8 1.8s-.8 1.8-1.8 1.8zm-14.7 0h-7.4c-1 0-1.8-.8-1.8-1.8s.8-1.8 1.8-1.8h7.4c1 0 1.8.8 1.8 1.8s-.8 1.8-1.8 1.8zm-14.7 0h-7.4c-1 0-1.8-.8-1.8-1.8s.8-1.8 1.8-1.8h7.4c1 0 1.8.8 1.8 1.8-.1 1-.9 1.8-1.8 1.8zm-14.7 0h-7.4c-1 0-1.8-.8-1.8-1.8s.8-1.8 1.8-1.8h7.4c1 0 1.8.8 1.8 1.8-.1 1-.9 1.8-1.8 1.8zM308 369.4h-3.5c-1 0-1.8-.8-1.8-1.8s.8-1.8 1.8-1.8h3.5c1 0 1.8.8 1.8 1.8s-.8 1.8-1.8 1.8zM288.2 341.9h-51.1c-1 0-1.8-.8-1.8-1.8v-5.9c0-1 .8-1.8 1.8-1.8h51.1c1 0 1.8.8 1.8 1.8v5.9c0 1-.8 1.8-1.8 1.8zm-49.4-3.5h47.6V336h-47.6v2.4z"/><path class="st1" d="M237.1 341.9c-.2 0-.4 0-.6-.1l-8.6-2.9c-.7-.2-1.2-.9-1.2-1.7s.5-1.4 1.2-1.7l8.6-2.9c.9-.3 1.9.2 2.2 1.1.3.9-.2 1.9-1.1 2.2l-3.7 1.3 3.7 1.3c.9.3 1.4 1.3 1.1 2.2-.2.7-.9 1.2-1.6 1.2zM291.1 342.9h-4.9c-1 0-1.8-.8-1.8-1.8v-7h-7.6l-1.2 1.4c-.6.7-1.8.8-2.5.1-.7-.6-.8-1.8-.1-2.5l1.8-1.9c.3-.4.8-.6 1.3-.6h15c.2 0 .4 0 .7.1l6.3 2.5c1.3.5 2.2 1.8 2.2 3.2 0 1.4-.7 2.7-2 3.3l-6.4 3c-.3.1-.6.2-.8.2zm-3.1-3.5h2.7l6.1-2.8-6-2.4H288v5.2zM279.4 175.1c-.3 0-.6-.1-.9-.3-8.2-5-27.2-1.4-27.3-1.3-1 .2-1.9-.4-2.1-1.4-.2-1 .4-1.9 1.4-2.1.8-.2 20.5-4 29.9 1.8.8.5 1.1 1.6.6 2.4-.5.6-1 .9-1.6.9z"/><path d="M174.8 76.5s6.9-8.8 9.1-10.2 12.4-8.5 27.7-5.6c4.5 1.4 7.1-.1 7.1-.1s9.7-5.5 20-1.1c3.2 2.8 2.2 6.1 1.8 8.6-.4 2.3-1.7 6.2-3.8 6.6-9.4 1.8-17.2.8-18-14-3.9.7-6.1.3-6.1.3s5.1 19-19.6 18.2c-7.5-1-9.1-12.8-9.1-12.8l-9.1 10.1z" fill="none" stroke="#3a3a3a" stroke-width="2.6" stroke-linecap="round" stroke-linejoin="round" stroke-miterlimit="10"/></g><g id="Слой_8"><path class="st3" d="M505.9 299.4h-94.7M309.8 299.4l-146.7.1M228.6 325.6s-30 51.2-29.5 53.8c2.8.8 118.1 1.2 121.5.5 3.4-.6-18.5-53.7-18.5-53.7l-73.5-.6z"/><path class="st3" d="M293.5 380.7s2.3 5.3 2.2 5.6-111.7-.3-112.5 0 33.4-56.6 33.4-56.6h8.5"/></g><g id="Слой_9"><path class="st3" d="M155.4 311s29.7 3.5 32.4 3.5c.9 0 0 8.3 0 8.3s-50.8 40.2-56.1 43c-6.1.2-126.3-22.3-126.3-22.3S.8 342 1.8 334c4.6-9.6 35.7-62.8 45.5-85.9 30.8 0 138.1 3.4 138.1 3.4L132.3 355s-2.2 3.8-1.6 10.8"/><path class="st3" d="M3.8 332.7L132.3 355l55.4-40.4"/><path class="st3" d="M151.3 319.7l11.8 2-21.1 14.6M155 326.5l-6.9-.9M142 358.4v-7M66 325.8l3.2-5.9M60.5 353.6s-1.1-3.4 0-6.8"/></g><g id="Слой_2"><path class="st3" d="M145.2 249.5s-24.1-72.1-35.9-86.8c-11.3-14-49.2-80.2-52.8-85.4-3.7-5.2-1.9-21.7 18.8-21.2 20.3.5 68.1 6.7 69.9 7.1 1.8.4 7.4 10.6 5.6 26.4-24.3 9.2-41.9 5.2-47 3.5 0 0 20.5 7.9 25.3 21.7 9.2 7.3 14.2 14.7 14.2 14.7s-1.5-2.1.7-3.2 25.9 1.3 33.9-4.8c0 0 .4-1.6.3-4.3-.4-1.1.2 1.9 0 5.7-.4 9.6 4.2 25.6 6.5 30 0 0 12.8-20.1 26.3-16.2 15.2 4.4 17.9.9 24.9 10.3 3.2 1.5-6-24.8-8.2-25.5 0 0 1.2 6.6 5.4 5.8s21.8-4.8 39.1-1c0 0-7.2-.4-6.9-1.8s20-16.2 24.7-25.6S308.9 78 308.9 78s8.7-1.5 9-2.3c-16.5 3.6-40.8-.1-63.4 4.1 0 0-8.4-9.9-.6-30.5 0 0 33.7-3.3 61.6-8.6 20.1-3.5 41.3-1.4 34.3 29.7-6.9 29.5-39.3 58.3-51.6 89.8s-9.6 36.4-1 77.8c3 14.4 6.3 20.6 6.3 20.6"/><path class="st3" d="M178.6 96.1c-.3 4.3 16.8 28.7 35.1 25.1 5.5-1.1 10.1-4.8 12.6-9.8 13.7-26.5 9.5-43.3 8.9-44.6-.7-1.4.4-14.4-2.2-29-2.7-15.3-25.1-15.9-31.8-12.8-6.7 3.2-23 10-23 10 .4 4.6 2.7 5.3-2.8 15.6-5.4 10.4-.4 22.4-.6 24.6-.2 2.2-1 3.2-3.3 3.3s-12.1-10.1-12.6 1.9S173.7 95 173.7 95l-2.8.5c6.3 10.6 7.3 26.1 7.3 26.1s27.5 8.3 33.4 15.3c0 0 21.1-12 15.7-15.5 0 0-2.5 1.5-4.6-3.3M250.6 171.9s22.3-4.3 28.6 1.6"/><path class="st3" d="M160.3 74.7s-24.9-38.4-3.5-52.4c0 0 4.6-17 23.7-18s29.8-.6 34.3-2.8c0 0 1 3.3-.6 4.9 0 0 6.9-2.5 13.1-2.8s10.3-2.1 10.3-2.1 6.3 29.4-2.5 43.4M212.6 98.2s-7.4 0-15-5.3M214.8 83.2c2.6-.7 13.9-1 4.8-11.9M234.1 56.2s-3-5.1-12.9-2.6M198.6 55.4s-8.2-1-14.3 5.2"/></g><g id="Слой_3"><path class="st3" d="M195.4 142.6s8.1 6.5 10.1 6.5l4.4 5.8s.3 7.9-3 14.9c-2.2 3.8 6.7 23 7.2 58.3.5 37.9-1.7 51.6-1.7 51.6s25.2-9.4 28.5-10.7c.1-10.3 1.1-47-.9-58.8-.9-5.3-7.3-40.9-13.3-46.6-6-5.7-5.2-6.9-6.3-9.5-1.1-2.6 1.4-5 1.4-5l5.7-8.4-5.4 7.3s-7.3-5.6-15.1.3M210.9 154.6s2.7-3.3 8.6-1.3"/></g><g id="Слой_4"><path class="st3" d="M129.2 248.2s-30-62.5-19.9-85.5M135.8 120.9s10.3-14.5 37.8-16M227.8 109s16.8 3.7 21.3 14"/></g><g id="Слой_5"><path class="st3" d="M146.5 64.5h8.3M151 86.3h7.9M252.5 75.3l-14.9 2.1M234.1 54.5l18.4-2"/></g><g id="Слой_6"><path class="st3" d="M173.7 297.7s64.1-28.8 82.8-32.9c15-3.2 51.8-4.6 60.5-5M307.4 299.4s43.4 7.5 48.2 10c4.8 2.6 8.4-6.5 8.4-6.5"/><path class="st3" d="M362.1 253.8s-11 11.1-8 34.7c2 15.7 1.5 20.9 1.5 20.9"/><path class="st3" d="M355.1 297.7h7s3.2 7.2 31.7 12.2c20.8 3.6 20.8-39.6 20.8-39.6h-27.7l-5.8-3.3s3.3-17.7-1.4-32.5 5.9-64.1 31-94.9c0 0 10.4-4.9 14.3 8.2s3.6 57.7 0 68c-4.5 13.1-11.5 26.5-12 30.3-.5 3.7-3.1 21.6-3.1 21.6l-28.7-.7s-6.2 4.9-4.6 30.7M411.2 245.4l-23.7-1.7"/><path class="st3" d="M410.6 139.6s-9.2-3.4-35.7 57.4c-26.5 60.8-11 56.5-11 56.5l-22.5 10s-6.6 3.5-14 1.4-12.1-7.1-12.5-18.9c-.4-11.7 3.8-25.5 3.8-25.5l36.2 8.6s16.7-57.7 26-72.3c9.3-14.7 7.6-49.5-1.9-51.8s-35.5 21.7-42.5 48.6-3.8 53.4-9.5 66.1"/><path class="st3" d="M354.5 230.4s15.6-54.6 24.3-69.9c12.2-23.5 9.6-53.2.1-55.4M354.5 230.4s-8.3 32.2-18.3 34.8M330.1 205.5l24 5.7"/><path class="st3" d="M386.1 117.7c3.9 18.8-1.8 47.1-5 65.5-6.8 17.2-7.7 12.2-17.5 72 0 0 6 9.9 4.1 21.9-1.9 12-7.2 17.2-5.6 20.5M386.1 271s-8.8 41.6 10.1 39.1"/></g></g></switch></svg>