<svg xmlns="http://www.w3.org/2000/svg" viewBox="0 0 383.9 294.3"><style>path{stroke-dasharray:2000;stroke-dashoffset:0;opacity:0;-webkit-animation:dash 3s linear 1s forwards;animation:dash 3s linear 1s forwards}@-webkit-keyframes dash{0%{opacity:0;stroke-dashoffset:2000}15%{opacity:1}100%{opacity:1;stroke-dashoffset:0}}@keyframes dash{0%{opacity:0;stroke-dashoffset:2000}15%{opacity:1}100%{opacity:1;stroke-dashoffset:0}}.st0{fill:#d3c2eb}.st1{fill:#3a3a3a}@media all and
(-ms-high-contrast:none),(-ms-high-contrast:active){path{opacity:1}}</style><path class="st0" d="M237.1 107.6l-9 6.4-2.9 3.4 2 12.9s-4.4 22.8-5 36.7c-.6 13.9 1.7 44.9 1.7 44.9l-22.2-8.1s.3-23.5 0-24.8c-.3-1.3 0-20.5 1.8-25.6 1.8-5 8.5-29.4 8.5-29.4l5.3-8-1.3-3.9-4.1-5.5 12.8-4c.2-.1 9.1-1.5 12.4 5zM382.1 253.8l-1.4 5.9-95.4 17.4-1.2-8.2-16.5-33.4 99.9-10.6 14.6 28.9zM204.5 257.7H168v-4.4h36.5v4.4zM111.2 194.5s6 8.3 4.7 19c-1.3 10.7 0 12.1 0 12.1l-4.7-.1-4.8-12s-2-8.9 0-12.8c1.9-4 4.8-6.2 4.8-6.2z"/><path class="st1" d="M204.9 51.2c-.8-7.9 1.1-20.1 1.3-21.8-.1-.3-.2-.5-.1-.8.9-4.5 3.9-8 8.5-10.1 6.5-2.9 15.9-2.5 21.9 1 5.5 3.2 12.9 5.9 13 6 .3.1.5.3.6.5.3.5.3 1 .2 1.9-.2 1.8-.7 5.6 1.6 9.3 4.6 7.3 2.3 15.7.9 19.4.2.6.6 1.4 1 1.6.4.1 1.2-.2 2.1-1.1.3-.3.6-.4 1-.3.3-.2 3.1-1.5 5.5-.4 1.5.7 2.5 2.1 2.9 4.2.5 2.3-.1 4.8-1.7 7-2.2 3.1-6.1 5.1-10.3 5.6h-.1c-.7 0-1.2-.5-1.3-1.2-.1-.7.5-1.4 1.2-1.5 3.5-.4 6.7-2 8.4-4.5 1.1-1.6 1.6-3.3 1.2-4.8-.3-1.2-.8-2-1.5-2.4-1.1-.5-2.7.1-3.2.3-.2.1-.4.1-.7.1-1.2 1.1-2.4 1.6-3.5 1.6-.4 0-.7-.1-1.1-.2-2.2-.8-2.8-3.6-2.9-4 0-.2 0-.5.1-.7 1.2-3.1 3.6-10.9-.5-17.4-2.8-4.5-2.3-9.1-2-11-2.2-.9-7.9-3.2-12.4-5.8-5.3-3.1-13.7-3.4-19.5-.8-2.6 1.2-5.9 3.5-6.9 8 .1.2.1.5.1.7 0 .1-2.2 13.5-1.3 21.5v.4c0 .1-1.5 9.3.6 17.1 1.8 6.4 3.6 10.4 6.5 16.9l.6 1.3c1.1 2.5 9.4 5.3 15.2 2.7 7-3.1 13.9-7.3 17.2-17.2.2-.7 1-1.1 1.7-.8.7.2 1.1 1 .8 1.7-3.6 10.9-11.4 15.6-18.6 18.8-1.9.8-4.1 1.2-6.3 1.2-5.5 0-11.1-2.3-12.4-5.3l-.6-1.3c-3-6.7-4.8-10.7-6.7-17.3-1.9-7.9-.7-16.6-.5-18.1z"/><path class="st1" d="M261.1 58.3c-.6-.4-.8-1.2-.3-1.8.1-.1 7.7-11.3 9.4-20.7 1.6-9-.2-14.8-5.7-18-.3-.2-.5-.5-.6-.8 0-.1-2.7-10.2-13.4-11.9-5.3-.8-11.1-1-16.2-1.1-4.7-.1-8.7-.2-11.4-.8.1.6.2 1 .4 1.2.4.5.4 1.1.1 1.6-.4.5-1 .7-1.6.5-.1 0-5.6-2.1-10.2-2.1-2.8 0-4.8-.6-6.1-1.1-.9 5.4-3.3 22.3 2.5 31 .4.6.2 1.4-.4 1.8-.6.4-1.4.2-1.8-.4C198.2 24.5 203 2 203.2 1c.1-.4.4-.8.8-1 .4-.2.9-.1 1.3.2 0 0 2 1.5 6.3 1.5 3 0 6.3.8 8.6 1.5-.2-.8-.2-1.5-.2-1.9 0-.5.2-.9.6-1.1.4-.2.9-.3 1.3 0 1.8 1 6.9 1.1 12.3 1.2 5.2.1 11 .3 16.5 1.1 11 1.7 14.6 10.9 15.4 13.3 6.2 3.8 8.3 10.5 6.5 20.5-1.8 9.9-9.5 21.2-9.8 21.7-.3.4-.7.6-1.1.6-.1 0-.4-.1-.6-.3zM248.8 93.2c-.7-.1-1.2-.8-1.1-1.5 1.2-8.5 5.8-19.9 6-20.3.3-.7 1.1-1 1.7-.7.7.3 1 1.1.7 1.7 0 .1-4.7 11.6-5.8 19.7-.1.7-.7 1.1-1.3 1.1h-.2zm-35.4 2.4c.5 0 1-.3 1.2-.8l2.1-5.3c.3-.7-.1-1.5-.7-1.7-.7-.3-1.5.1-1.7.7l-2.1 5.3c-.3.7.1 1.5.7 1.7.2.1.4.1.5.1zM250.6 92.5c.2-.7 1-1.1 1.7-.9.1 0 10.6 3.2 18.7 2.6 5.1-.4 5.5-.1 5.8.1.9-1.1 2-2 3.2-3 2.5-2.2 5.3-4.6 8.1-9.3 1.7-2.8 5.3-6.1 8.2-8.4-3.1.2-6.7.1-10.4-.6-10.1-1.9-15.5-3.3-15.6-3.3-.5-.1-.8-.5-1-.9-.2-.5-3.9-13.4 3.8-22.3.2-.2.5-.4.8-.4 1.8-.2 43.5-5.8 54.5-5.6 6 .1 10.7 2.3 13.3 6 2.2 3.1 2.6 7.1 1.2 11-2.5 7.2-12.2 22.9-21.4 37.3-3.2 5-6.2 9.5-9.1 13.8-3.6 5.4-7 10.5-10 15.4-2.4 4.1-4.9 10.1-7.3 16-2.1 5.1-4.3 10.3-6.3 14.1-4.3 8-12.2 31.3-13.1 35.6-.1.6-.7 1.1-1.3 1.1h-.3c-.7-.1-1.2-.8-1-1.6.9-4.5 8.8-28 13.4-36.4 2-3.7 4.2-8.9 6.2-13.9 2.4-5.9 5-12 7.5-16.3 3-5 6.4-10.1 10.1-15.6 2.9-4.3 5.9-8.7 9.1-13.7 5.5-8.7 18.4-28.9 21.1-36.8 1.1-3.1.8-6.2-.9-8.6-2.1-3-6.1-4.8-11.1-4.9-10.2-.2-48.7 4.8-53.6 5.5-5.4 6.6-3.8 16-3.1 18.7 1.8.4 6.8 1.6 14.7 3 5.3 1 10.5.6 14.2.1.1 0 .3-.1.4-.1 2.8-.5 4.7-1 4.7-1 .7-.2 1.4.2 1.7.9.2.7-.2 1.4-.9 1.7-.2.1-2.1.6-5.1 1.1-1.6 1.2-8.7 6.3-11 10.3-3 5-6.1 7.7-8.6 9.9-2 1.7-3.5 3.1-4.4 5-.2.5-.7.8-1.2.8-.2 0-.4 0-.5-.1-.7-.3-1-1.1-.7-1.8.1-.2.2-.3.3-.5-.6 0-1.8 0-4.1.2-.8.1-1.5.1-2.3.1-8.1 0-16.9-2.7-17.3-2.8-.9 0-1.3-.8-1.1-1.5z"/><path class="st1" d="M265.6 48.9c0-.7.6-1.3 1.3-1.3h6.2c.7 0 1.3.6 1.3 1.3 0 .7-.6 1.3-1.3 1.3h-6.2c-.7 0-1.3-.6-1.3-1.3zm4.4 18c.7 0 1.3-.5 1.3-1.2.1-.7-.5-1.4-1.2-1.4l-5.8-.5c-.7-.1-1.4.5-1.4 1.2-.1.7.5 1.4 1.2 1.4l5.8.5h.1zM206.6 43.1c-.5-.5-.5-1.4.1-1.9 4-3.7 10.2-1.9 10.4-1.8.7.2 1.1.9.9 1.6-.2.7-.9 1.1-1.6.9 0 0-5-1.4-7.9 1.2-.3.2-.6.4-.9.4-.4 0-.7-.2-1-.4zM243.7 46.9c-4.8-4.3-9.5-3.7-9.7-3.7-.7.1-1.4-.4-1.5-1.1-.1-.7.4-1.4 1.1-1.5.2 0 6.1-.8 11.8 4.3.5.5.6 1.3.1 1.9-.3.3-.6.4-1 .4-.3.1-.6 0-.8-.3zM221.8 64.4c-1.5-.2-6.5-.9-7.5-3.3-1.3-3.4 2.2-7.4 2.6-7.9.5-.5 1.3-.6 1.9-.1.5.5.6 1.3.1 1.9-.9 1-2.7 3.7-2.1 5.1.3.6 2.9 1.4 5.3 1.7.7.1 1.3.7 1.2 1.5-.1.7-.6 1.2-1.3 1.2-.1 0-.1 0-.2-.1zM231.5 73.8c-2.6 1.5-7.5 1.8-8.5 1.7-.8-.1-1.4-.7-1.3-1.5 0-.8.7-1.3 1.5-1.3 2.6 0 4.8-.3 7.2-1.5 1.7-1 3-1.9 3.1-1.9.6-.4 1.5-.2 1.9.4.4.7.2 1.4-.4 1.9-.7.6-3 1.9-3.5 2.2zM234.4 47.9c1.6.4 2.5 2.1 2.1 4-.4 1.9-2 3.1-3.6 2.7-1.6-.4-2.5-2.1-2.1-4 .4-1.8 2-3 3.6-2.7zM213.3 46.6c1.6.4 2.5 2.1 2.1 4-.4 1.9-2 3.1-3.6 2.7-1.6-.4-2.5-2.1-2.1-4 .4-1.8 2.1-3.1 3.6-2.7zM119.5 34.7c6.8-8.6 28.1-5.3 36.9-3.4 10.3 2.1 35.4 4.7 35.6 4.7.5.1.9.4 1.1.9.2.6 5.7 15.4-.1 24.5-.3.5-.8.7-1.4.6-.1 0-10.6-1.9-19-2-2 0-4.2 0-6.5.1-4 .1-8.3.2-12.4 0 5.9 4.8 9.8 10.5 12.9 15.2 1 1.4 1.9 2.7 2.7 3.9 6.4 8.6 14.8 14 14.9 14 .1.1.3.2.4.3 7.7-.5 17.9-.5 21.6 1 3.2 1.3 4.1-.3 4.2-.7.3-.7 1-1 1.7-.7.7.3 1 1 .8 1.7-.1.2-.7 1.7-2.4 2.4-.7.3-1.4.4-2.1.4-1 0-2-.2-3.1-.7-4.3-1.7-21.7-1.2-27.4.1-.7.2-1.4-.3-1.6-1-.2-.7.3-1.4 1-1.6.9-.2 2-.4 3.4-.5-3-2.2-8.6-6.8-13.4-13.2-.9-1.2-1.8-2.5-2.8-4-3.6-5.4-8.2-12-15.6-17-2.2-.3-4.2-.6-6-1.2-.7-.2-1.1-1-.9-1.7.2-.7 1-1.1 1.7-.9 5.9 1.8 14.7 1.6 22.5 1.4 2.3-.1 4.6-.1 6.6-.1 7.3 0 15.8 1.4 18.6 1.9 3.7-6.9.7-17.7-.3-20.6-4.5-.5-25.5-2.7-35-4.7-17.4-3.6-30.2-2.7-34.3 2.5-4.4 5.6-2 17.7 3 26.1 1.2 2 3.6 5.8 6.6 10.7 9.5 15.2 25.3 40.8 29.4 50.7 2.7 6.6 4.3 11.1 4.3 11.1v.2c.1.6 1.8 13.9-.5 25-1.4 7-2.4 12.1-3.1 16.1-1 5.6-1.6 8.9-2.7 11.7-2.6 6.9-2.9 8.6-2.9 8.8 0 .7-.5 1.3-1.2 1.3h-.1c-.7 0-1.3-.5-1.3-1.2-.1-1 1-4.5 3-9.8 1-2.5 1.5-5.8 2.5-11.2.7-4.1 1.6-9.2 3.1-16.2 2.1-10.2.7-22.6.5-24-.3-.8-1.8-5-4.2-10.9-4-9.8-19.7-35.2-29.1-50.3-3-4.9-5.4-8.8-6.6-10.8-5.5-8.9-8.3-22.2-3-28.9z"/><path class="st1" d="M194.8 95.4c-.7-.3-.9-1.1-.6-1.8 3.9-7.4 7.8-9.6 17.1-12.1.7-.2 1.4.2 1.6.9.2.7-.2 1.4-.9 1.6-8.7 2.4-12 4.2-15.4 10.8-.2.5-.7.7-1.2.7-.2.1-.4 0-.6-.1zm89.1-5.1c.2 0 .4 0 .6-.1.7-.3.9-1.1.6-1.8-.2-.5-2.8-4.8-17.8-7.9-1.8-.4-6.8-1.3-14-1.9-.7-.1-1.4.5-1.4 1.2-.1.7.5 1.4 1.2 1.4 7.1.7 12 1.6 13.7 1.9 13.6 2.7 15.9 6.5 15.9 6.5.3.5.8.7 1.2.7zM286.2 188.9c-.7-.3-1-1.1-.6-1.8.1-.1 6.9-15 11.5-33.6 4.5-18.1 1.5-26.4 1.5-26.5-.3-.7.1-1.4.8-1.7.7-.3 1.5.1 1.7.8.1.4 3.3 9-1.4 28.1-4.6 18.8-11.6 33.9-11.7 34-.2.5-.7.8-1.2.8-.3 0-.5 0-.6-.1zM204.4 111.1c0 .5.3 1 .8 1.2.2.1.3.1.5.1.4 0 .7-.1 1-.4 6.4-6.8 15.8-6.9 15.8-6.9.2 0 .3 0 .5-.1 0 0 .1 0 .1-.1h.2c.1.1.3.1.4.1h.5c11.5-3.4 19.4 11.4 19.5 11.5.2.4.7.7 1.2.7h.2c.6-.1 1-.5 1.1-1.1 1.4-7.2 4-19.3 5.3-21.2 2-2.9.8-5.8-.1-6.9-.5-.6-1.3-.6-1.9-.2-.6.5-.6 1.3-.2 1.9 0 .1.2.3.4.6-1.2.5-9.5 4-14.7 5.4-5.3 1.4-10.5 5.6-11.8 6.7-1.9-2.5-3.2-3.2-4.9-4.1-.9-.5-1.8-1-3.1-1.9-.9-.6-1.4-1.3-1.5-2-.1-1 .7-1.9.7-1.9s0-.1.1-.1c.1-.1.1-.2.1-.2 0-.1 0-.1.1-.2v-.3-.2c0-.1 0-.2-.1-.3 0-.1-.1-.1-.1-.2s0-.1-.1-.2l-.1-.1v-.1s-.1 0-.1-.1c-.1-.1-.2-.1-.3-.2-.1 0-.1 0-.2-.1h-.5c-.1 0-.2 0-.3.1-.1 0-.2.1-.2.1s-.1 0-.1.1c-8.1 6.6-8.2 20-8.2 20.6zm24.2-9.2c2-1.3 4.6-2.8 7.1-3.5 4.4-1.2 10.7-3.7 13.6-4.9-1.6 2.4-4 13.2-5.1 18.9-2.7-3.8-8.2-10.1-15.6-10.5zm-21.3 6c.4-3.2 1.4-8.1 4.1-11.9.4 1 1.2 2 2.4 2.8 1.4 1 2.5 1.5 3.4 2 1.1.6 1.9 1 2.7 1.9-3 .4-8.1 1.6-12.6 5.2z"/><path class="st1" d="M200.5 203.6c-.1.7.4 1.4 1.1 1.5h.2c.6 0 1.2-.5 1.3-1.1 0-.2.7-5.1.1-29.7-.6-23.3 9.6-47.1 10.5-49.1 2-2.6 3.9-6.2 4.6-7.6 1.5-.5 2.8-.5 3.7-.1.2.1.4.2.6.4l3.4 11.4c-.7 3-5.6 24.9-5.6 45.5 0 22.6 2 37.8 2 38 .1.7.7 1.2 1.3 1.2h.2c.7-.1 1.2-.8 1.1-1.5 0-.1-2-15.2-2-37.6 0-21.8 5.6-45 5.6-45.2.1-.2 0-.5 0-.7l-2.8-9.4.1-.1 2.9-4.8c4.5-1.8 9-6.5 9.2-6.7.5-.5.5-1.4-.1-1.9-.5-.5-1.4-.5-1.9.1 0 0-4 4.3-7.9 5.9-2.6-1.8-7.4-3.6-11.4-.6l-3.1-5.2c-.4-.6-1.2-.8-1.8-.5-.6.4-.8 1.2-.5 1.8l3.8 6.4.7 2.4c-.7 1.3-2.6 4.8-4.5 7.3-.1.1-.1.2-.2.3-.1.3-11.5 25.6-10.8 50.5.9 24 .3 28.9.2 29.1zm17.8-88.8l-.3-1c2.9-2.6 6.5-1 8.2 0l-1.5 2.4a5 5 0 0 0-1.6-1.1c-1.3-.7-2.9-.8-4.8-.3zM205.6 42.5l-12.9-1c-.7-.1-1.3-.7-1.2-1.4.1-.7.7-1.3 1.4-1.2l12.9 1c.7.1 1.3.7 1.2 1.4-.1.7-.6 1.2-1.3 1.2h-.1zm.1 17.5c.7 0 1.2-.5 1.3-1.2.1-.7-.4-1.4-1.2-1.5l-11.3-1.4c-.7-.1-1.4.4-1.5 1.2-.1.7.4 1.4 1.2 1.5l11.3 1.4c.1-.1.1 0 .2 0z"/><path class="st1" d="M253.8 228c-.3-.2-31.6-15.4-40.8-18.6-2.2-.8-4.1-1.5-5.9-2.1-5.8-2.2-10.4-3.9-20.7-5.5-13.4-2-43.3-3.5-43.6-3.5-.7 0-1.3-.7-1.3-1.4s.7-1.3 1.4-1.3c.3 0 30.4 1.5 43.9 3.6 10.6 1.6 15.3 3.4 21.3 5.6 1.8.7 3.6 1.4 5.8 2.1 9.3 3.2 39.8 18 41.1 18.7.7.3.9 1.1.6 1.8-.2.5-.7.7-1.2.7-.2 0-.4 0-.6-.1z"/><path class="st1" d="M0 226.8c0-.7.6-1.3 1.3-1.3h72.8c.7 0 1.3.6 1.3 1.3 0 .7-.6 1.3-1.3 1.3H1.3c-.7 0-1.3-.6-1.3-1.3zm149.6 1.3h112.7c.7 0 1.3-.6 1.3-1.3 0-.7-.6-1.3-1.3-1.3H149.6c-.7 0-1.3.6-1.3 1.3 0 .7.6 1.3 1.3 1.3zM126.1 200.4c-5.6-4-10.6-23.9-11.2-26.2-.2-.7.2-1.4.9-1.6l26.6-7.7c.4-.1.7-.1 1.1.1.3.2.5.5.6.9.2.8 4.2 20.2 2 27.3-1.1 3.6-4.4 6.7-8.8 8.2-1.7.6-3.4.9-5 .9-2.3-.1-4.5-.7-6.2-1.9zm-8.2-25.6c1.7 6.6 6 20.7 9.8 23.4 2.1 1.5 5.5 1.7 8.8.6 3.6-1.2 6.3-3.7 7.1-6.4 1.6-5.4-.9-19.9-1.8-24.5l-23.9 6.9z"/><path class="st1" d="M135.7 168.2l-2.6-10.8-16.4 3.9c-.7.2-1.4-.3-1.6-1-.2-.7.3-1.4 1-1.6l17.7-4.2c.7-.2 1.4.3 1.6 1l3 12c.2.7-.3 1.4-1 1.6h-.3c-.7.2-1.3-.3-1.4-.9z"/><path class="st1" d="M113.2 175.1c0-.1-1.8-8.3-3.2-14.7-.9-4.1-4.2-13.2-8-23.8-2.1-5.9-4.3-12.1-6.4-18.1-6-17.2-4.6-33.1-4.6-33.8 0-.1 0-.2.1-.3.1-.1 1.4-3.6 4.9-4.9 2.6-1 5.7-.6 9 1.2 9.8 5.3 25.6 25.4 27.1 43.8 1.5 17.8 3.1 31.1 3.1 31.3.1.7-.4 1.4-1.2 1.5-.7.1-1.4-.4-1.5-1.2 0-.1-1.7-13.5-3.1-31.4-1.5-18.1-17.5-37.3-25.7-41.7-2.7-1.4-5-1.8-6.8-1.1-2.1.8-3.1 2.7-3.4 3.3-.1 1.9-1 16.8 4.4 32.5 2.1 6.1 4.3 12.2 6.4 18.1 3.8 10.6 7.1 19.8 8.1 24.1 1.5 6.4 3.2 14.6 3.3 14.7.2.7-.3 1.4-1 1.6h-.3c-.5-.1-1.1-.5-1.2-1.1zM126.4 200.5l-17-6.8c-.7-.3-1-1-.7-1.7s1-1 1.7-.7l17 6.8c.7.3 1 1 .7 1.7-.2.5-.7.8-1.2.8-.1 0-.3 0-.5-.1z"/><path class="st1" d="M97 143.6h.3c.7-.1 1.2-.8 1-1.6 0-.1-2.6-12.9-4.7-25.8-2.1-12.8 0-29.7 0-29.9.1-.7-.4-1.4-1.2-1.5-.7-.1-1.4.4-1.5 1.2-.1.7-2.2 17.5 0 30.7 2.1 13 4.7 25.8 4.7 25.9.2.6.7 1 1.4 1zM106.6 229.5c-.4-.6-.2-1.4.4-1.8.6-.4 1.4-.2 1.8.4 2.2 3.3 4.7 5.3 5.2 5.1.5-.2.4-2.4.4-4.4-.1-2.9-.2-6.9.6-12.1 2-13.7-6-23-6.1-23.2-.5-.6-.4-1.4.1-1.9.6-.5 1.4-.4 1.9.1.4.4 8.9 10.3 6.7 25.3-.7 5-.6 8.9-.5 11.7.1 3.6.2 6-1.9 6.9-.4.2-.8.2-1.1.2-3 0-6.2-4.3-7.5-6.3z"/><path class="st1" d="M113.4 235c-.4-.6-.1-1.5.5-1.8 2.9-1.6 13.4-3.4 19.9-4.1 7.3-.9 16.7-3.5 16.8-3.5.7-.2 1.4.2 1.6.9.2.7-.2 1.4-.9 1.6-.4.1-9.7 2.7-17.2 3.6-8.3 1-16.9 2.7-18.9 3.8-.2.1-.4.2-.6.2-.5 0-.9-.3-1.2-.7zM82.4 234.5c0-.7.6-1.3 1.3-1.3 8.5-.1 22.1-4.8 24.7-6.6.6-.4-.6-3.7-1.3-5.6-1.4-3.8-3.2-8.9-3-14.3.3-7.7 2.2-10.2 4-11.3-.1-.5-.4-1.4-.6-2.2-.7-2.4-1.8-5.9-2.6-10.5-.6-3-1-6.4-1.5-10.1-.9-6.4-1.9-13.6-3.5-19.5-2-6.9-7.6-17.6-12.5-27-1.6-3-3-5.8-4.3-8.3-3.8-7.5-8.6-11.4-13.6-11h-.2c-.4.1-5 1-6.3 9.5-1.4 9-3 28 0 42.1 1.9 9.2 5.4 17 7.7 22.1 1.1 2.5 1.9 4.3 2.2 5.5.9 3.6 2.5 16 2.5 16.6.1.7-.4 1.4-1.2 1.5-.7.1-1.4-.4-1.5-1.2 0-.1-1.6-12.8-2.5-16.2-.3-1-1.1-2.8-2.1-5.1-2.3-5.2-5.9-13.1-7.9-22.7-3-14.5-1.4-33.9 0-43.1 1.8-11 8.5-11.8 8.8-11.8h.2c3.6-.3 10.4.9 16.2 12.4 1.2 2.5 2.7 5.3 4.3 8.2 5 9.5 10.6 20.3 12.7 27.5 1.7 6.1 2.7 13.4 3.6 19.9.5 3.6 1 7.1 1.5 10 .8 4.5 1.9 8 2.6 10.3.9 2.9 1.1 3.7.4 4.5-.2.2-.5.4-.7.5-.7.4-2.7 1.5-3 9.4-.2 4.9 1.5 9.5 2.8 13.3 1.4 4 2.6 7.2.3 8.7-3.3 2.3-17.5 7-26.2 7.1-.7 0-1.2-.6-1.3-1.3zm26.2-39.6z"/><path class="st1" d="M109.9 226.9h4.7c.7 0 1.3-.6 1.3-1.3s-.6-1.3-1.3-1.3h-4.7c-.7 0-1.3.6-1.3 1.3s.6 1.3 1.3 1.3zM95.5 203.5h.1c.7-.1 1.3-.7 1.2-1.5 0-.1-1.3-11.8 0-17.3l.3-1.4c1.3-5.6 3-12.6 1.1-22.6-3-16.2-7.7-26.4-11.1-33.8-6.6-14.2-11.8-20.7-12-21-.5-.6-1.3-.7-1.9-.2-.6.5-.7 1.3-.2 1.9.1.1 5.2 6.6 11.7 20.4 3.4 7.3 8 17.3 10.9 33.2 1.7 9.5.2 16.2-1.1 21.5l-.3 1.4c-1.4 5.9-.1 17.7 0 18.2.1.7.7 1.2 1.3 1.2zM76 232.9c-4.8-6.8-7.2-27.2-7.3-28.1 0-.4.1-.8.3-1 .3-.3.6-.4 1-.4h21.3c.6 0 1.1.4 1.3 1 .1.5 3.6 13.5.9 24-1.2 4.4-3.9 7.2-7.6 7.9-.6.1-1.2.2-1.8.2-3.5-.2-6.8-1.8-8.1-3.6zM71.5 206c.7 4.8 3 20.1 6.7 25.4.9 1.2 4.1 2.7 7.1 2.2 2.8-.5 4.6-2.5 5.5-5.9 2.1-8.2.1-18.4-.6-21.6H71.5z"/><path class="st1" d="M98.4 226.8c-.7-.3-1-1-.8-1.7 2.5-6.9-.3-17.4-1.4-21.1l-4.3 1.9c-.7.3-1.5 0-1.7-.7-.3-.7 0-1.5.7-1.7l5.7-2.4c.3-.1.7-.1 1.1 0 .3.1.6.4.7.8.2.6 5.3 14.9 1.9 24.3-.2.5-.7.9-1.2.9-.4-.2-.6-.3-.7-.3z"/><path class="st1" d="M75.1 203.5H97c.7 0 1.3-.6 1.3-1.3 0-.7-.6-1.3-1.3-1.3H75.1c-.7 0-1.3.6-1.3 1.3 0 .7.6 1.3 1.3 1.3zM70.3 186.3c-.1-.7.5-1.4 1.2-1.4l19.7-1.6c.7-.1 1.4.5 1.4 1.2.1.7-.5 1.4-1.2 1.4l-19.7 1.6h-.1c-.7.1-1.3-.5-1.3-1.2zM282.8 269.2l-40.5-78.1c-.2-.4-.2-.9 0-1.3s.7-.6 1.1-.7l104.9-2.8c.5 0 1 .3 1.2.7l33.6 64.8c.2.4.2.8 0 1.2-.2.4-.6.6-1 .7l-98 16.1h-.2c-.5.1-.9-.1-1.1-.6zm64.8-80.2l-101.9 2.7 39 75.4 95.2-15.7-32.3-62.4z"/><path class="st1" d="M276.1 255.9l-16.8-11.2c-.5-.3-.7-.9-.6-1.4.1-.5.6-.9 1.1-1l9.7-1.1c.7-.1 1.4.4 1.5 1.2.1.7-.4 1.4-1.2 1.5l-6.1.7 13.8 9.2c.6.4.8 1.2.4 1.8-.3.4-.7.6-1.1.6-.2 0-.5-.1-.7-.3z"/><path class="st1" d="M265.6 247.6c-.1-.7.4-1.4 1.1-1.5l5.7-.7c.7-.1 1.4.4 1.5 1.1.1.7-.4 1.4-1.1 1.5l-5.7.7h-.2c-.7 0-1.2-.5-1.3-1.1zM276.8 272c.7 0 1.3-.6 1.3-1.3V266c0-.7-.6-1.3-1.3-1.3-.7 0-1.3.6-1.3 1.3v4.7c0 .7.6 1.3 1.3 1.3z"/><path class="st1" d="M240.5 238.3v5.6c0 .4.2.8.5 1l42 33.1h.1c.2.2.5.2.7.2h.2l96.6-16.8c.2 0 .4-.1.6-.2 4.3-3.2 2-9 1.9-9.3-.3-.7-1.1-1-1.7-.7-.7.3-1 1.1-.7 1.7.1.2 1.5 3.9-.8 5.9l-39.9 7c.4-2-.1-3.4-.1-3.6-.2-.7-1-1.1-1.7-.9-.7.2-1.1 1-.9 1.7 0 0 .3 1.1 0 2.6-.1.2 0 .4 0 .6l-51.1 8.9c1-3.1-.3-6.1-1.3-7.4l-.3-.3-39.2-28.2L267 237c.7-.1 1.3-.7 1.2-1.5-.1-.7-.7-1.3-1.5-1.2l-25 2.6h-.1-.1c-.1 0-.2.1-.3.1-.1.1-.2.1-.3.2l-.1.1-.2.2v.1c-.1.1-.1.2-.1.3.1.2 0 .3 0 .4zm2.7 2.6l39.8 28.6c.4.6 1.7 3 .5 5.5l-40.3-31.8v-2.3z"/><path class="st1" d="M333 247.3l-2.2-4.1c-.3-.6-.1-1.5.5-1.8.6-.3 1.5-.1 1.8.5l2.2 4.1c.3.6.1 1.5-.5 1.8-.2.1-.4.2-.6.2-.5 0-.9-.3-1.2-.7zM139.1 288.6c-.2-.4-.3-.8-.2-1.2l15.2-41.1c.2-.5.7-.9 1.2-.9h56c.5 0 .9.3 1.2.7l22.2 41.1c.2.4.2.9 0 1.3s-.7.6-1.1.6h-93.4c-.4 0-.8-.2-1.1-.5zm71.5-40.6h-54.3l-14.2 38.5h89.3L210.6 248z"/><path class="st1" d="M159.1 293.8c-.2-.4-.3-.8-.2-1.2l1.9-5.2c.2-.7 1-1.1 1.7-.8.7.2 1 1 .8 1.7l-1.2 3.4h82.1l-24.7-40.3h-6.3c-.7 0-1.3-.6-1.3-1.3s.6-1.3 1.3-1.3h7.1c.5 0 .9.2 1.1.6l26.3 43c.3.4.3.9 0 1.3-.2.4-.7.7-1.2.7h-86.4c-.3-.1-.7-.3-1-.6z"/><path class="st1" d="M205.7 262.7c0-.7.6-1.3 1.3-1.3h2.7c.7 0 1.3.6 1.3 1.3 0 .7-.6 1.3-1.3 1.3H207c-.7 0-1.3-.6-1.3-1.3zM165.4 262.7c0-.7.6-1.3 1.3-1.3h5c.7 0 1.3.6 1.3 1.3 0 .7-.6 1.3-1.3 1.3h-5c-.7 0-1.3-.6-1.3-1.3zm10.1 0c0-.7.6-1.3 1.3-1.3h5c.7 0 1.3.6 1.3 1.3 0 .7-.6 1.3-1.3 1.3h-5c-.7 0-1.3-.6-1.3-1.3zm10 0c0-.7.6-1.3 1.3-1.3h5c.7 0 1.3.6 1.3 1.3 0 .7-.6 1.3-1.3 1.3h-5c-.7 0-1.3-.6-1.3-1.3zm10.1 0c0-.7.6-1.3 1.3-1.3h5c.7 0 1.3.6 1.3 1.3 0 .7-.6 1.3-1.3 1.3h-5c-.7 0-1.3-.6-1.3-1.3zM157.7 262.7c0-.7.6-1.3 1.3-1.3h2.7c.7 0 1.3.6 1.3 1.3 0 .7-.6 1.3-1.3 1.3H159c-.7 0-1.3-.6-1.3-1.3zM208.5 268.4c0-.7.6-1.3 1.3-1.3h2.7c.7 0 1.3.6 1.3 1.3 0 .7-.6 1.3-1.3 1.3h-2.7c-.7 0-1.3-.6-1.3-1.3zM163.2 268.4c0-.7.6-1.3 1.3-1.3h5.7c.7 0 1.3.6 1.3 1.3 0 .7-.6 1.3-1.3 1.3h-5.7c-.7 0-1.3-.6-1.3-1.3zm11.3 0c0-.7.6-1.3 1.3-1.3h5.7c.7 0 1.3.6 1.3 1.3 0 .7-.6 1.3-1.3 1.3h-5.7c-.7 0-1.3-.6-1.3-1.3zm11.4 0c0-.7.6-1.3 1.3-1.3h5.7c.7 0 1.3.6 1.3 1.3 0 .7-.6 1.3-1.3 1.3h-5.7c-.7 0-1.3-.6-1.3-1.3zm11.3 0c0-.7.6-1.3 1.3-1.3h5.7c.7 0 1.3.6 1.3 1.3 0 .7-.6 1.3-1.3 1.3h-5.7c-.7 0-1.3-.6-1.3-1.3zM154.8 268.4c0-.7.6-1.3 1.3-1.3h2.7c.7 0 1.3.6 1.3 1.3 0 .7-.6 1.3-1.3 1.3h-2.7c-.7 0-1.3-.6-1.3-1.3zM213.7 278.5c0-.7.6-1.3 1.3-1.3h2.7c.7 0 1.3.6 1.3 1.3 0 .7-.6 1.3-1.3 1.3H215c-.7 0-1.3-.6-1.3-1.3zM157.9 278.5c0-.7.6-1.3 1.3-1.3h5.6c.7 0 1.3.6 1.3 1.3 0 .7-.6 1.3-1.3 1.3h-5.6c-.7 0-1.3-.6-1.3-1.3zm11.2 0c0-.7.6-1.3 1.3-1.3h5.6c.7 0 1.3.6 1.3 1.3 0 .7-.6 1.3-1.3 1.3h-5.6c-.7 0-1.3-.6-1.3-1.3zm11.1 0c0-.7.6-1.3 1.3-1.3h5.6c.7 0 1.3.6 1.3 1.3 0 .7-.6 1.3-1.3 1.3h-5.6c-.7 0-1.3-.6-1.3-1.3zm11.2 0c0-.7.6-1.3 1.3-1.3h5.6c.7 0 1.3.6 1.3 1.3 0 .7-.6 1.3-1.3 1.3h-5.6c-.7 0-1.3-.6-1.3-1.3zm11.1 0c0-.7.6-1.3 1.3-1.3h5.6c.7 0 1.3.6 1.3 1.3 0 .7-.6 1.3-1.3 1.3h-5.6c-.7 0-1.3-.6-1.3-1.3zM149.7 278.5c0-.7.6-1.3 1.3-1.3h2.7c.7 0 1.3.6 1.3 1.3 0 .7-.6 1.3-1.3 1.3H151c-.7 0-1.3-.6-1.3-1.3zM164.7 257.7v-4.4c0-.7.6-1.3 1.3-1.3h38.7c.7 0 1.3.6 1.3 1.3v4.4c0 .7-.6 1.3-1.3 1.3H166c-.7 0-1.3-.6-1.3-1.3zm38.8-3.1h-36.1v1.8h36.1v-1.8z"/><path class="st1" d="M203.5 258.1c-.2-.7.1-1.5.8-1.7l2.8-1-2.8-1c-.7-.2-1.1-1-.8-1.7.2-.7 1-1.1 1.7-.8l6.5 2.2c.5.2.9.7.9 1.3 0 .6-.4 1.1-.9 1.3l-6.5 2.2c-.1 0-.3.1-.4.1-.6 0-1.1-.3-1.3-.9zM163.3 259.6l-4.9-2.3c-1-.5-1.6-1.4-1.5-2.5 0-1.1.7-2 1.7-2.4l4.8-1.9c.2-.1.3-.1.5-.1h11.4c.4 0 .7.2 1 .4l1.3 1.5c.5.5.4 1.4-.1 1.9s-1.4.4-1.9-.1l-.9-1h-5.8v5.3c0 .7-.6 1.3-1.3 1.3h-3.7c-.2 0-.4 0-.6-.1zm2.9-6.5h-2.1l-4.6 1.9 4.6 2.1h2.1v-4zM171.6 132c-.4-.6-.2-1.4.4-1.8 7.1-4.4 22-1.5 22.6-1.4.7.1 1.2.8 1 1.6-.1.7-.8 1.2-1.6 1-.1 0-14.5-2.8-20.7 1-.2.1-.5.2-.7.2-.3.1-.8-.1-1-.6z"/><path d="M245 50.2s-1.2 8.9-6.9 9.7c-18.7.7-14.8-13.8-14.8-13.8s-1.7.3-4.6-.3c-.6 11.2-6.5 12-13.6 10.6-1.6-.3-2.5-3.2-2.9-5-.3-1.9-1.1-4.3 1.4-6.5 7.8-3.3 15.1.8 15.1.8s2 1.1 5.4.1c11.5-2 19.2 3.4 20.9 4.4 1.7 1.1 6.9 7.7 6.9 7.7l-6.9-7.7z" fill="none" stroke="#3a3a3a" stroke-width="2.6" stroke-linecap="round" stroke-linejoin="round" stroke-miterlimit="10"/></svg>