<svg xmlns="http://www.w3.org/2000/svg" viewBox="0 0 106.4 99.2"><style>.animate,path{opacity:0}.animate{stroke-dasharray:1000;stroke-dashoffset:0;-webkit-animation:dash 3s linear 1s forwards;animation:dash 3s linear 1s forwards}@-webkit-keyframes dash{from{opacity:1;stroke-dashoffset:1000}to{opacity:1;stroke-dashoffset:0}}@keyframes dash{from{opacity:1;stroke-dashoffset:1000}to{opacity:1;stroke-dashoffset:0}}.st0{fill:none;stroke:#2e2e2e;stroke-width:2;stroke-miterlimit:10}.st3{fill:#25d6b4}@media all and
(-ms-high-contrast:none),(-ms-high-contrast:active){path{opacity:1}}</style><path class="st0 qw" d="M105.4 62.2H1V7.3C1 3.8 3.8 1 7.3 1h91.8c3.5 0 6.3 2.8 6.3 6.3v54.9z"/><path class="qw" d="M65.8 91H40.6l3.6-14.4h18L65.8 91z" fill="none" stroke="#25d6b4" stroke-width="2" stroke-miterlimit="10"/><path class="qw" d="M74.8 98.2H31.6c0-4 3.2-7.2 7.2-7.2h28.8c4 0 7.2 3.2 7.2 7.2" fill="none" stroke="#2e2e2e" stroke-width="2" stroke-linecap="round" stroke-linejoin="round" stroke-miterlimit="10"/><path class="st0 qw" d="M99.1 76.6H7.3c-3.5 0-6.3-2.8-6.3-6.3v-8.1h104.4v8.1c0 3.5-2.9 6.3-6.3 6.3"/><path class="st3 qw" d="M25.7 22.7c-.5.5-.7 1.3-.6 2 .1.8.5 1.5 1.1 2l9.4 7.3c1.4 1.1 2.3 2.7 2.5 4.5.2 1.7-.3 3.4-1.4 4.7-1.2 1.5-2.9 2.3-5.1 2.7v1.9c0 1-.8 1.8-1.8 1.8s-1.8-.8-1.8-1.8v-2c-4.2-.8-7.2-4.2-7.2-8.4 0-1 .8-1.8 1.8-1.8s1.8.8 1.8 1.8c0 2.9 2.3 5 5.4 5 1.9 0 3.3-.5 4.1-1.5.5-.5.7-1.3.6-2-.1-.8-.5-1.5-1.1-2L24 29.6a6.62 6.62 0 0 1-2.5-4.5c-.2-1.7.3-3.4 1.4-4.7 1.3-1.6 3.1-2.6 5.1-3v-2c0-1 .8-1.8 1.8-1.8s1.8.8 1.8 1.8v2c4.1.8 7.2 4.5 7.2 8.8 0 1-.8 1.8-1.8 1.8s-1.8-.8-1.8-1.8c0-3-2.4-5.4-5.4-5.4-1.6 0-3.1.7-4.1 1.9zM87.4 11.8v39.6c0 1-.8 1.8-1.8 1.8s-1.8-.8-1.8-1.8v-1.8H71.2c-1 0-1.8-.8-1.8-1.8s.8-1.8 1.8-1.8h12.6v-7.2h-7.2c-1 0-1.8-.8-1.8-1.8s.8-1.8 1.8-1.8h7.2V28H58.6c-1 0-1.8-.8-1.8-1.8s.8-1.8 1.8-1.8h25.2v-7.2H71.2c-1 0-1.8-.8-1.8-1.8s.8-1.8 1.8-1.8h12.6v-1.8c0-1 .8-1.8 1.8-1.8s1.8.8 1.8 1.8z"/></svg>