<svg xmlns="http://www.w3.org/2000/svg" viewBox="0 0 567.4 424.3"><style>.animate,path{opacity:0}.animate{stroke-dasharray:1000;stroke-dashoffset:0;-webkit-animation:dash 5s linear forwards;animation:dash 5s linear forwards}@-webkit-keyframes dash{0%{opacity:0;stroke-dashoffset:1000}15%{opacity:1}100%{opacity:1;stroke-dashoffset:0}}@keyframes dash{0%{opacity:0;stroke-dashoffset:1000}15%{opacity:1}100%{opacity:1;stroke-dashoffset:0}}.st0{fill:#2e2e2e}.st1{fill:#a16ac7}.st2,.st3{fill:none;stroke:#2e2e2e;stroke-width:3;stroke-linecap:round;stroke-linejoin:round;stroke-miterlimit:10}.head{transform:translateY(-120px);opacity:1;transition:.2s ease 1s}.head.animate{transform:translateY(0)}.head path{animation:unset;opacity:1}.st3{stroke:#a16ac7}@media all and
(-ms-high-contrast:none),(-ms-high-contrast:active){path{opacity:1}}</style><switch><g><g id="contour"><path class="st0" d="M245.7 365.5c-6.8 21.3-32.3 11.8-47.9 8.6-27.9-5.7-58.3-11.2-86.9-7.8-1.1.1-1.8-1.4-1.5-2.3 3.3-11.7 7.1-24.8 6.5-37 0-.7.6-2 1.5-1.9 15.8 2 31.7 3.9 47.6 5.6 5.5.6 12.2.7 18.9 1.2-20.5-19.5-44.4-40.4-46.5-70.2-.2-2.3 2.9-2.4 3.1-.1 1 14.5 7.9 28.3 17.6 38.9 10.1 10.9 20.6 21.5 31.2 31.9 12.6 1.5 24.6 5.3 29.2 17.4.8 2.1-2.1 3.3-2.9 1-4.7-12.6-21.1-14.3-32.6-14.9-8.2-.4-16.4-1.4-24.5-2.3-13.1-1.4-26.3-3-39.4-4.7.1 11.1-2.9 22.7-5.9 33.4 22.2-2.2 45.3 1.2 67.2 4.8 10.8 1.8 21.5 3.9 32.2 6.4 9.8 2.3 23.5 4.3 29.1-6.4 8.8-16.8-5.2-37.2-13.7-51.1-4.2-6.8-8.7-13.6-13.3-20.1-1-1.4-1.8-2.4-2.8-3.3-1.5-1.4 2.2-2.7 3.9-.7.6.7 1.2 1.6 1.9 2.5 4.8 6.8 9.4 13.7 13.7 20.8 8.8 14.8 20 32.6 14.3 50.3zM337.4 374.5c-1.9 3.3-4.8 2.8-8 2.7-2.2 3.4-9.4 2.6-12.6 2.1-4.6-.6-8.9-2.9-13.3-3.6-3.9-.6-10.9 1.6-15.3 2.4-6.3 1.1-13.4.4-18.8-3.4-8.3-5.9-5.7-14.8-3.4-23.2 2.4-8.6 5.5-17.2 8.9-25.5.9-2.2 3.5-.1 2.7 1.8-2.9 7-5.5 14.2-7.7 21.5-1.3 4.4-2.8 9-3.2 13.6-.7 8.1 8.2 11.7 15.2 12 6.9.3 13.6-3.1 20.4-2.9 2.4.1 4.4 1.1 6.7 1.8 2.4.7 17.3 3.8 16.6.7-.3-1.3-9.3-3.5-10.6-3.9-4.9-1.5-9.7-2.5-14.8-2.7-2-.1-2.1-3.8-.1-3.7 4 .2 26.2 3.2 29.5 9.4 1.7.2 3.8.7 5-.8.4-.4.4-1.4.5-2-.5-.2-1-.5-1.4-.5-1.6-.3-3.3-1-4.9-1.5-3.5-1.2-6.8-2.5-10.1-4.1-3.2-1.5-6.4-3.2-9.9-4.1-3.3-.9-6.2-.3-9.5-.6-5-.4-11.6-2.4-15.9-5.1-1.6-1-.4-4.4 1.5-3.2.7.4 1.5.9 2.3 1.3 2.3-6.5 4.6-13.1 6.9-19.6.8-2.2 3.4-.1 2.7 1.8-2.2 6.3-4.5 12.7-6.7 19 3.2 1.2 6.7 2 9.5 2.2 3.9.3 6.9-.3 10.9 1 9 2.9 17.2 7.6 26.4 10.1.5.1 1 .7 1.1 1.3.5 1.8.4 4-.6 5.7z"/><path class="st0" d="M116 331.9c-4.9 2.6-11.5 7.9-14.2 13.3-2 4-.7 8.5 4.3 8.6 2.4 0 1.6 3.4-.7 3.4-5.2-.1-9.2-3.7-8.4-9.1 1.3-8.8 10-15.9 17.4-19.8 2.1-1.1 3 3.1 1 4.1l.6-.5z"/><path class="st0" d="M116.5 331.3c-1.8-1.8-3.6-3.6-5.5-5.3-1.6-1.5-6.1-6.2-7.1-6.2-2.8.1-7.3 4.1-9.5 5.6-4.3 2.9-7 5.2-9.2 9.9-2.3 5-8.5 7.1-12.3 11.2-8 8.8-11 20.2-10 31.9-.4-.6-.8-1.2-1.2-1.7C74 380 73 363.3 81.9 359.6c9.4-3.9 21.5-7.5 31.6-5.7 1.9.3 1.3 3.9-.7 3.6-7.1-1.3-14.6.8-21.4 2.8-3.6 1.1-8.8 1.9-11.4 4.8-3.8 4.4-4 11.2-9.4 14.2-2.9 1.6-6.5 1.8-9.7 1-.8-.2-1.1-1-1.2-1.7-1-11.8 1.9-23.5 9.4-32.8 2.2-2.7 4.7-5.3 7.6-7.3.8-.5 1.7-.9 2.4-1.4 3.4-2.4 3-4.7 5.2-7.8 2.6-3.7 7.3-6.4 11-8.7 1.9-1.2 5.8-4.5 8.2-4.4 2.4 0 5 3.3 6.6 4.8 2.8 2.5 5.5 5.1 8.2 7.8 1.7 1.3-.2 4.2-1.8 2.5zM222.6 289.7c9.9 11.6 19.8 24.4 26.2 38.2 6.8 14.5 9.2 42.1-10.4 47.9-2 .6-2.8-3-.9-3.5 21.4-6.3 12.5-36.8 4.5-50.2-6.2-10.5-13.7-20.4-21.6-29.7-1.2-1.5.6-4.4 2.2-2.7z"/><path class="st0" d="M123.5 329.2c-1.7-2.1-3.5-4.1-5.4-6-2.9-3-5-5-9.1-2.2-1.8 1.3-3.2-2-1.6-3.1 3.7-2.5 7.3-2.5 10.5.4 2.8 2.5 5.3 5.4 7.7 8.3 1.3 1.5-.6 4.4-2.1 2.6zM104.9 357.3c-4.4.9-8.3 5-9 9.4-.7 4.2 2.3 7.3-2.2 10.5-3.9 2.8-5.8 2-8.5-1.5-3.7-4.8-3.6-10.7-1.7-16.2.8-2.3 3.3-.1 2.7 1.8-1.3 3.9-1.6 11.8 3.2 14 1.3.6 4-2 4.1-3.8 0-1.2-.8-2.4-.9-3.6-.2-6.2 5.3-13 11.4-14.2 2.1-.3 2.8 3.2.9 3.6zM322.2 351.1c-5.8.6-11.6 1.5-17.2 3.1-3 .8-7 1.8-9.3 4-.2-1-.5-2-.7-3.1 5.6 1.4 11 .5 16.7 2.5 7.4 2.6 13.5 7 21.5 7.4 16 1 32.1.9 48.1-.1 10.7-.7 22.9-1 32.9-5.1.8-.3 3.1-1.3 3.1-1.8 0-.6-4.4-2-5.2-2.3-6.3-2-13.1-2.8-19.7-3.5.3-1.1.4-1.7.4-1.7s0-.1.4-1.9c7 .7 14.2 1.6 20.8 3.9 2.5.9 6.3 2.3 6.4 5.5.1 6.7-14.8 7.7-19 8.4-18.6 2.9-37.6 3.2-56.4 2.7-4.9-.1-10-.1-14.9-.7-4.1-.5-7.6-2.1-11.4-3.9-4.8-2.2-9.9-5.1-15.4-5.1-3.7 0-5.4.1-9.2-.9-1.2-.3-1.6-2.2-.7-3.1 5.9-5.8 16.9-7 25.3-7.9l1.4 1.4c2.3 2.4 1.8 1.9 2.1 2.2z"/><path class="st1" d="M387 366.5c-1.1 2.1-3.6.1-2.7-1.8 11.8-23 9.1-50.8 0-74.1-9.6-24.8-25.4-45.4-48.6-58.7-44.9-25.7-101.7-33.4-151.4-18.1-20.7 6.4-45.2 19.6-45.9 44.1 6.8 11.7 24.1 11.1 35.8 13.8 12.6 2.8 24.5 8.2 35.3 15.1 1.6 1 2.8 1.9 3.8 2.8 21.4-3.4 45.2 5.9 63.6 16 2.8-13.5 6.1-26.9 10.9-39.8 4.3-11.6 10.5-26.4 22.6-31.8 10.5-4.7 21.1 1.1 29.1 7.9 10.4 8.9 18.5 20.3 25.9 31.7 5 7.8 9.8 15.8 13.9 24.1.9 1.8-1.5 4.1-2.6 1.9-8.3-16.7-18.5-33.1-31-46.9-7.2-7.9-17.6-18.2-29.3-16.7-13.3 1.7-20.3 17.4-24.6 28.3-5.5 14-9.2 28.8-12.2 43.6 0 .3-.1.7-.2.9-1.1 5.3-2.1 10.7-3.1 16 7.3 2.7 14.6 5.4 21.9 8.2 4.3-9.8 8.4-19.6 12.4-29.5 3.2-7.7 6.3-15.5 9.2-23.3 1.8-4.9 4.5-10.5 4.9-15.9.1-2.3 3.2-2.4 3.1-.1-.2 3.5-1.4 7.1-2.6 10.5.1.1.3.3.4.5 4.5 9 9 18.1 12.8 27.5 2 5 3.3 10.1 5 15.2 3 8.7 8 15.4 15.8 20.5 1.6 1.1.4 4.4-1.5 3.2-6.2-4.1-11.3-9.3-14.6-16.1-2.9-5.8-4.1-12.2-6.3-18.3-3.6-9.8-8.4-19.2-13.1-28.6-2.9 8.1-6.1 16.2-9.4 24.2s-6.6 16-10 23.9c12.2 13.8 25.3 28.3 41 38.3 1.6 1 .4 4.4-1.5 3.2-15.6-9.9-28.8-24.4-41-38.1-.8 2-1.7 4-2.5 5.9-.3.6-1 1.1-1.7.9-8.1-3.2-16.3-6.1-24.5-9.2-.9-.3-1.3-1.3-1.1-2.2 1-5.5 2.1-11.1 3.2-16.6-17.3-9.6-39.6-18.5-59.9-16.3-.7.1-2 .5-3.2.4h-.4c-.3-.1-.6-.2-.8-.5-1.5-1.4-3.2-2.4-5.9-4.1-13-7.9-26.9-12.6-41.8-15.3-10.8-1.9-22.5-3.4-28.4-13.7-.2-.2-.4-.6-.4-1v-.4c.4-20.9 16.5-34.9 34.4-43 24.1-10.8 52.1-13.7 78.3-12.6 28.4 1.2 55.4 8.9 80.9 21.5 24.8 12.3 42.7 30.9 54.4 55.9 12.2 26.8 17.5 59.6 3.6 86.7z"/><path class="st0" d="M255.3 424.3h144.8c.9 0 1.6-.7 1.6-1.6s-.7-1.6-1.6-1.6H255.3c-.9 0-1.6.7-1.6 1.6 0 .9.7 1.6 1.6 1.6z"/><path class="st2" d="M15.6 422.3h29.6M52.3 422.3h11.3M7.1 422.3H1.5M149.6 422.3h-4.2m-7.1 0H70.6M412.9 422.3h-5.6M451 422.3h-29.6m47.9 0H458m97.4 0h-4.2m-7.1 0h-67.7"/><path class="st3" d="M503.4 238.4c43.4-15.3 59.3 36.2 38.5 51.2 43.2 7.6 14.9 45.9 14.9 45.9M512 260.7s.7-14.4-8.4-21.7c-5.5-4.4-14.5-6.3-29.4-1m17.2-3.6c3.7-27.8-39.5-49.4-57.3-5.6m36.3-24.5c12.7-35-40-70.4-64.6-23.5m.6-1c-2.8-11.7-25-16.3-33.6 9.4M30.5 260.3s-26.8-44.8 21.2-48.5c-23.3-20.6 7.1-85 62.8-42.3m37.4-2.6c-41.8-19.6-43.7 20.8-43.7 20.8m88.5-26.5c-14.9-49.7-64.2-30.7-63.2 0m99.1-49.4c-21.8-53.7-83.1-20.7-73 18.8m108.1-6.1c-6.7-29.1-31.4-26.4-35.7-13.9"/></g><g id="head"><ellipse cx="380.5" cy="10.3" rx="65.5" ry="10" fill="none" stroke="#2e2e2e" stroke-width="3" stroke-miterlimit="10"/><g class="head"><path d="M401.5 2.8s-7 13-7 17-4 12 13 14 24 8 24 8 15 9 10 32-12 24-15 29-6 7-6 10-9 0-11-8c0 0-13 4-31-4-6-3-10 5-21 4-2 0-3-2 1-14 2-4-13-8-14-16s1-14 12-25c0 0-9.3-23.2-8.2-37.1 0 0-6.9-5.9-6.8-8.4s54-3.5 60-1.5z" fill="#f0fffa"/><path d="M433 45.5c-7.7-7-18.2-8.4-28.1-10.3-5.1-.9-10.8-3.8-12.1-8.9-3.3 3.9-6.5 8.6-7.3 13.6 3.8-.3 7.9.7 10.9 2.6 2.8 1.8 5 4.6 5 8.1 0 1.9-.7 3.8-2.1 5.2-1.4 1.4-3.3 1.1-4.7 2.1-1.3.9-1-.1-.3 2.7.4 1.7.9 3.5 1.5 5.2 1.1 3.1 2.5 5.9 4.2 8.7 2.8 4.6 6.3 8.8 8.3 13.8 2.9 7.3.9 23.9 11.6 24 2-8.5 10.9-15.3 15.1-22.8 7.5-13.4 10.7-32.6-2-44z" fill="none"/><path class="st0" d="M440.9 50.5c-4.7-9.2-13.8-14.1-23.5-16.6-5.5-1.4-23.8-1.7-21.8-11.2.2-1 1.8-2.4-1.1-2.2-.5-.1-1 0-1.5.5-4.9 5.2-9.9 12-10.7 19.4-2.9.9-5.4 2.6-6.8 5.6-.9 1.8 1.6 3.9 2.7 1.6 2.6-5.2 10-4.9 14.6-3.1 2.8 1.1 8.4 4.8 4 8.7-1.3 1.2-3.7.2-5 1.3-2.8 2.2-.3 7.8.5 10.5 1.4 4.8 3.7 9.1 6.4 13.3 2.7 4.1 5.6 8 7.3 12.6 1.5 4.3 1.4 8.8 2.2 13.1-2.9.4-5.9.4-8.8.2-3.8-.2-7.5-.8-11.2-1.8-3.1-.8-6.8-3.1-9.9-3.4-3-.3-7 1.1-10 1.7-2.5.5-5.2.8-7.6 1.7-1.8.6-1.8 1.2-2.4.4-1.3-1.7.6-6.7 1-8.5.5-2.3 1.4-4.2.1-6.4-3.1-5.5-11.8-5.7-13.5-12.9-3.4-14.6 14.6-20.9 18.6-32.5.6-1.9-1.9-4.1-2.7-1.8-.9 2.6-2.6 4.8-4.5 6.9-4.3-10.8-8.7-24.4-6.3-36 .4-2.1-2.5-3.2-3-.9-2.7 12.7 2.2 27.3 6.8 39.1 0 .1.1.1.1.2-2.2 2.2-4.6 4.4-6.4 6.8-3.6 4.8-6.5 11.2-5.9 17.3.7 6.8 5.7 9.4 10.5 13.2.6.4 1.1.7 1.7 1.1 2.2 1.3 2.7 3 1.5 5-.1 1.7-.9 3.4-1.1 5.1-.2 1.8-.4 3.8.2 5.6.7 2.1 1.4 2.7 3.4 2.6 5.9-.1 11.8-3.7 17.8-3.8 3.1-.1 5.7 1.5 8.8 2.4 3.5 1.1 7.1 1.8 10.8 2.2 4.2.4 8.6.6 12.8-.1 0 .1.1.2.1.3 1.8 5 6.5 8.6 11.9 8.1.7-.1 1.3-.7 1.4-1.4.7-5.2 4.4-8.4 7.5-12.2 3.5-4.2 6.6-8.8 9.1-13.7 5.9-11.7 8-26 1.9-38zm-5.9 39c-4.2 7.4-13.1 14.3-15.1 22.8-10.6 0-8.7-16.7-11.6-24-2-5-5.5-9.2-8.3-13.8-1.7-2.8-3.1-5.6-4.2-8.7-.6-1.7-1.1-3.5-1.5-5.2-.7-2.8-1-1.8.3-2.7 1.4-1 3.3-.7 4.7-2.1 1.4-1.4 2.1-3.3 2.1-5.2 0-3.5-2.2-6.3-5-8.1-3.1-1.9-7.1-2.9-10.9-2.6.8-5 3.9-9.7 7.3-13.6 1.3 5.1 7 8 12.1 8.9 9.9 1.9 20.4 3.3 28.1 10.3 12.7 11.4 9.5 30.6 2 44z"/><path class="st1" d="M403.6 5.6c-3.5 5.3-5.7 11.6-8.2 17.4-.1.5-.4 1-.9 1.1-.1.1-.3.1-.5.1h-.1c-17-1-40.4-3.9-52.4-17.4-1.3-1.5.6-4.4 2.1-2.6 7.4 8.3 19.7 11.4 30.2 13.5 6.3 1.3 12.7 2.3 19.1 2.7 2.4-5.9 4.8-12.1 8.3-17.4 1.4-1.9 3.4 1 2.4 2.6z"/><path class="st0" d="M392.9 100.2c1.6-1.6 1.3-4.8.8-6.9s2.4-3.4 2.9-1c.8 3.2 1.1 7.9-1.5 10.5-1.7 1.6-3.6-1.2-2.2-2.6zM387.3 97c-.4 1.2-2.7 1.5-5 .6s-3.9-2.5-3.5-3.7 2.7-1.5 5-.6c2.3.8 4 2.5 3.5 3.7z"/></g></g></g></switch></svg>