<svg xmlns="http://www.w3.org/2000/svg" viewBox="0 0 530.2 404.4"><style>.animate,path{opacity:0}.animate{stroke-dasharray:1000;stroke-dashoffset:0;-webkit-animation:dash 3s linear forwards;animation:dash 3s linear forwards}@-webkit-keyframes dash{0%{opacity:0;stroke-dashoffset:1000}15%{opacity:1}100%{opacity:1;stroke-dashoffset:0}}@keyframes dash{0%{opacity:0;stroke-dashoffset:1000}15%{opacity:1}100%{opacity:1;stroke-dashoffset:0}}.st0{fill:#2e2e2e}.st1{fill:#25d6b4}.st2{fill:none}.st3,.st4{fill:none;stroke:#25d6b4;stroke-width:3;stroke-linecap:round;stroke-linejoin:round;stroke-miterlimit:10}.st4{stroke:#2e2e2e}.pen{transform:translateX(95%);transition:1.55s linear}.pen.animate{transform: translateX(0)}@media all and
(-ms-high-contrast:none),(-ms-high-contrast:active){path{opacity:1}}</style><switch><g><g id="Слой_1"><g id="Слой_3"><path class="st0" d="M382 126.3c-3.7 2.3-7.5 4.6-11.2 6.8-1.7 1-3.6 2.1-4.9 3.6-1.5 1.6-2.6 3.5-4.2 5.1-1.8 1.8-3.8 3.4-5.7 5.1-.7.6-1.5 1.2-1.5 2.2 0 1.7 1.4 1.1 2.3.3.8-.7 1.9.5 1.1 1.2-.9.9-2.8 2.1-4 1.3s-1.2-3-.8-4.1c.8-1.9 3.3-3.3 4.8-4.5 2.5-2.1 4.3-4.5 6.4-7 2.4-2.9 6.1-4.5 9.3-6.4 2.6-1.5 5.1-3.2 7.6-4.7.9-.9 1.7.6.8 1.1z"/><path class="st1" d="M385.3 125.4l-3.2-1 1.6-2.9c.2-.3.2-.7 0-1s-.6-.5-1-.6c-.3 0-.6.2-.8.5l-2.2 4c-.2.3-.2.6 0 .9.1.3.4.5.7.6l4.4 1.4c.1 0 .2.1.3.1.5 0 .8-.3.9-.7.2-.4 0-1.1-.7-1.3z"/><path class="st0" d="M393.8 130c-1.7 4.5-4.9 8.5-9.3 10.8-.1 0-.2.1-.3.1-1.8 4.2-6.4 14-9.4 10.1-.2-.3-.3-.6-.1-1 1.3-2.9 2.2-6.1 3.1-9.2-2.6 2.1-4.2 5.9-6.2 8.4-1.2 1.5-4.7 4.6-6.1 1.5-.5-1.1.1-2.2.8-3.3-3.8 3.1-8.6 6.1-9.9 1.7-.1-.3 0-.6.2-.8 4.9-4.6 9.6-9.4 14.8-13.7 2-1.7 4.3-2.8 6.5-4.3 2.5-1.6 4.9-3.4 7.2-5.1.8-.6 1.6.8.8 1.4-3.2 2.4-6.5 4.9-10 6.9-3.6 2-6.6 4.9-9.6 7.8-1.9 1.7-3.7 3.5-5.5 5.2-.6.6-1.3 1.2-1.9 1.8-.2.2-.4.5-.7.7.9.4-.4 1.4 2.2.4.4-.2.9-.5 1.3-.7 1.3-.9 2.6-1.9 3.8-2.9 1.3-1.1 2.6-2.3 3.9-3.4l2.1-3.6c.5-.9 1.9 0 1.4.8l-2.1 3.6s0 .1-.1.1c-.2.3-.4.7-.6 1l-1.8 3c-.3.5-1.3 1.6-1.4 2.1-.2 2.2 2.6-.4 3.1-1.1 1-1.2 1.8-2.6 2.7-3.8 1.4-2.2 3-4.7 5.5-5.9l.6-2.1c.3-1 1.8-.5 1.5.5-1.3 4.4-2.4 9-4.2 13.3 1.2.2 3.1-3.6 3.5-4.3 1.3-2.2 2.5-4.5 3.4-7 .3-.7 1.2-.6 1.5-.1 3.4-2.1 6-5.4 7.4-9.1.8-1.2 2.3-.7 1.9.2z"/><path class="st1" d="M397.8 125.1l-2.4 6.2c-.1.4-.4.6-.8.7h-.2c-.3 0-.5-.1-.7-.3-2.6-2.5-6.1-4.4-9.1-5.9-.2-.1-.4-.3-.5-.6-.1-.3-.1-.6.1-.8l2.3-4c.2-.3.5-.5.8-.5.4 0 .8.2 1 .6.2.3.2.7 0 1l-1.7 3c2.6 1.3 5.2 2.9 7.4 4.7l1.8-4.7c.1-.4.4-.6.8-.7s.8.1 1.1.4c.2.2.2.5.1.9z"/><path class="st0" d="M404 58c-.8 2.9-1.5 5.8-2.2 8.7-.7 2.8-1.3 5.7-2.1 8.5-1.7 6.2-3.8 12.7-6.6 20.1-2.6 6.9-5.5 13.8-8.4 20.5-.5 1.2-1 2.3-1.5 3.5l1.2.5 2.2.9c.6.3 1 .9.8 1.6-.1.6-.6 1-1.1 1-.2 0-.3 0-.5-.1l-4.8-1.9c-.4-.2-.7-.4-.8-.8-.1-.3-.1-.7 0-1.1.7-1.7 1.5-3.4 2.2-5.2 2.8-6.6 5.7-13.4 8.2-20.2 2.9-7.7 4.9-14 6.5-19.8.7-2.7 1.4-5.4 2-8.1.7-2.9 1.4-5.9 2.2-8.8.2-.6.6-.9 1.2-.9.4 0 .9.2 1.1.5.5.3.6.7.4 1.1zM412.3 9c.1 2.5-1 4.1-2.9 4.4-.7 2.2-2.4 3.5-4.7 3.5-.7 0-1.3-.1-2-.3-.6-.2-1-.8-.9-1.5.1-.6.6-1.1 1.2-1.1.1 0 .3 0 .4.1.4.1.9.2 1.2.2 1.4 0 2.2-.9 2.5-2.4.1-.5.6-1 1.2-1h.2c1 0 1.2-1.1 1.2-1.8 0-1.7-1-3.8-2.2-3.8-.2 0-.5.1-.7.3-.2.1-.4.2-.6.2-.5 0-1-.3-1.2-.7-.7-1.6-3-2.4-4.9-2.4-1.2 0-2.2.3-2.7 1-.3.4-.4.8-.4 1.3.8.6 1.6 1.2 2.3 1.9.4.4.5.9.3 1.4-.1.4-.6.7-1.2.7-.3 0-.6-.1-.9-.4-2.8-2.6-5.6-3.8-8.8-3.8-.5 0-1.1 0-1.7.1-5.3.6-9.1 2-11.7 4.2-2.6 2.3-7.2 8.5-6.7 12.3.2 1.2.8 2 2 2.6.5.2.8.8.7 1.3-.1.6-.7 1.1-1.3 1.1-.2 0-.4 0-.6-.1-1.9-.9-3.1-2.3-3.4-4.2-.8-5.1 4.5-12.1 7-14.5 3.9-3.7 9.9-5 14.1-5.4.5 0 1-.1 1.5-.1 2.1 0 4 .4 5.9 1.3.2-.6.4-1.1.8-1.6 1-1.2 2.9-2 5-2 2.6 0 5 1.1 6.3 2.7.3-.1.7-.2 1-.2 2.7.3 4.6 3.7 4.7 6.7z"/><path class="st0" d="M399.2 48.4c-.1.6-.6 1-1.1 1-.1 0-.3 0-.5-.1-3-1.1-5.9-2.3-8.8-3.4h-.1c-1.8 2-4 3.5-6.6 3.5-3.5 0-5.9-3.6-7.8-6.5-.3-.5-.7-1-1-1.5-.3 0-.7-.1-1-.2-.1 0-.2-.1-.3-.1h-.2c-.8-.2-2.1-.5-2.8-1.3-1.3-1.6.2-3.6 1.2-4.9.2-.2.3-.4.4-.6.8-1.2.6-1.6-.2-2.9-.9-1.4-1.4-2.6-1.6-4-.4-2.4-.1-5.1.7-7.5.2-.5.7-.9 1.2-.9.4 0 .9.2 1.1.6.2.3.3.7.1 1.1-.6 1.9-.9 3.9-.7 5.8.1 1.2.7 2.1 1.3 3.1.6.9 1.1 1.8 1.3 3 .2 1.4-.6 2.5-1.4 3.5-.2.3-.4.5-.6.8l.2.1c-.2.3-.6.9-.6 1 0 0 .1.2.7.4.2.1.5.1.8.1.5.1 1 .1 1.4.3.7.4 1.1.9 1.4 1.4.1.1.2.3.3.4 1.5 2.2 3 4 4.6 5.3.6.5 1.2.8 1.9.8 3.1 0 6.5-5.3 7.4-8.1.2-.6.6-.9 1.2-.9.4 0 .9.2 1.1.6.2.3.3.7.2 1.1-.4 1.3-1.1 2.8-2 4.3 2.6 1 5.3 2.1 8 3.1.6.2.9.9.8 1.6z"/><path class="st1" d="M406.2 58.6c-.3.1-.5.1-.8.1-1.6 0-3-1.3-3.6-1.9-2-2-3.2-5-3.8-9.1-.6-4.3-.4-9.2.5-14 .1-.6.6-.9 1.1-.8.6.1 1 .6.9 1.3-.6 3.1-.9 6.4-.7 9.8.1 3.3.6 5.8 1.4 7.9.8 2 2.7 5.1 4.5 4.5.6-.2 1.1.2 1.2.7.1.7-.1 1.3-.7 1.5z"/><path class="st0" d="M433.3 48.7c-1.3 6.1-5.1 11.9-8.9 17.3-3.4 4.9-5.7 10.6-8 16.4-1.7 4.4-3.3 9-4.9 13.3-1.8 5.1-3.7 10.5-5.8 15.6-.5 1.1-.9 2.3-1.4 3.4-1.6 3.7-3.1 7.2-3.7 11.1-.1.6-.6 1-1.3 1h-.3c-3.6-.8-7-2.4-10.4-3.9l-2.7-1.2c-.6-.3-1.1-.9-.8-1.6 1.3-3.7 2.8-7.4 4.2-10.9l.9-2.4c2.8-7.1 5.2-14.5 7.5-22 3.5-11.2 6-22.9 8.3-34.2.3-1.4.6-2.7.9-4.1.1-.6.6-1 1.2-1 .4 0 .8.2 1.1.5.3.3.3.7.3 1.1-.3 1.4-.6 2.7-.9 4.1-2.4 11.3-4.8 23-8.4 34.3-2.4 7.5-4.7 14.9-7.6 22l-.9 2.4c-1.3 3.2-2.6 6.5-3.8 9.8.5.2 1 .4 1.4.7 2.9 1.3 5.9 2.7 8.9 3.5.7-3.4 2-6.4 3.3-9.6.2-.5.4-1 .6-1.4 2.2-5.2 4.1-10.5 5.8-15.2.9-2.4 1.7-4.9 2.6-7.4 2.7-7.8 5.4-15.8 9.7-23.1 1.1-1.8 2.3-3.6 3.4-5.4 2.9-4.3 5.9-8.8 7-13.9.1-.6.6-1 1.2-1 .4 0 .8.2 1.1.5.3.5.4.9.4 1.3z"/><path class="st0" d="M407 56.7c-.2.5-.6.9-1.1.9-.3 0-.5-.1-.7-.3-4.2-3.3-4.8-8.5-4.7-13.5 0-2.8.5-6.6 2.4-9.7l-.9-.3c-.6-.2-1-.8-.9-1.5s.6-1.1 1.2-1.1c.1 0 .3 0 .4.1l2.7.8c.4.1.8.5.9.9s0 .9-.3 1.3c-2.3 2.5-2.8 6.5-2.9 8.6-.2 4.8.1 9.5 3.5 12.2.4.4.6 1 .4 1.6zM460.1 129.1c-1.9 4.5-7 7.5-11.3 8.7h-.3c-.4 0-.9-.3-1.1-.7s-.2-.9 0-1.3c2.9-4.9 1.1-9.9-1.4-15.3l-.3-.6c-3.7-8.2-7.3-16-11.6-23.7l-.6-1c-1.7-3-3.4-6.1-4.7-9.3-.9-2.2-1.8-4.8-1.1-7.2 1.4-5 7.3-8.6 10.7-10.2.2-.1.4-.1.6-.1.6 0 1.2.5 1.3 1.1.1.6-.1 1.1-.6 1.4-3.9 1.9-10.4 5.9-9.5 11 .5 3 2.1 5.8 3.6 8.6l.5.9c.8 1.5 1.7 3 2.5 4.5 1.3 2.3 2.6 4.6 3.8 7 3.8 7.4 7 14.5 9.6 21 1.4 3.6 1.6 7.2.7 10.4.7-.3 1.3-.7 2-1.1 1.6-1 2.5-2.2 3.4-3.4.4-.6.9-1.2 1.5-1.8 0-.2-.1-.3-.1-.5 0-.1-.1-.3-.1-.4-.3-1.5-.7-3.1-1-4.6-.4-1.6-.7-3.3-1.1-4.9-1.6-7.2-3.3-14.7-6-21.5-1.7-4.4-5.2-8.9-10.3-13.3-.4-.4-.5-.9-.4-1.3.2-.5.7-.9 1.3-.9.3 0 .6.1.9.3 1 .9 2 1.8 2.9 2.7l3.1-1.4 6.6-3c.2-.1.4-.1.6-.1.6 0 1.2.5 1.3 1.1.1.6-.1 1.1-.7 1.3l-4.1 1.9-4.8 2.2c2.5 2.8 4.4 5.6 5.6 8.4 1.6 3.4 2.5 7.1 3.5 10.8.2.6.3 1.2.5 1.8 1.2 4.5 2.4 9.5 3.8 15.7.1.4.3 1 .4 1.5.4 1.7 1.1 3.8.4 5.3z"/><path class="st0" d="M465.6 142.8c0 .5-.3.9-.7 1.1l-3.2 1.7-.6.3c-.2.1-.4.2-.6.2-.6 0-1.1-.4-1.3-1l-.6-1.8-.5-1.3c-1.9.6-3.4 1.8-4.6 3.8-.1.2-.3.5-.4.7-1.3 2.1-2.6 4.2-5.1 5.3-1.8.8-4.2 1.2-7.3 1.2-1.7 0-3.4-.1-4.9-.2-.6 0-1.1-.1-1.6-.1h-.4c-.9 0-2.2 0-2.7-1.2-.8-1.8 1.5-4.6 2.9-5.4.9-.4 1.8-.6 2.8-.8.5-.1 1-.2 1.4-.3 2.1-.5 3.6-1.3 4.8-2.6 2-2 3.5-4.7 4.5-6.6.2-.4.6-.7 1.1-.7s.9.3 1.2.7c.2.4.3.9 0 1.3-2.1 4.1-4.6 8-8.6 9.7-1.4.6-2.9.9-4.3 1.2h-.1c-.7.1-1.1.2-1.6.6-.5.3-.6.7-.8 1.1 0 .1-.1.2-.1.3.8.1 1.6.1 2.4.1H440.8c4.2 0 7.4-.6 9.5-3.8l.5-.7c2-3 3.9-5.9 8.1-6.6h.2c.2 0 .5.1.6.2h.1c.1 0 .1.1.2.1.2.2.4.4.4.6l.9 2.6v.1c.6-.4 1.2-.7 1.8-.9v-.7-.7c-.2-4.1-.8-8.7-4.4-11.2-.5-.4-.7-1-.5-1.5s.6-.9 1.1-.9c.2 0 .5.1.7.2 4.9 3.8 5.6 10.2 5.6 15.9zM510 135.4c-.2.1-.4.2-.6.2s-.5-.1-.7-.2c-.1-.1-.2-.1-.3-.2-.3-.3-.5-.7-.4-1-.5-1.5-2.3-3.3-5.2-5.1-2.8-1.7-5.7-3.2-8.6-4.7-.6-.3-1.3-.6-1.9-1-6-3-12-6.4-17.8-10.1l-.9-.6c-4.8-3-9.7-6.1-13.7-10.1-3.6-3.5-3.2-8.7-2.3-13.3.1-.6.6-1 1.1-1 .4 0 .8.2 1.1.5.3.3.4.7.3 1.1-.3 1.6-1.2 6.3 0 8.9.7 1.4 2.1 2.6 3.4 3.6.2.1.4.3.5.4 5.2 4.3 11 7.8 16.4 11.1 4.6 2.8 9.5 5.3 14.3 7.7 1.4.7 2.9 1.5 4.3 2.2l.5.2c2.6 1.3 5.2 2.7 7.5 4.6.7.6 3.2 2.9 3.6 5.1.2.9-.1 1.4-.6 1.7zM518.1 123.5c0 .8-.7 1.2-1.3 1.2-.4 0-.7-.1-1-.4-.1-.1-.2-.2-.2-.3l-.1-.1c-.4-.2-.9-.4-1.4-.5l-.2-.1-1.2-.3c-.6-.2-1.3-.3-1.9-.6-1.5-.6-2.8-1.5-4.1-2.4-4.3-2.9-8.3-6.2-12.2-9.4-1.7-1.4-3.3-2.9-5.1-4.5-5.9-5.3-12.1-10.8-19.5-12.8-.6-.2-1-.7-.9-1.4.1-.7.6-1.2 1.2-1.2h.3c7.9 2.1 14.5 7.9 20.8 13.6 1.9 1.7 3.6 3.2 5.4 4.7l1.2 1c3.8 3.1 7.7 6.3 11.9 8.9 1.1.7 2.2 1 3.5 1.3.9.2 1.7.5 2.7.9.8.5 2.1 1.1 2.1 2.4z"/><path class="st2" d="M527.4 132.8c-.3-.4-.5-.8-.8-1.3-.2-.3-.3-.6-.5-.8-2.5-3.8-4.9-6.3-8.6-6.7.3 4.5-1.6 9.5-6.7 10.9.7 2.8 1.5 7.9-1.1 10.1-1.2 1-2.9 1.2-4.3 1.3-.5 0-1 .1-1.4.2-2.3.4-2.9 1.5-3 3.3.6 0 1.2 0 1.9.1 1.3 0 2.6.1 3.8.1 2.8 0 4.9-.2 6.7-.7 4.1-1.1 5.1-5.6 5.5-9.9.2-2.4 1.5-4.8 3.4-6.5 0 0 .1 0 .1-.1.2-.2.5-.4.8-.4s.5.1.7.3l2.5 1.9c.3-.5.6-1.2 1-1.8z"/><path class="st0" d="M528.3 129.3c-.2-.3-.4-.5-.5-.7-2.6-3.8-5.7-7.2-11.1-7.2h-.8c-.8 0-1.3.7-1.2 1.4 0 .3.1.5.3.7v.1c.5 3.7-1 8.1-5.5 8.9-.4.1-.7.3-.8.6-.2.1-.3.2-.4.3-.2.3-.3.7-.2 1.1.6 2.1.9 4.3.7 6.2-.3 2.6-1.9 2.8-4.1 3-.7.1-1.3.1-2 .3-4 .9-4.3 4.2-4.1 7 0 .7.6 1.3 1.3 1.3h1.6c1.6 0 3.3 0 5-.1h1.7c2.2 0 4.4 0 6.4-.6 3.2-1 5.5-4.4 6.5-7.3.3-1.1.4-2.2.5-3.2.1-1.2.2-2.3.6-3.3.3-.8.8-1.6 1.4-2.3l2.8 2.2c.2.2.4.2.7.2.5 0 .9-.3 1.1-.7.2-.3.4-.7.7-1.1.7-1 1.6-2.2 1.6-3.2-.2-1-1.3-2.5-2.2-3.6zm-4.4 3.5c-.2-.2-.5-.3-.7-.3-.3 0-.6.1-.8.4 0 0-.1 0-.1.1-1.9 1.7-3.1 4.1-3.4 6.5-.4 4.3-1.4 8.8-5.5 9.9-1.8.5-3.9.7-6.7.7-1.3 0-2.6 0-3.8-.1-.6 0-1.2 0-1.9-.1 0-1.8.6-2.9 3-3.3.4-.1.9-.1 1.4-.2 1.5-.1 3.1-.3 4.3-1.3 2.6-2.2 1.8-7.2 1.1-10.1 5.1-1.4 7-6.3 6.7-10.9 3.7.4 6.1 2.9 8.6 6.7.2.3.3.5.5.8.2.4.5.9.8 1.3-.4.6-.7 1.2-1.1 1.9l-2.4-2z"/><path class="st1" d="M502.8 52.6c-.1 6.2-4.2 11.5-8.7 16.3-1.5 1.6-3 3.1-4.5 4.6l-3.3 3.3-.1.1c-2.1 2.1-4.3 4.4-5.3 7.2-.3 1-.4 2-.5 2.9 0 .7-.1 1.5-.3 2.3v.2c-.1.4-.1.6-.5.9-1.1 1.2-3.5 1.7-5.3 2.1-.4.1-.7.2-1 .2-1.3.3-2.7.5-4.1.5-4.1 0-8.5-1.4-12.6-4.2-.4-.3-.6-.7-.5-1.2l.3-2.7c-.1-.1-.2-.2-.2-.3-1.9-3.7-4.2-7.5-8.4-10.4-2.9-2-6.3-3.3-9.4-3.7-.4 0-.9-.4-1-.9-.1-.4 0-.7.3-.9.1-.1.2-.2.4-.3v-.1h.1c3.5-2.8 6.7-5.1 9.7-7.2.4-.3 1-.2 1.3.2.3.5.3 1.2-.2 1.6-2.5 1.8-5.1 3.7-7.9 5.9 2.7.7 5.5 1.9 7.9 3.5 3.7 2.5 6.1 5.8 7.9 8.9.2-2.7.3-5.5.4-8.2v-1c0-.7.6-1 1.1-1s1 .4 1 1.1v.6c-.2 4.8-.4 9.8-1.1 14.6 1.5.9 3.1 1.7 4.9 2.4 3.7 1.4 7.2 1.4 11.6.1.3-.1.7-.3 1.2-.5.7-.4 1.5-.7 2.1-.8-.3-2.5.7-5.6 1.7-7.5 2-3.6 5.1-6.5 8.1-9.3 1.1-1.1 2.2-2.1 3.2-3.1 4.3-4.3 9.6-9.7 9.6-16.3 0-.4.2-.7.5-.9s.8-.2 1.1 0c.3.3.5.6.5 1z"/><path class="st0" d="M406.6 30c-1.3 2.3-3.5 4-6.2 4.6-1.1.5-2.2.7-3.3.7-1 0-1.9-.2-2.7-.6-.5.7-1.1 1.3-1.9 1.6-.2.1-.3.1-.5.1-.6 0-1-.4-1.1-1-.1-.7.2-1.3.8-1.5.6-.2 1.1-1.6 1.3-2.3l.1-.2.1-.4c.5-1.3 1.3-3.4.5-4.4-.2-.3-.6-.4-1-.4-.5 0-1.2.2-1.6.5-1.1.8-.7 2.4-.6 2.9.1.4 0 .8-.2 1.1-.2.3-.6.5-1.1.5-.6 0-1.1-.4-1.2-1-7.9-.8-16.9-2.8-18.9-11.3-.1-.4 0-.8.2-1.1.2-.3.6-.5 1.1-.5.6 0 1.1.4 1.2 1 1.6 6.8 9 8.6 16.3 9.3.2-1.1.6-2.1 1.5-2.8.9-.7 2.1-1.2 3.3-1.2.9 0 1.8.3 2.4.8 2.4 1.8 1.3 5.4.7 7.3-.1.2-.2.5-.3.8.5.2 1 .3 1.6.3.8 0 1.6-.2 2.3-.5.1 0 .1 0 .2-.1 0 0 .1 0 .1-.1.9-.2 1.8-.6 2.5-1.1-.9-.1-1.5-.4-2-1-.6-.6-.9-1.5-.8-2.7.1-1.6.6-3 1.2-4.4.6-1.5 1.1-2.9 1.1-4.5 0-2-.3-4-1-5.6-.2-.4-.2-.9.1-1.3.3-.4.7-.6 1.1-.6.5 0 .9.3 1.1.7 1.2 2.5 1.6 5.6 1.2 8.6-.2 1.4-.6 2.6-1.1 3.7-.3.8-.7 1.7-.9 2.6-.2.8-.2 1.3 0 1.6.2.2.5.3.9.3.5 0 1.1-.1 1.9-.4h.3c.4 0 .8.2 1.1.6.4.5.4 1 .2 1.4zM471.3 52.4c-.2.4-.6.6-1.1.6s-1-.3-1.2-.7-.2-.8.1-1.2c.4-.6.5-1 .3-1.4s-1.1-1.2-5.6-1.2c-3.3 0-7 .5-7.8.7-2.5.6-5.2 1.2-7.2 3-1 .9-1.9 2.1-2.7 3.2-.3.4-.6.7-.8 1.1-5.5 7-13.7 11.3-23.2 12.1h-.1c-.7 0-1.2-.5-1.2-1.2 0-.6.4-1.3 1.2-1.4 5.5-.4 10.8-2.2 14.9-5 2.6-1.8 4.8-3.9 6.8-6.6l.4-.5c1.1-1.5 2.3-3.1 4-4.3 3.4-2.4 8.8-3.9 14.5-3.9 1.3 0 2.5.1 3.7.2 2.2.3 4.9 1.2 5.7 3.1.4.9.2 2.1-.7 3.4z"/><path class="st0" d="M496.9 56.1c-5 1.7-10.3 2.8-15.5 3.8-2.7.5-5.4 1.1-8.1 1.8-.5.1-.9.2-1.4.3-4.5 1.1-10.2 2.4-13.2 6-.2.3-.5.4-.9.4-.5 0-1-.3-1.2-.7-.8-1.8-.9-4.2-.4-7.1.1-.4.2-.9.3-1.3.3-1.2.6-2.3.6-3.3-1.3-.5-2.7-.7-4.1-.7-3.3 0-7 1.2-10.2 3.5-.2.1-.4.2-.7.2-.5 0-1-.4-1.2-1s0-1.2.5-1.5c3.6-2.5 7.8-3.9 11.6-3.9.8 0 1.5.1 2.3.2-.4-.3-.5-.8-.5-1.3.1-.6.6-1.1 1.2-1.1.1 0 .3 0 .4.1 2.1.7 3 2.8 3.2 4.5s-.2 3.5-.6 5.2c-.4 1.5-.7 2.9-.7 4.3 2.6-2.1 6-3.2 9.5-4.2 4.6-1.3 9.4-2.4 14-3.3 2.2-.5 4.5-1 6.7-1.5l.8-.2c5.4-1.2 11.5-2.6 15.3-6.7.7-.8 1.4-2 1.7-2.9-2.7-.5-4.6-3.6-6.1-6.2-.4-.7-.8-1.4-1.2-1.9-2.5-3.7-5.3-6.1-8.6-7.5-3.3-1.4-7.2-2.2-12.2-2.7-2.1-.2-4.4-.3-6.7-.3-5.5 0-11.4.5-18.1 1.6l-4.8.9c-1.7.3-3.4.7-5.1.9-2.5.4-5.1.6-8 .6-2 0-4.2-.1-6.7-.3-1-.1-2-.2-2.9-.3-2-.2-4-.4-6-.4s-3.8.2-5.4.6c-3.1.8-6.1 2-9 3.5-.2.1-.4.2-.6.2-.6 0-1.1-.4-1.3-1.1-.1-.6.1-1.1.6-1.4 5.6-3 10.8-4.5 16-4.5.7 0 1.4 0 2 .1 1 .1 2 .2 3 .2 3.4.3 6.9.6 10.4.6h1.2c3.7-.1 7.1-.7 10.8-1.4.6-.1 1.3-.2 1.9-.4 8-1.5 15.3-2.2 22.3-2.2h1c7.6.1 16.3.8 22.5 5.3 3.1 2.2 5.3 5.4 6.9 7.8.2.3.5.8.7 1.2 1 1.7 2.4 4.3 4.1 4.3h.7c.6 0 1.2.4 1.3 1 1.2 6.9-8.1 10.8-12.1 12.2z"/><path class="st0" d="M457.7 58.8h-.3c-2.2 0-4.5.4-6.9 1.1 1.1-1.5 2.2-3.1 3.3-4.6l.4-.6c.3-.4.3-.8.1-1.2-.2-.4-.7-.7-1.2-.7-.4 0-.8.2-1.1.6l-.4.6c-1.9 2.7-3.8 5.5-6 8-.3.4-.4 1-.2 1.4.2.5.7.8 1.2.8.2 0 .4 0 .6-.1 2.4-1.2 6.2-2.5 10.3-2.5h.3c.7 0 1.3-.5 1.3-1.3-.1-.8-.6-1.5-1.4-1.5z"/></g><g id="Слой_5"><path class="st3" d="M381.5 343.8s11.2 14.7 33 14c23-.7 24.9-23.4 51.1-24.2 22.5-.7 34.1 25.3 34.1 25.3M340.3 402.7c1.5.1 3 .2 4.7.2 1.5 0 3-.1 4.4-.2 22.3-2.3 25.9-22.3 47.5-22.3 21.9 0 32.6 15 32.6 15m-87 7.5c-23.2-.8-24.9-22.7-51.2-22.7-22.5 0-33.3 15-33.3 15M248.4 365.2s-10.8 15-33.3 15c-26.3 0-28.9-22.6-51.9-22.6-21.9 0-32.6 15-32.6 15m11.6 11.4s-10.7-15-32.6-15c-21.6 0-25.2 20-47.5 22.3-1.4.1-2.8.2-4.4.2-1.6 0-3.2-.1-4.7-.2M249.9 300.2s10.8-15 33.3-15c26.3 0 28 21.9 51.2 22.7M32.8 332.7s12.2 13.9 34 11.6c22.8-2.4 23.1-25.1 49.3-27.8 22.4-2.3 35.8 22.8 35.8 22.8M292.1 323.3s12.2 13.9 34 11.6c22.8-2.4 23.1-25.1 49.3-27.8 22.4-2.3 35.8 22.8 35.8 22.8"/><path class="st4" d="M195.9 367.3c38.1-19.7-5.2-70.8-5.2-70.8 62.6 8 97.9 70.8 97.9 70.8"/></g></g><path class="st4" d="M514.6 151.6l-512 1.1" id="Слой_2"/><g id="Слой_3_1_"><g id="character"><path class="st2" d="M95.6 236.9c-.1-.2-.2-.4-.5-.6l-3.4-3.2-3.2-3c-1.5-1.4-3.1-3-5-4.7-.2 0-.4-.1-.6-.3-.8-.7-1.7-1.1-2.7-1.1-1.8 0-3.8 1.4-4.6 3.3-.7 1.6-.4 3.3.8 4.6.1.1.1.2.2.3l12 11.9c.9.7 1.9 1.1 2.9 1.1 2 0 4-1.4 4.9-3.4.8-1.8.5-3.5-.8-4.9zM84.4 225.3c.5-.1.9-.5 1.1-.9-.2.4-.7.7-1.1.9zM25.3 170c-.9-.8-1.7-1.7-2.6-2.5.8.8 1.7 1.6 2.6 2.5zM80.5 220.7c1 0 2.1.2 3 .7l-.1-.1c-.8-.4-1.8-.6-2.9-.6.1 0 .1 0 0 0z"/><path class="st2" d="M76.4 225.4c1-1.1 2.4-1.8 3.8-1.8 1.1 0 2.1.4 3.1 1.2.2.2.4.3.6.3.3 0 .7-.2.9-.5-.2.2-.5.4-.8.4-.2 0-.4-.1-.6-.3-1-.8-2.1-1.2-3.1-1.2-1.5 0-2.9.7-3.9 1.9zM95.2 235.5s0 .1 0 0c0 .1 0 0 0 0zM18.7 178.6s.1 0 0 0c.9 0 1.7-1.4.9-2.2-1.9-1.8-3.7-3.7-5.6-5.5h-.1c1.9 1.8 3.7 3.7 5.6 5.5.8.8.1 2.1-.8 2.2zM11.9 170.8c-.2.2-.5.3-.7.3h-.1.1c.2 0 .5-.1.7-.3zM96 236.4c-.3-.2-.3-.5-.3-.8-.1.3-.1.7.2 1 1.7 1.8 1.7 4 .7 5.8 1.1-1.8 1.2-4.1-.6-6zM72 228.4c0 .3-.1.7-.1 1 0-.4.1-.7.1-1zM19.2 165.3zM78.9 220.9c-18.2-17.1-46.1-43.2-50.9-47.8 0-.1-.1-.1-.1-.1l-8.2-7.7c-.2.3-.3.6-.6.9-.5.5-1.1.7-1.6.8-.4.1-.8.2-1 .4-.2.2-.3.6-.4 1-.2.5-.3 1.2-.9 1.7-.2.2-.4.4-.7.5l.2.2 5.2 5.2c.1.1.1.2.2.3 1.2 1.3 5 4.9 8.7 8.6s7.5 7.4 8.7 8.6l27.3 27 7.4 7.3c.1-.5.3-1 .5-1.5 1.1-2.7 3.6-4.8 6.2-5.4zM79.6 239.1c-.4-.4-.8-.7-1.1-1.1.3.4.7.7 1.1 1.1zM18.9 179.1s-.1 0 0 0c14.8 14.7 37 36.6 53.7 53.2-.1-.2-.1-.3-.2-.5-16.6-16.3-38.7-38.1-53.5-52.7zM97.1 234.2h.1c-3.9-3.6-7.7-7.3-11.6-10.9v.1c3.9 3.6 7.6 7.2 11.5 10.8z"/><path class="st2" d="M75.7 233.9c-.2.1-.4.1-.6.1-.3 0-.6-.1-.8-.4-2.5-2.6-2.1-6-.5-8.5-1.7 2.6-2.1 5.9.4 8.6.2.3.5.4.8.4.3 0 .5-.1.7-.2zM11.6 168.2c-1.3-2.2-2.6-4.5-3.9-6.7-1-1.8-2-3.5-3-5.2 0-.1-.1-.1-.1-.2.1 0 .1.1.2.1 1.8 1 3.7 1.9 5.5 2.9 2.2 1.2 4.4 2.3 6.6 3.5.1-.5.3-.9.5-1.3.2-.3.5-.5.8-.6-.1-.1-.2-.1-.3-.2-.2.1-.4.3-.6.5-.2.3-.4.8-.5 1.3-2.2-1.2-4.4-2.3-6.6-3.5-1.8-1-3.7-1.9-5.5-2.9 0 0-.1-.1-.2-.1 0 .1.1.1.1.2-.7-.4-1.9-1.1-2.2-1.1.4-.3.7-.7 1-1l-.1-.1c.1-.1 0-.2 0-.2s-.1.1 0 .3c-.4.3-.7.7-1 1 .3 0 1.5.7 2.2 1.1 0 .1.1.1.1.2 1 1.8 2 3.5 3 5.2 1.3 2.2 2.6 4.5 4 6.8-.5 0-1 .2-1.4.1-.3.2-.5.6-.6.9l-4.5-7.8c-.9-1.5-2.8-3.7-3.6-5.8.8 2.1 2.8 4.6 3.7 6.1l4.5 7.8c.1-.3.3-.6.7-.7.3-.3.7-.4 1.2-.6zM91.4 247.9c-1.5 0-3-.5-4.4-1.7-.4-.4-.5-.9-.3-1.3-.3.5-.3 1.1.2 1.5 1.4 1.2 2.9 1.7 4.4 1.7 3.1 0 6.2-2.2 7.6-5.1-1.4 2.8-4.4 5-7.5 4.9z"/><path class="st2" d="M3.8 154.6c-.1-.2-.2-.3-.3-.5l-.1-.1c0 .1.1.2.2.3.1.1.2.2.2.3zM19.8 164.7c.1-.3.1-.5.1-.7 0-.3 0-.7.1-.8.2-.4.3-.7.3-1.1 3 2.9 6.1 5.8 9.2 8.7.2.2.3.4.3.7 0-.3-.1-.6-.3-.8-3-2.9-6.1-5.8-9.2-8.7 0 .4-.1.8-.3 1.1-.1.1-.1.5-.1.8s0 .6-.1.8zM28.9 173.4c6.5 6.1 33.1 31 50.5 47.4h.1c-17.5-16.4-44-41.3-50.6-47.4.6-.1 1.1-.5 1.5-1.2.1-.2.1-.4.1-.6l-.1-.1c0 .2 0 .5-.2.8-.2.6-.7 1-1.3 1.1zM6.5 158.5l1 1.7.1-.1-.9-1.6-.6-1.2-.3-.1.7 1.3zM11.9 167.9c.4-.2.8-.4.9-.6.1-.2.2-.5.2-.7.1-.5.2-1.1.8-1.7.6-.6 1.2-.7 1.7-.8.2-.1.5-.1.7-.2.3-.1.5-.5.6-.9l-5.7-2.9c-.6.9-1.4 1.8-2.3 2.5l3 5.2.1.1z"/><path class="st2" d="M17.9 161.5c-.6.7-.6 2.5-1.5 2.9-.8.4-1.5.2-2.2.9-.7.7-.5 1.3-.8 2.2-.3.9-2.1.9-2.8 1.5-.4.3-.5.7-.5 1 0-.3.1-.7.5-.9.7-.5 2.5-.6 2.8-1.5.3-.8.1-1.4.8-2.2s1.4-.6 2.2-.9c.9-.3 1-2.1 1.5-3 .3-.3.6-.4.9-.4.6 0 1.1.5 1.1 1.1 0-.7-.5-1.2-1.1-1.2-.3 0-.7.1-.9.5z"/><path class="st0 pen" d="M98.4 234.9c-.1-.3-.2-.5-.4-.7l-28.3-26.5-21.8-20.5c-1.2-1.1-5.2-4.9-9.3-8.7-4.1-3.8-8.1-7.7-9.3-8.8 0 0-.1 0-.1-.1l-4-3.8-5.1-4.8s-.1-.1-.2-.1c-.1-.1-.3-.3-.5-.4l-8.8-4.7-5.4-2.9c-.2-.1-.3-.2-.5-.3-.6-.4-1.2-.7-2.1-.7h-.5c-.7.1-1.3.8-1.4 1.5-.2 2 1.5 4.5 2.9 6.6.4.6.9 1.3 1.2 1.8l2.6 4.5 2.6 4.5c.1.2.3.4.5.5l4.5 4.4 2.8 2.8c.1.1.1.2.2.3 8.5 8.4 19.6 19.3 30.7 30.3 11.1 10.9 22.1 21.8 30.7 30.3l5 4.9 2.4 2.3c1.4 1.2 3 1.8 4.7 1.8 3.3 0 6.8-2.4 8.2-5.8 1-2.6.6-5.5-1.3-7.7zm-33.6-14.4l-27.3-27c-1.2-1.2-5-4.9-8.7-8.6s-7.5-7.3-8.7-8.6c-.1-.1-.1-.2-.2-.3l-5.2-5.2-.2-.2c.3-.1.5-.3.7-.5.6-.5.7-1.2.9-1.7.1-.4.2-.8.4-1 .2-.2.6-.3 1-.4.5-.1 1.1-.3 1.6-.8.3-.3.4-.6.6-.9l8.2 7.7s.1 0 .1.1c4.8 4.6 32.7 30.7 50.9 47.8-2.6.6-5.1 2.7-6.2 5.4-.2.5-.4 1-.5 1.5l-7.4-7.3zm26.7 24.7c-1 0-2-.4-2.9-1.1l-12-11.9c-.1-.1-.1-.2-.2-.3-1.2-1.3-1.5-3-.8-4.6.8-1.9 2.8-3.3 4.6-3.3 1 0 1.9.4 2.7 1.1.2.2.4.3.6.3 1.9 1.7 3.5 3.3 5 4.7l3.2 3 3.4 3.2c.3.2.4.4.5.6 1.3 1.4 1.6 3.1.8 4.9-.9 2-2.9 3.4-4.9 3.4zm-80.4-85.1l5.7 2.9c-.1.4-.3.8-.6.9-.2.1-.5.1-.7.2-.5.1-1.1.2-1.7.8-.6.6-.7 1.2-.8 1.7 0 .2-.1.5-.2.7-.1.2-.5.4-.9.6l-.1-.1-3-5.2c.9-.7 1.7-1.6 2.3-2.5z"/></g></g></g></switch></svg>