<svg xmlns="http://www.w3.org/2000/svg" xmlns:xlink="http://www.w3.org/1999/xlink" width="13" height="19"><defs><path id="a" d="M771.199 1767.45v-6.1c0-2.956-3.102-5.1-6-5.1-2.897 0-6 2.144-6 5.1l.002 8.375v.283c0 .47.42.85.937.85.518 0 .937-.38.937-.85v-8.65c0-1.638 1.938-3.409 4.124-3.409s4.126 1.771 4.126 3.409v7.8c0 .063.01.123.025.182l-.025 1.518c0 .938-1.844 1.692-2.88 1.692-1.034 0-1.876-.763-1.876-1.7v-3.4l.006-4.392c0-.235.173-.567.625-.567.413 0 .625.321.625.567v1.7c0 .078.003.15.008.218-.002.022-.008.043-.008.065v2.134c0 .469.42.85.938.85.517 0 .937-.381.937-.85v-2.134c0-.027-.006-.052-.009-.078a2.48 2.48 0 0 0 .01-.205v-1.7c0-1.227-1.121-2.267-2.5-2.267-1.38 0-2.5.99-2.5 2.267l-.002.784c-.002.02-.007.038-.007.057v6.95c0 1.875 1.684 3.4 3.754 3.4 2.07 0 4.754-1.516 4.754-3.39z"/></defs><use fill="#a16ac7" xlink:href="#a" transform="translate(-759 -1756)"/></svg>