<svg xmlns="http://www.w3.org/2000/svg" xmlns:xlink="http://www.w3.org/1999/xlink" width="17" height="16"><defs><path id="a" d="M1011.2 8926.023c0 1.467-.44 2.72-1.317 3.758-.876 1.04-1.916 1.56-3.12 1.56-.819 0-1.439-.312-1.86-.94-.558.653-1.229.98-2.015.98-.88 0-1.631-.366-2.257-1.103-.626-.736-.938-1.706-.938-2.906 0-1.228.35-2.234 1.056-3.014.703-.78 1.551-1.17 2.54-1.17.623 0 1.197.212 1.72.635l.132-.474h2.055l-.597 4.84a8.323 8.323 0 0 0-.055.863c0 .303.142.452.424.452.523 0 1.028-.324 1.512-.98.485-.653.73-1.473.73-2.457 0-1.438-.53-2.631-1.59-3.58-1.06-.949-2.36-1.423-3.898-1.423-1.67 0-3.079.58-4.221 1.732-1.147 1.155-1.721 2.593-1.721 4.318 0 1.588.536 2.972 1.605 4.15 1.072 1.18 2.584 1.77 4.536 1.77 1.227 0 2.485-.274 3.77-.821a.963.963 0 0 1 1.27.515.952.952 0 0 1-.52 1.232c-1.476.626-2.982.94-4.516.94-2.546 0-4.57-.769-6.075-2.302-1.5-1.535-2.25-3.364-2.25-5.493 0-2.221.79-4.077 2.366-5.57 1.576-1.492 3.486-2.237 5.727-2.237 2.132 0 3.917.656 5.352 1.967 1.439 1.311 2.155 2.9 2.155 4.758zm-6.338.897c0-.502-.148-.903-.443-1.206-.295-.303-.633-.452-1.011-.452-.437 0-.803.204-1.098.605-.296.401-.443.93-.443 1.585 0 .531.106.973.317 1.33.21.356.485.535.829.535.504 0 .937-.245 1.3-.729.363-.487.546-1.04.55-1.668z"/></defs><use fill="#9ff4dc" xlink:href="#a" transform="translate(-995 -8919)"/></svg>