<svg xmlns="http://www.w3.org/2000/svg" xmlns:xlink="http://www.w3.org/1999/xlink" width="14" height="15"><defs><path id="a" d="M1007.322 8971.317c-.855-.744-1.723-1.194-2.569-.451l-.504.448c-.37.326-1.056 1.847-3.71-1.254-2.653-3.098-1.074-3.58-.704-3.903l.507-.449c.841-.744.524-1.68-.082-2.644l-.366-.585c-.61-.96-1.272-1.592-2.115-.85l-.456.404c-.372.276-1.413 1.172-1.666 2.875-.304 2.041.655 4.38 2.852 6.947 2.194 2.567 4.342 3.857 6.376 3.835a4.26 4.26 0 0 0 3.032-1.276l.457-.404c.841-.743.319-1.499-.537-2.244z"/></defs><use fill="#9ff4dc" xlink:href="#a" transform="translate(-995 -8961)"/></svg>