<svg xmlns="http://www.w3.org/2000/svg" viewBox="0 0 302.5 100.9"><style>.animate:not(#path){stroke-dasharray:1000;stroke-dashoffset:0;opacity:0;-webkit-animation:dash 3s linear forwards;animation:dash 3s linear forwards}#path.animate{-webkit-animation:dashed 1s linear forwards;animation:dashed 1s linear forwards}path{opacity:0}@-webkit-keyframes dash{0%{opacity:0;stroke-dashoffset:1000}15%{opacity:1}100%{opacity:1;stroke-dashoffset:0}}@keyframes dash{0%{opacity:0;stroke-dashoffset:1000}15%{opacity:1}100%{opacity:1;stroke-dashoffset:0}}@-webkit-keyframes dashed{0%{opacity:0;stroke-dasharray:20,1}15%{opacity:1}100%{opacity:1;stroke-dasharray:18,10}}@keyframes dashed{0%{opacity:0;stroke-dasharray:20,1}15%{opacity:1}100%{opacity:1;stroke-dasharray:18,10}}.st2{fill:none;stroke:#2e2e2e;stroke-width:3;stroke-linecap:round;stroke-linejoin:round;stroke-miterlimit:10}@media all and
(-ms-high-contrast:none),(-ms-high-contrast:active){path{opacity:1}}</style><path id="path" d="M1.3 94.8C32 67.3 74.7 50.2 121.6 47.5" fill="none" stroke="#2e2e2e" stroke-width="4" stroke-miterlimit="10" stroke-dasharray="18,10"/><path d="M131.8 80.1l-.9 1.2 29.7-.5" fill="none" stroke="#2e2e2e" stroke-width="3" stroke-linejoin="round" stroke-miterlimit="10"/><path class="st2" d="M150.3 42.6L140.1 1.5l161 78.1-136.6 19.8-9.7-38.8M153.2 53.6"/><path class="st2" d="M130.3 80.9l19.6-37.3-.1-.3h.2l148.3 35.8-142.6-19.2-25.4 21z"/><path d="M174.7 73.6c1.9-2.3 5.3-2.7 7.7-.9 1.4 1.1 2.1 2.8 2 4.4 1.6-.4 3.4-.1 4.8 1 2.4 1.9 2.7 5.3.9 7.7-1.7 2.1-15.3 3.3-15.3 3.3s-1.8-13.4-.1-15.5z" fill-rule="evenodd" clip-rule="evenodd" fill="#a16ac7"/><path d="M174.5 89.4l-.1-.7c-.3-2.1-1.5-12.8.1-14.9 2-2.5 5.6-2.9 8.1-.9 1.2.9 1.9 2.3 2.1 3.8 1.5-.2 3 .3 4.2 1.2 2.5 2 2.9 5.6.9 8.1-1.7 2.1-12.5 3.1-14.6 3.3l-.7.1z" fill="none" stroke="#2e2e2e" stroke-width="2" stroke-linecap="round" stroke-linejoin="round" stroke-miterlimit="10"/></svg>