<svg xmlns="http://www.w3.org/2000/svg" viewBox="0 0 690 321.4"> <style>path{opacity:0}path.animate{opacity:1}.plane.animate{-webkit-animation:paint 2.5s linear forwards;animation:paint 2.5s linear forwards;stroke-dasharray:460;stroke-dashoffset:480}@-webkit-keyframes paint{0%{opacity:0;stroke-dashoffset:480}15%{opacity:1}100%{opacity:1;stroke-dashoffset:0}}@keyframes paint{0%{opacity:0;stroke-dashoffset:480}15%{opacity:1}100%{opacity:1;stroke-dashoffset:0}}.st1,.st2{fill:none;stroke:#2e2e2e;stroke-miterlimit:10}.st1{stroke-linecap:round;stroke-linejoin:round;stroke-width:3}.st2{stroke-width:4}.dot{opacity:0}.dot.animate{-webkit-transition:1s ease 2s;-o-transition:1s ease 2s;transition:1s ease 2s;opacity:1}.dashed{stroke-dasharray:15}.path.animate{stroke-dasharray:1560;stroke-dashoffset:1560;-webkit-animation:dash 2.5s linear forwards;animation:dash 2.5s linear forwards}@-webkit-keyframes dash{0%,15%{stroke-dashoffset:1560}100%{stroke-dashoffset:0}}@keyframes dash{0%,15%{stroke-dashoffset:1560}100%{stroke-dashoffset:0}}@media all and (-ms-high-contrast:none),(-ms-high-contrast:active){path,.dot{opacity:1}}</style> <path class="plane" d="M54.8 131.4L65.9 159l.7-1.3" fill="none" stroke="#2e2e2e" stroke-width="3" stroke-linejoin="round" stroke-miterlimit="10"/> <path class="st1 plane" d="M75.7 128.9L36.1 135 1.5 1.5l134.4 118.1-41.9 6.5M82.7 127.7"/> <path class="st1 plane" d="M76 127.8L2.9 3.9l90.5 122.8.1.1h-.3l-26.8 32.5 9.6-31.5z"/> <path class="st2" d="M688.1 200.7c-1.2 2.8-2.4 5.5-3.7 8.2"/> <path class="path" d="M679.9 217.8C635.8 300.2 553 320.6 507.2 319.3c-60.4-1.7-123.6-33.6-172.3-51-60-21.5-128.4-41.3-143.4-111.9-15.7-74.1 46.6-148.5 122.3-144 145 8.7 152.5 161 75.8 249.7C286.7 381 132.5 298.5 94.5 161.8" fill="none" stroke="#2e2e2e" stroke-width="4" stroke-miterlimit="10" stroke-dasharray="1540"/> <path class="dashed" d="M679.9 217.8C635.8 300.2 553 320.6 507.2 319.3c-60.4-1.7-123.6-33.6-172.3-51-60-21.5-128.4-41.3-143.4-111.9-15.7-74.1 46.6-148.5 122.3-144 145 8.7 152.5 161 75.8 249.7C286.7 381 132.5 298.5 94.5 161.8" fill="none" stroke="#fff" stroke-width="6" stroke-miterlimit="10" stroke-dasharray="17.8459,9.9144"/> <path class="st2" d="M93.3 157c-.7-2.9-1.4-5.8-2.1-8.8"/> <path class="dot" d="M45.8 109.5c3.7-.4 7.1 2.3 7.5 6s-2.3 7.1-6 7.5c-3.7.4-7.1-2.3-7.5-6-.4-3.8 2.3-7.1 6-7.5z" fill="#25d6b4"/></svg>