<svg id="Fotter" xmlns="http://www.w3.org/2000/svg" viewBox="0 0 738.5 392.3"><style>.st1{display:none;fill:none;stroke:#25d6b4;stroke-width:2}</style><path id="Прямоугольник_6_1_" d="M926.6 634.9L808.9 785.8 369.7 223-69.8 786.2l-117.8-150.9 557.2-714v-.1l557 713.7z" fill="#eefefa"/><path class="st1" d="M-195 261.8c-38.6-46.4-75.1-84-109.4-112.7-9.6-8.4-16.8-12.5-21.8-12.5-3.4 0-5.1 2.5-5.1 7.4 0 18.9 26.6 74.5 79.8 167 21.6 36.5 35.6 59.7 42 69.6 6.3 9.9 9.5 15.5 9.5 16.7 0 3.7-2.6 5.6-7.9 5.6-11.4 0-21.2-7.3-29.2-21.8-15.8-28.1-49-67.1-99.7-116.9s-90.9-86.8-120.6-110.9c38 52.9 66.2 95 84.4 126.2 28.4 49.8 42.7 88 42.7 114.6 0 11.4-2.8 21.2-8.3 29.2-1.9 2.8-6.9 4.2-15.1 4.2s-20.4-4.2-36.6-12.5c-16.2-8.4-24.3-14.9-24.3-19.5 0-.9.8-1.7 2.3-2.3 4 .9 12.4 4.2 25.3 9.7s21.3 8.7 25.3 9.5c4 .8 7 .2 8.8-1.9 1.9-2 2.8-5.7 2.8-10.9 0-20.1-13.4-53.7-40.3-100.7-27.1-47.3-60.2-91-98.3-129.9-14.8-15.2-22.3-25.1-22.3-29.9 0-4.8 1.5-11.1 4.4-18.8 2.9-7.7 6.7-11.6 11.4-11.6 4.6 0 9.9 2.5 15.8 7.4l74.2 61.3c38 33.1 66.8 60.7 86.3 82.8 19.5 22.1 29.7 33.9 30.6 35.5-.3-.3-.9-2.2-1.9-5.6s-2.5-8-4.6-13.7c-2.2-5.7-8.2-17.8-18.1-36.2s-19.7-37.9-29.4-58.5-14.6-35.9-14.6-46.2c0-11.8 5.6-17.6 16.7-17.6 8 0 17.7 3 29 9s21.7 13.6 30.8 22.5c42.7 41.8 72.7 73.9 90 96.5l35.7 45.5c-19.5-30.3-32-51.2-37.6-62.6-17.6-36.8-26.4-66-26.4-87.7 0-14.2 4.4-25.6 13.2-34.1 8.8-8.5 25.4-12.8 49.9-12.8 24.4 0 50 4.2 76.7 12.5 26.7 8.3 48.3 19 64.7 32 63.7 51 95.5 101 95.5 149.9 0 21.7-6.3 39.1-19 52.4-12.7 13.3-29.7 20-51 20s-40-4.9-56.1-14.8-27.3-20.4-33.6-31.5c-6.3-11.1-9.5-20-9.5-26.5 0-10.5 4-15.8 12.1-15.8 1.9 0 2.8.5 2.8 1.4.1.7-.1 1.3-.5 1.9-3.1 1.9-4.6 6.3-4.6 13.5 0 7.1 3.7 15.8 11.1 26 19.5 25.7 47 38.5 82.5 38.5h3.7c27.8-.6 41.7-16.7 41.7-48.3 0-22-8.2-46.9-24.6-74.9-16.4-28-40-54.5-71-79.6-38.6-31.2-76.1-46.9-112.2-46.9-23.2 0-37.9 6.3-44.1 19-3.1 6.5-4.6 14.4-4.6 23.7 0 22.3 10.4 52.1 31.1 89.5 9.6 17.3 28.4 46.9 56.6 88.9S-64 395-59.6 408.9c.9 3.1 0 5.3-2.8 6.7-2.8 1.4-7.3 2.1-13.4 2.1-5.8.1-11.5-1.2-16.7-3.7-5.6-4.3-8.3-6.7-8.3-7 2.7-1.4 4.4-4.4 4.2-7.4 0-3.4-3.7-10.8-11.1-22.3-19.6-30.5-48.7-69.1-87.3-115.5zM847.4 377.4c-7.4 11.4-11.1 18.9-11.1 22.3-.2 3.1 1.4 6 4.2 7.4 0 .3-2.8 2.6-8.3 7-5.2 2.5-10.9 3.8-16.7 3.7-6.2 0-10.7-.7-13.4-2.1-2.8-1.4-3.7-3.6-2.8-6.7 4.3-13.9 20.6-41.8 48.7-83.7s47-71.5 56.6-88.9c20.7-37.4 31.1-67.3 31.1-89.5 0-9.3-1.6-17.2-4.6-23.7-6.2-12.7-20.9-19-44.1-19-36.2 0-73.6 15.6-112.2 46.9-30.9 25.1-54.6 51.6-71 79.6-16.4 28-24.6 53-24.6 74.9 0 31.5 13.9 47.6 41.7 48.3h3.7c35.6 0 63.1-12.8 82.5-38.5 7.4-10.2 11.1-18.9 11.1-26 0-7.1-1.6-11.6-4.6-13.5-.4-.5-.5-1.2-.5-1.9 0-.9.9-1.4 2.8-1.4 8 0 12.1 5.3 12.1 15.8 0 6.5-3.2 15.3-9.5 26.5-6.3 11.1-17.5 21.7-33.6 31.5-16.1 9.9-34.8 14.8-56.1 14.8-21.3 0-38.3-6.6-51-20-12.7-13.3-19-30.8-19-52.4 0-48.9 31.8-98.8 95.5-149.9 16.4-13 37.9-23.7 64.7-32 26.7-8.4 52.3-12.5 76.7-12.5 24.4 0 41 4.3 49.9 12.8 8.8 8.5 13.2 19.9 13.2 34.1 0 21.7-8.8 50.9-26.4 87.7-5.6 11.5-18.1 32.3-37.6 62.6l35.7-45.5c17.3-22.6 47.3-54.8 90-96.5 9.2-8.9 19.6-16.5 30.8-22.5 11.3-6 20.9-9 29-9 11.1 0 16.7 5.9 16.7 17.6 0 10.2-4.9 25.6-14.6 46.2s-19.5 40.1-29.4 58.5c-9.9 18.4-15.9 30.5-18.1 36.2s-3.7 10.3-4.6 13.7-1.6 5.3-1.9 5.6c.9-1.5 11.1-13.4 30.6-35.5s48.2-49.7 86.3-82.8l74.2-61.3c5.9-4.9 11.1-7.4 15.8-7.4 4.6 0 8.4 3.9 11.4 11.6 2.9 7.7 4.4 14 4.4 18.8 0 4.8-7.4 14.8-22.3 29.9-38.2 38.9-71.2 82.6-98.3 129.9-26.9 47-40.3 80.6-40.3 100.7 0 5.3.9 8.9 2.8 10.9s4.8 2.6 8.8 1.9c4-.8 12.4-3.9 25.3-9.5s21.3-8.8 25.3-9.7c1.5.6 2.3 1.4 2.3 2.3 0 4.6-8.1 11.1-24.3 19.5-16.2 8.3-28.4 12.5-36.6 12.5-8.2 0-13.2-1.4-15.1-4.2-5.6-8-8.3-17.8-8.3-29.2 0-26.6 14.2-64.8 42.7-114.6 18.2-31.2 46.4-73.3 84.4-126.2-29.7 24.1-69.9 61.1-120.6 110.9s-83.9 88.8-99.7 116.9c-8 14.5-17.8 21.8-29.2 21.8-5.3 0-7.9-1.8-7.9-5.6 0-1.2 3.2-6.8 9.5-16.7 6.3-9.9 20.3-33.1 42-69.6 53.2-92.5 79.8-148.2 79.8-167 0-4.9-1.7-7.4-5.1-7.4-5 0-12.2 4.2-21.8 12.5-34.3 28.8-70.8 66.3-109.4 112.7-39.1 46.2-68.2 84.8-87.7 115.4z"/></svg>