<svg xmlns="http://www.w3.org/2000/svg" viewBox="0 0 394.8 299.5"><style>.animate,path{opacity:0}.animate{stroke-dasharray:5000;stroke-dashoffset:0;-webkit-animation:dash 2s linear
forwards;animation:dash 2s linear forwards}@-webkit-keyframes
dash{0%{opacity:0;stroke-dashoffset:5000}15%{opacity:1}100%{opacity:1;stroke-dashoffset:0}}@keyframes
dash{0%{opacity:0;stroke-dashoffset:5000}15%{opacity:1}100%{opacity:1;stroke-dashoffset:0}}@media all and
(-ms-high-contrast:none),(-ms-high-contrast:active){path{opacity:1}}</style><path d="M190.2 284.6c-7.4 11.4-11.1 18.9-11.1 22.3-.2 3.1 1.4 6 4.2 7.4 0 .3-2.8 2.6-8.3 7-5.2 2.5-10.9 3.8-16.7 3.7-6.2 0-10.7-.7-13.4-2.1-2.8-1.4-3.7-3.6-2.8-6.7 4.3-13.9 20.6-41.8 48.7-83.7s47-71.5 56.6-88.9c20.7-37.4 31.1-67.3 31.1-89.5 0-9.3-1.6-17.2-4.6-23.7-6.2-12.7-20.9-19-44.1-19-36.2 0-73.6 15.6-112.2 46.9-30.9 25.1-54.6 51.6-71 79.6-16.4 28-24.6 53-24.6 74.9 0 31.5 13.9 47.6 41.7 48.3h3.7c35.6 0 63.1-12.8 82.5-38.5 7.4-10.2 11.1-18.9 11.1-26 0-7.1-1.6-11.6-4.6-13.5-.4-.5-.5-1.2-.5-1.9 0-.9.9-1.4 2.8-1.4 8 0 12.1 5.3 12.1 15.8 0 6.5-3.2 15.3-9.5 26.5-6.3 11.1-17.5 21.7-33.6 31.5-16.1 9.9-34.8 14.8-56.1 14.8-21.3 0-38.3-6.6-51-20-12.7-13.3-19-30.8-19-52.4 0-48.9 31.8-98.8 95.5-149.9 16.4-13 37.9-23.7 64.7-32C188.4 5.7 214 1.5 238.4 1.5c24.4 0 41 4.3 49.9 12.8 8.8 8.5 13.2 19.9 13.2 34.1 0 21.7-8.8 50.9-26.4 87.7-5.6 11.5-18.1 32.3-37.6 62.6l35.7-45.5c17.3-22.6 47.3-54.7 90-96.5 9.2-8.9 19.6-16.5 30.8-22.5 11.3-6 20.9-9 29-9 11.1 0 16.7 5.9 16.7 17.6 0 10.2-4.9 25.6-14.6 46.2s-19.5 40.1-29.4 58.5-15.9 30.5-18.1 36.2c-2.2 5.7-3.7 10.3-4.6 13.7s-1.6 5.3-1.9 5.6c.9-1.5 11.1-13.4 30.6-35.5s48.2-49.7 86.3-82.8l74.2-61.3c5.9-4.9 11.1-7.4 15.8-7.4 4.6 0 8.4 3.9 11.4 11.6 2.9 7.7 4.4 14 4.4 18.8 0 4.8-7.4 14.8-22.3 29.9-38.2 38.9-71.2 82.6-98.3 129.9-26.9 47-40.3 80.6-40.3 100.7 0 5.3.9 8.9 2.8 10.9s4.8 2.6 8.8 1.9c4-.8 12.4-3.9 25.3-9.5s21.3-8.8 25.3-9.7c1.5.6 2.3 1.4 2.3 2.3 0 4.6-8.1 11.1-24.3 19.5-16.2 8.3-28.4 12.5-36.6 12.5-8.2 0-13.2-1.4-15.1-4.2-5.6-8-8.3-17.8-8.3-29.2 0-26.6 14.2-64.8 42.7-114.6 18.2-31.2 46.4-73.3 84.4-126.2-29.7 24.1-69.9 61.1-120.6 110.9s-83.9 88.8-99.7 116.9c-8 14.5-17.8 21.8-29.2 21.8-5.3 0-7.9-1.8-7.9-5.6 0-1.2 3.2-6.8 9.5-16.7 6.3-9.9 20.3-33.1 42-69.6 53.2-92.5 79.8-148.2 79.8-167 0-4.9-1.7-7.4-5.1-7.4-5 0-12.2 4.2-21.8 12.5C352.5 85.1 316 122.6 277.4 169c-38.7 46.4-67.7 84.9-87.2 115.6z" fill="none" stroke="#25d6b4" stroke-width="2" /></svg>